<?xml version="1.0" encoding="UTF-8" standalone="no"?>
<svg
   viewBox="0 0 77.309115 85.361378"
   version="1.1"
   id="svg686"
   sodipodi:docname="Gordons.svg"
   width="77.309113"
   height="85.361382"
   inkscape:version="1.2.2 (b0a8486541, 2022-12-01)"
   xmlns:inkscape="http://www.inkscape.org/namespaces/inkscape"
   xmlns:sodipodi="http://sodipodi.sourceforge.net/DTD/sodipodi-0.dtd"
   xmlns="http://www.w3.org/2000/svg"
   xmlns:svg="http://www.w3.org/2000/svg"
   xmlns:rdf="http://www.w3.org/1999/02/22-rdf-syntax-ns#"
   xmlns:cc="http://creativecommons.org/ns#"
   xmlns:dc="http://purl.org/dc/elements/1.1/">
  <sodipodi:namedview
     id="namedview688"
     pagecolor="#505050"
     bordercolor="#eeeeee"
     borderopacity="1"
     inkscape:showpageshadow="0"
     inkscape:pageopacity="0"
     inkscape:pagecheckerboard="0"
     inkscape:deskcolor="#505050"
     showgrid="false"
     inkscape:zoom="3.1119241"
     inkscape:cx="111.66725"
     inkscape:cy="42.417486"
     inkscape:window-width="1346"
     inkscape:window-height="707"
     inkscape:window-x="10"
     inkscape:window-y="51"
     inkscape:window-maximized="1"
     inkscape:current-layer="Layer_40" />
  <defs
     id="defs408">
    <style
       id="style362">.cls-1{fill:#231f20;}.cls-2{fill:url(#linear-gradient);}.cls-3{fill:url(#linear-gradient-2);}.cls-4{fill:url(#linear-gradient-3);}.cls-5{fill:url(#linear-gradient-4);}.cls-6{fill:url(#linear-gradient-5);}.cls-7{fill:#007ab1;}.cls-8{fill:#de3e33;}.cls-9{fill:#e08054;}.cls-10{fill:#fff;}.cls-11{fill:#96989b;}.cls-12{fill:#a9803e;}.cls-13{fill:#e8903a;}.cls-14{fill:url(#linear-gradient-6);}</style>
    <linearGradient
       id="linear-gradient"
       x1="22.93"
       y1="73.949997"
       x2="63.450001"
       y2="73.949997"
       gradientUnits="userSpaceOnUse">
      <stop
         offset="0"
         stop-color="#e8903a"
         id="stop364" />
      <stop
         offset="0.3"
         stop-color="#ffebc4"
         id="stop366" />
      <stop
         offset="0.75"
         stop-color="#ffebc4"
         id="stop368" />
      <stop
         offset="1"
         stop-color="#e8903a"
         id="stop370" />
    </linearGradient>
    <linearGradient
       id="linear-gradient-2"
       x1="55.259998"
       y1="60.599998"
       x2="64.059998"
       y2="60.599998"
       gradientUnits="userSpaceOnUse">
      <stop
         offset="0"
         stop-color="#ffebc4"
         id="stop373" />
      <stop
         offset="0.63"
         stop-color="#e8903a"
         id="stop375" />
    </linearGradient>
    <linearGradient
       id="linear-gradient-3"
       x1="57.360001"
       y1="66.389999"
       x2="62.099998"
       y2="68.120003"
       gradientUnits="userSpaceOnUse">
      <stop
         offset="0.21"
         stop-color="#e8903a"
         id="stop378" />
      <stop
         offset="1"
         stop-color="#ffebc4"
         id="stop380" />
    </linearGradient>
    <linearGradient
       id="linear-gradient-4"
       x1="1.26"
       y1="57.360001"
       x2="24.879999"
       y2="80.970001"
       gradientUnits="userSpaceOnUse">
      <stop
         offset="0.06"
         stop-color="#e8903a"
         id="stop383" />
      <stop
         offset="0.51"
         stop-color="#ffebc4"
         id="stop385" />
      <stop
         offset="1"
         stop-color="#e8903a"
         id="stop387" />
    </linearGradient>
    <linearGradient
       id="linear-gradient-5"
       x1="0.20999999"
       y1="4.8699999"
       x2="48.41"
       y2="53.07"
       gradientUnits="userSpaceOnUse">
      <stop
         offset="0"
         stop-color="#ffebc4"
         id="stop390" />
      <stop
         offset="0.28"
         stop-color="#e8903a"
         id="stop392" />
      <stop
         offset="0.54"
         stop-color="#ffebc4"
         id="stop394" />
      <stop
         offset="0.78"
         stop-color="#e8903a"
         id="stop396" />
      <stop
         offset="1"
         stop-color="#ffebc4"
         id="stop398" />
    </linearGradient>
    <linearGradient
       id="linear-gradient-6"
       x1="37.32"
       y1="27.870001"
       x2="55.459999"
       y2="27.870001"
       gradientUnits="userSpaceOnUse">
      <stop
         offset="0"
         stop-color="#c0c2c3"
         id="stop401" />
      <stop
         offset="0.51"
         stop-color="#fff"
         id="stop403" />
      <stop
         offset="1"
         stop-color="#c0c2c3"
         id="stop405" />
    </linearGradient>
  </defs>
  <title
     id="title410">Footer Logo</title>
  <g
     id="Layer_2"
     data-name="Layer 2"
     transform="translate(2.5434892,1.5824122)">
    <g
       id="Layer_40"
       data-name="Layer 40">
      <path
         class="cls-1"
         d="m 60.22,62.62 a 5,5 0 0 1 2,-0.06 26,26 0 0 1 2.92,1.21 c 0,0 -0.36,-0.94 -0.5,-1.18 a 13.31,13.31 0 0 1 -0.77,-1.65 7.63,7.63 0 0 0 -1.36,-1.77 13.29,13.29 0 0 1 -1,-0.89 3.79,3.79 0 0 1 0.24,-1.15 5.06,5.06 0 0 1 1.06,-1.65 21.3,21.3 0 0 1 2.75,-1.3 16.18,16.18 0 0 0 -2.45,-0.35 13.39,13.39 0 0 0 -3.31,0.41 7.37,7.37 0 0 0 -2.51,1.33 7.48,7.48 0 0 0 -1.8,2.43 17.64,17.64 0 0 0 -0.85,2.81 8,8 0 0 0 -0.06,2 13.3,13.3 0 0 0 0.35,1.57 l 2,5.37 a 6.34,6.34 0 0 1 -0.92,0.44 10.43,10.43 0 0 1 -2.25,0.48 40.83,40.83 0 0 1 -4.31,0.21 32.18,32.18 0 0 1 -6.05,-0.83 c -1.42,-0.29 -6.09,-1.48 -6.09,-1.48 -0.83,-0.2 -9.6,-1.86 -9.6,-1.86 0,0 -2.18,0.27 -2.66,0.35 a 7.62,7.62 0 0 0 -1.77,0.68 2.81,2.81 0 0 0 -1.06,1.33 2.4,2.4 0 0 0 -0.12,1 l 0.35,1.64 a 11.22,11.22 0 0 1 -1.85,0.13 8.71,8.71 0 0 1 -4,-1.15 10,10 0 0 1 -3.58,-3 7.65,7.65 0 0 1 -1.3,-4.25 12.36,12.36 0 0 1 0.83,-4.7 15.48,15.48 0 0 1 1.27,-2.36 L 12.43,55 C 12.1,54.67 10.81,53.14 10.81,53.14 L 10.92,52 A 0.46,0.46 0 0 1 10.75,51.59 21.21,21.21 0 0 0 11.46,49.31 9.43,9.43 0 0 0 11.11,46.71 24.45,24.45 0 0 0 9.43,43.49 13.14,13.14 0 0 0 7.92,41.6 0.77,0.77 0 0 0 7.09,41.46 16.62,16.62 0 0 1 7.74,44 7.69,7.69 0 0 1 7.18,46.83 1.77,1.77 0 0 1 6.32,47.63 c 0,0 -0.59,-1.18 -0.8,-1.74 A 5.8,5.8 0 0 0 3.75,43.5 C 2.9,42.92 0.21,43 0,43 v 0 c 0.11,0.07 1,0.6 1.4,0.91 a 6,6 0 0 1 1.12,1.42 3.72,3.72 0 0 1 0.24,1.83 4.19,4.19 0 0 1 -0.56,1.21 6.06,6.06 0 0 0 -0.74,2.06 6.6,6.6 0 0 0 0.21,1.51 c 0.11,0.3 0.2,0.83 0.41,1.27 0.21,0.44 0.41,0.68 0.56,0.68 h 0.62 c 0,0 -0.18,1.54 -0.27,2 -0.09,0.46 -0.5,2.81 -0.62,3.81 -0.12,1 -0.45,2.95 -0.45,3.81 0,0.86 0,3.16 0.06,3.6 a 23.9,23.9 0 0 0 0.41,2.57 21.14,21.14 0 0 0 1.54,3.32 16,16 0 0 0 2.13,2.8 13.33,13.33 0 0 0 2,1.92 29.4,29.4 0 0 0 5.5,2.92 38,38 0 0 0 3.9,0.94 25.66,25.66 0 0 0 3,0.27 36.16,36.16 0 0 0 4,-0.29 8.19,8.19 0 0 0 2.5,-0.95 1.45,1.45 0 0 0 0.41,-0.77 v -1.72 0 -0.43 a 5.51,5.51 0 0 1 0.65,-0.06 11.88,11.88 0 0 1 1.77,0.3 c 0.44,0.11 2.72,0.62 3.25,0.8 0.53,0.18 5,1.2 6.27,1.45 a 55.13,55.13 0 0 0 6.81,1.19 33.52,33.52 0 0 0 6.88,-0.08 19.65,19.65 0 0 0 6.11,-1.51 9.94,9.94 0 0 0 3.81,-2.54 4.65,4.65 0 0 0 0.92,-1.74 10.66,10.66 0 0 0 0.18,-2 c 0,0 -0.11,-2.3 -0.09,-3.16 0.02,-0.86 0.32,-2 0.38,-2.6 A 4.08,4.08 0 0 0 63.87,65.61 3.64,3.64 0 0 0 62,64.25 c -0.65,-0.18 -3.07,-0.41 -3.07,-0.41 a 0.8,0.8 0 0 1 0.18,-0.47 2.78,2.78 0 0 1 1.11,-0.75 z"
         id="path412" />
      <path
         class="cls-2"
         d="m 23,70 c 0,0 -0.18,-0.6 -0.06,-0.77 a 1.88,1.88 0 0 1 0.91,-0.62 7.72,7.72 0 0 1 2.62,-0.7 26.64,26.64 0 0 1 3.84,-0.06 55.36,55.36 0 0 1 5.85,1.46 c 0,0 3.43,0.85 4.54,1.1 1.11,0.25 4.13,0.95 4.91,1 0.78,0.05 2.87,0.33 3.89,0.33 1.02,0 3.7,-0.13 4.72,-0.26 A 22.7,22.7 0 0 0 58,70.62 24.23,24.23 0 0 0 61.45,69 a 13.57,13.57 0 0 0 1.94,-1.8 0.66,0.66 0 0 1 0.1,0.51 c -0.08,0.25 -0.44,1.36 -0.44,1.51 0,0.15 0,0.89 0,1.09 v 1.07 c 0,0.31 0.1,0.93 0.12,1.14 0.02,0.21 0.09,0.87 0.09,1.32 a 5.33,5.33 0 0 1 -0.35,1.48 5.16,5.16 0 0 1 -0.47,1.1 7.79,7.79 0 0 1 -2.77,1.94 22.54,22.54 0 0 1 -4.48,1.64 28.32,28.32 0 0 1 -4.69,0.65 c -0.83,0 -2.77,-0.1 -3.77,-0.18 -1,-0.08 -4.48,-0.62 -5.58,-0.87 -1.1,-0.25 -4,-0.89 -5.14,-1.18 L 32.5,77.51 c -0.64,-0.17 -2.75,-0.66 -4,-0.83 a 8.57,8.57 0 0 0 -2.31,-0.16 3.66,3.66 0 0 0 -1.51,0.33 2,2 0 0 0 -0.7,0.44 1.33,1.33 0 0 1 -0.25,0.22 c 0,0 -0.23,-1.61 -0.23,-2.06 0,-0.45 0.1,-1.66 0.1,-2 a 16.28,16.28 0 0 0 -0.21,-2.1 C 23.24,71 23,70 23,70 Z"
         id="path414"
         style="fill:url(#linear-gradient)" />
      <path
         class="cls-1"
         d="m 50.1,72.55 h -0.62 a 31.73,31.73 0 0 1 -6.79,-1 l -1.92,-0.48 c -1.95,-0.49 -4.61,-1.16 -5.62,-1.4 a 45.46,45.46 0 0 0 -5.79,-1 17.34,17.34 0 0 0 -4.49,0.54 7.15,7.15 0 0 0 -2.11,1.1 l -0.17,-0.19 a 7.26,7.26 0 0 1 2.19,-1.15 18.7,18.7 0 0 1 4.58,-0.56 45.74,45.74 0 0 1 5.85,1 c 1,0.24 3.68,0.91 5.62,1.4 l 1.92,0.48 a 31.4,31.4 0 0 0 6.74,1 34.42,34.42 0 0 0 6.73,-0.59 19.15,19.15 0 0 0 4.47,-1.7 l 0.47,-0.22 a 10.59,10.59 0 0 0 2.48,-2.06 l 0.19,0.17 a 10.59,10.59 0 0 1 -2.56,2.12 l -0.47,0.22 a 19.41,19.41 0 0 1 -4.53,1.66 36,36 0 0 1 -6.17,0.66 z"
         id="path416" />
      <path
         class="cls-1"
         d="M 49.48,80 A 67.94,67.94 0 0 1 41.7,79.08 l -0.37,-0.06 c -0.85,-0.13 -1.88,-0.38 -2.87,-0.63 -0.66,-0.16 -1.28,-0.31 -1.8,-0.42 -0.9,-0.18 -3,-0.76 -4.61,-1.19 l -1.69,-0.45 a 19.78,19.78 0 0 0 -3.5,-0.56 4.64,4.64 0 0 0 -2,0.25 2.7,2.7 0 0 0 -1.41,0.81 l -0.21,-0.15 a 2.92,2.92 0 0 1 1.54,-0.91 5,5 0 0 1 2,-0.26 20.22,20.22 0 0 1 3.55,0.57 l 1.7,0.46 c 1.56,0.42 3.7,1 4.59,1.18 0.53,0.11 1.15,0.26 1.82,0.42 1,0.24 2,0.49 2.85,0.62 l 0.37,0.06 a 67.82,67.82 0 0 0 7.74,0.92 h 0.12 a 22.52,22.52 0 0 0 8.26,-1.49 15.17,15.17 0 0 0 5.2,-3.11 l 0.19,0.18 A 15.13,15.13 0 0 1 58,78.54 22.79,22.79 0 0 1 49.61,80 Z"
         id="path418" />
      <path
         class="cls-3"
         d="m 57,66.94 c 0,0 -0.72,-1.33 -1.13,-2.26 a 8.09,8.09 0 0 1 -0.6,-3.24 7.48,7.48 0 0 1 0.86,-3.6 8,8 0 0 1 2.71,-2.71 9.09,9.09 0 0 1 3.54,-0.86 7.09,7.09 0 0 1 1.4,0 5.32,5.32 0 0 0 -2.33,1.42 4.47,4.47 0 0 0 -1.07,2.55 c 0,0 1.2,0.84 1.67,1.2 a 5.29,5.29 0 0 1 1.26,1.58 c 0.34,0.64 0.76,1.54 0.76,1.54 A 6.41,6.41 0 0 0 62.25,61.65 5.17,5.17 0 0 0 60.09,61.84 4.22,4.22 0 0 0 57.9,63.37 5,5 0 0 0 57.23,65 13.93,13.93 0 0 0 57,66.94 Z"
         id="path420"
         style="fill:url(#linear-gradient-2)" />
      <path
         class="cls-4"
         d="m 58,64.63 c 0,0 2.05,0.22 2.66,0.33 0.61,0.11 1.64,0.22 1.83,0.47 a 1.05,1.05 0 0 1 0.27,0.86 4.32,4.32 0 0 1 -0.91,1.25 13.67,13.67 0 0 1 -1.94,1.28 18.37,18.37 0 0 1 -2,0.66 c 0,0 -0.14,-2.16 -0.14,-2.63 0,-0.47 0.23,-2.22 0.23,-2.22 z"
         id="path422"
         style="fill:url(#linear-gradient-3)" />
      <path
         class="cls-1"
         d="m 55.33,63.67 h -0.26 c 0,-0.15 0.23,-3.71 1.09,-5.19 a 6.85,6.85 0 0 1 2.79,-3 7.78,7.78 0 0 1 3.37,-1 8.28,8.28 0 0 1 1.58,0 v 0.26 a 8,8 0 0 0 -1.53,0 7.52,7.52 0 0 0 -3.25,1 6.55,6.55 0 0 0 -2.7,2.87 c -0.86,1.39 -1.09,5.03 -1.09,5.06 z"
         id="path424" />
      <path
         class="cls-1"
         d="m 56.57,66.92 a 13.6,13.6 0 0 1 0.13,-2.17 4.68,4.68 0 0 1 0.87,-2.12 4.22,4.22 0 0 1 1.92,-1.4 6,6 0 0 1 3,-0.26 c 1.38,0.16 1.92,1.84 1.94,1.91 l -0.25,0.08 c 0,0 -0.51,-1.59 -1.72,-1.73 a 6,6 0 0 0 -2.85,0.25 4,4 0 0 0 -1.81,1.31 4.36,4.36 0 0 0 -0.83,2 13.42,13.42 0 0 0 -0.12,2.13 z"
         id="path426" />
      <path
         class="cls-5"
         d="m 4.48,54.15 a 16.31,16.31 0 0 0 2,-0.31 C 6.74,53.71 8,53.3 8,53.3 c 0,0 1.37,0.79 1.81,1 l 1,0.5 1.19,1.12 0.33,0.77 c 0,0 -1.46,3.9 -1.41,5.78 a 11.08,11.08 0 0 0 0.87,4.68 8,8 0 0 0 1.9,2.47 15.26,15.26 0 0 0 3.29,2.06 10.71,10.71 0 0 0 3.06,0.82 l 2.62,0.08 0.2,5.37 a 1.81,1.81 0 0 0 0.82,0.87 1.58,1.58 0 0 0 1.13,0 c 0.18,-0.08 0.54,-0.23 0.72,-0.13 A 2.85,2.85 0 0 1 26,79 a 0.79,0.79 0 0 1 0.26,0.51 c 0,0.16 -0.23,0.34 -0.57,0.51 a 11.26,11.26 0 0 1 -2.39,0.64 25.13,25.13 0 0 1 -5.35,0 A 18.65,18.65 0 0 1 12.3,78.93 19.59,19.59 0 0 1 6.23,74.49 14.12,14.12 0 0 1 3.5,69.65 17.28,17.28 0 0 1 3,64.77 c 0,-1 0.49,-5.22 0.59,-5.94 0.1,-0.72 0.89,-4.68 0.89,-4.68 z"
         id="path428"
         style="fill:url(#linear-gradient-4)" />
      <path
         class="cls-1"
         d="m 20.75,80.29 a 22.58,22.58 0 0 1 -2.47,-0.11 20.45,20.45 0 0 1 -6.11,-2 20.66,20.66 0 0 1 -5,-3.79 A 15.2,15.2 0 0 1 4,69.07 14.89,14.89 0 0 1 3.73,64.79 c 0.07,-0.94 0.44,-5.16 0.78,-7 0.34,-1.84 0.74,-4.17 0.74,-4.17 h 0.26 c 0,0 -0.37,2.38 -0.71,4.23 -0.34,1.85 -0.71,6 -0.78,7 a 14.6,14.6 0 0 0 0.27,4.15 14.89,14.89 0 0 0 3,5.23 20.3,20.3 0 0 0 5,3.73 20.17,20.17 0 0 0 6,2 27.29,27.29 0 0 0 4.58,0 13.27,13.27 0 0 0 2.33,-0.57 1.88,1.88 0 0 0 0.85,-0.74 l 0.23,0.12 a 2.09,2.09 0 0 1 -1,0.85 13.4,13.4 0 0 1 -2.4,0.58 c -0.3,0.05 -1.17,0.09 -2.13,0.09 z"
         id="path430" />
      <path
         class="cls-1"
         d="M 21.48,73.26 A 9.34,9.34 0 0 1 20.38,73.2 16.08,16.08 0 0 1 16,72 a 11.72,11.72 0 0 1 -3.45,-2.42 9.64,9.64 0 0 1 -2,-3.66 13.43,13.43 0 0 1 -0.27,-3.85 17.61,17.61 0 0 1 0.85,-4 v -0.1 c 0.27,-0.82 0.94,-2.26 1,-2.32 l 0.23,0.11 c 0,0 -0.69,1.49 -1,2.29 v 0.1 a 17.48,17.48 0 0 0 -0.84,3.94 13.1,13.1 0 0 0 0.26,3.75 9.53,9.53 0 0 0 1.94,3.55 11.49,11.49 0 0 0 3.38,2.37 15.8,15.8 0 0 0 4.27,1.17 12.42,12.42 0 0 0 2.64,0 v 0.26 a 14.25,14.25 0 0 1 -1.53,0.07 z"
         id="path432" />
      <path
         class="cls-1"
         d="M 8,57.43 C 6.82,57.07 6.47,56.34 6.7,55.58 c 0.23,-0.76 0.92,-1.16 2.1,-0.8 1.18,0.36 1.53,1.09 1.31,1.84 C 9.89,57.37 9.16,57.78 8,57.43 Z m 0.94,-3.12 a 1.8711293,1.8711293 0 1 0 -1.09,3.58 1.8711293,1.8711293 0 1 0 1.09,-3.58 z"
         id="path434" />
      <path
         class="cls-1"
         d="M 8.57,58.14 A 2.68,2.68 0 0 1 7.8,58 2.15,2.15 0 0 1 6.46,57 2.14,2.14 0 0 1 7.31,54.26 2.19,2.19 0 0 1 9,54.19 v 0 a 2.17,2.17 0 0 1 1.34,1 2.13,2.13 0 0 1 -0.85,2.74 1.9,1.9 0 0 1 -0.92,0.21 z m -2.05,-1.8 a 1.51,1.51 0 0 0 0.17,0.55 1.9,1.9 0 0 0 1.18,0.88 1.92,1.92 0 0 0 1.46,-0.06 1.49,1.49 0 0 0 0.47,-0.38 1.32,1.32 0 0 1 -0.36,0.23 2.16,2.16 0 0 1 -1.5,0 v 0 A 1.89,1.89 0 0 1 6.52,56.34 Z m 1.5,1 a 1.92,1.92 0 0 0 1.32,0 1.22,1.22 0 0 0 0.51,-1.69 1.93,1.93 0 0 0 -1.11,-0.72 1.85,1.85 0 0 0 -1.41,0 1.11,1.11 0 0 0 -0.54,0.69 C 6.56,56.38 7,57 8,57.3 Z m 0,-2.78 a 2.9,2.9 0 0 1 0.83,0.13 2.17,2.17 0 0 1 1.25,0.83 1.33,1.33 0 0 1 0.17,0.4 1.52,1.52 0 0 0 -0.17,-0.57 1.92,1.92 0 0 0 -1.19,-0.88 v 0 A 1.91,1.91 0 0 0 7.45,54.54 1.5,1.5 0 0 0 6.99,54.91 1.35,1.35 0 0 1 7.24,54.74 1.62,1.62 0 0 1 8,54.52 Z"
         id="path436" />
      <path
         class="cls-1"
         d="M 9.52,59.32 C 8.41,59.59 7.38,59.9 6.27,60.22 L 9,62.2 v 0.06 C 7.58,62.17 6.37,62.07 5.09,62.03 a 1.25,1.25 0 0 0 0.07,-0.23 1.63,1.63 0 0 0 0,-0.24 c 1,0.1 1.91,0.18 2.87,0.23 v 0 C 7.19,61.19 6.36,60.59 5.44,60.04 v 0 c 1,-0.23 2,-0.53 3,-0.8 v 0 C 7.55,59 6.27,58.64 5.65,58.53 a 0.5,0.5 0 0 0 0.06,-0.17 0.71,0.71 0 0 0 0,-0.18 c 1.18,0.37 2.63,0.83 3.77,1.12 z"
         id="path438" />
      <path
         class="cls-1"
         d="M 9.13,62.4 H 9 L 7.79,62.32 C 6.86,62.26 5.99,62.2 5.09,62.17 H 4.92 L 5,62 a 1.1,1.1 0 0 0 0,-0.23 1.4,1.4 0 0 0 0,-0.22 v -0.14 h 0.2 c 1,0.1 1.73,0.16 2.43,0.2 -0.71,-0.51 -1.44,-1 -2.23,-1.5 H 5.33 v -0.22 h 0.09 c 0.64,-0.15 1.31,-0.33 2,-0.51 l 0.6,-0.17 H 8 C 7.17,58.98 6.22,58.72 5.72,58.64 H 5.55 l 0.08,-0.16 a 0.38,0.38 0 0 0 0,-0.13 0.57,0.57 0 0 0 0,-0.15 V 58.01 L 5.8,58 c 1.24,0.39 2.65,0.83 3.76,1.12 h 0.11 v 0.29 H 9.59 c -1,0.25 -2,0.52 -3,0.83 l 1,0.74 1.51,1.08 H 9.17 Z M 5.29,61.9 c 0.84,0 1.67,0.09 2.54,0.15 L 8.69,62.11 8.2,61.76 v 0.15 H 8 c -0.81,0 -1.63,-0.11 -2.73,-0.21 0,0 0,0.08 0,0.11 z M 5.75,60 5.97,60.14 6.23,60.06 c 1,-0.31 2,-0.58 2.95,-0.83 L 8.62,59.07 v 0.15 h -0.1 l -1,0.29 C 6.91,59.74 6.32,59.9 5.75,60 Z m 0.12,-1.68 c 0.28,0.06 0.65,0.15 1,0.25 l -1,-0.32 z"
         id="path440" />
      <path
         class="cls-1"
         d="M 5.25,66.25 C 6.17,65.41 7.16,64.41 8.09,63.47 L 7,63.55 c -0.48,0 -1.64,0.16 -1.86,0.21 a 0.55,0.55 0 0 0 0,-0.18 0.69,0.69 0 0 0 0,-0.18 c 0.26,0 1.68,0 2.41,-0.11 0.73,-0.11 1.23,-0.11 1.48,-0.14 v 0.08 c -0.9,0.9 -2.14,2.11 -2.77,2.78 1,-0.09 2.07,-0.18 2.92,-0.3 a 0.53,0.53 0 0 0 0,0.17 0.45,0.45 0 0 0 0,0.15 c -0.33,0 -1.43,0 -1.86,0.09 l -2,0.19 z"
         id="path442" />
      <path
         class="cls-1"
         d="M 5.15,66.46 V 66.2 H 5.2 C 6.04,65.43 6.93,64.54 7.79,63.66 L 7,63.68 c -0.52,0 -1.64,0.17 -1.85,0.21 H 4.96 V 63.7 a 0.52,0.52 0 0 0 0,-0.13 0.61,0.61 0 0 0 0,-0.16 L 4.9,63.23 h 0.19 c 0.24,0 1.64,0 2.39,-0.11 C 8.23,63.01 8.7,63.06 9,63 h 0.14 v 0.28 l -0.5,0.5 C 7.92,64.5 7.11,65.29 6.57,65.86 v 0 C 7.45,65.78 8.36,65.7 9.1,65.6 h 0.19 v 0.19 a 0.4,0.4 0 0 0 0,0.13 0.35,0.35 0 0 0 0,0.12 l 0.08,0.18 h -0.2 c -0.31,0 -1.4,0 -1.85,0.08 l -2,0.19 z M 8.39,63.34 8,63.69 C 7.17,64.53 6.32,65.4 5.49,66.16 h 0.39 l 0.19,-0.2 C 6.6,65.4 7.55,64.46 8.38,63.63 L 8.66,63.35 Z M 9,65.86 8.4,65.93 H 9 V 65.88 Z M 5.24,63.54 v 0.07 l 0.83,-0.1 z"
         id="path444" />
      <path
         class="cls-1"
         d="m 8,67.12 c 0.46,-0.14 0.91,-0.3 1.36,-0.47 a 1.27,1.27 0 0 0 0,0.25 2.2,2.2 0 0 0 0.1,0.22 C 9,67.24 8.53,67.37 8.08,67.51 L 7.17,67.79 C 6.71,67.93 6.26,68.1 5.81,68.25 a 1.05,1.05 0 0 0 0,-0.24 1,1 0 0 0 -0.1,-0.22 C 6.17,67.67 6.64,67.54 7.09,67.4 Z"
         id="path446" />
      <path
         class="cls-1"
         d="m 5.77,68.43 v -0.17 a 1,1 0 0 0 0,-0.21 0.89,0.89 0 0 0 -0.09,-0.2 L 5.6,67.7 h 0.16 c 0.42,-0.11 0.9,-0.24 1.38,-0.38 L 8,67 c 0.41,-0.13 0.85,-0.28 1.35,-0.46 l 0.16,-0.06 v 0.17 a 1.07,1.07 0 0 0 0,0.22 2.05,2.05 0 0 0 0.09,0.21 l 0.07,0.14 -0.23,0.06 c -0.43,0.12 -0.87,0.23 -1.3,0.37 l -0.91,0.28 c -0.4,0.12 -0.8,0.26 -1.19,0.4 z M 5.93,67.87 6,68 v 0.1 0 c 0.39,-0.14 0.8,-0.28 1.2,-0.41 l 0.91,-0.28 c 0.41,-0.13 0.83,-0.24 1.24,-0.35 v -0.09 -0.11 l -1.22,0.41 v 0 l -0.92,0.28 c -0.47,0.11 -0.9,0.22 -1.28,0.32 z"
         id="path448" />
      <path
         class="cls-1"
         d="M 8.47,69 A 0.31,0.31 0 0 1 8.3,69.39 0.31,0.31 0 0 1 7.89,69.27 0.32,0.32 0 0 1 8.47,69 Z"
         id="path450" />
      <path
         class="cls-1"
         d="m 8.16,69.59 a 0.43,0.43 0 0 1 -0.38,-0.23 0.39,0.39 0 0 1 0,-0.33 0.48,0.48 0 0 1 0.22,-0.24 0.43,0.43 0 0 1 0.58,0.19 v 0 a 0.44,0.44 0 0 1 -0.23,0.56 0.46,0.46 0 0 1 -0.19,0.05 z m 0,-0.58 H 8.07 a 0.22,0.22 0 0 0 -0.11,0.11 0.14,0.14 0 0 0 0,0.11 A 0.19,0.19 0 0 0 8.3,69.07 0.16,0.16 0 0 0 8.2,69 Z"
         id="path452" />
      <path
         class="cls-1"
         d="m 9.57,74.28 c 0.22,-1.23 0.4,-2.62 0.57,-3.93 L 9.3,71.1 C 8.95,71.43 8.09,72.23 7.94,72.39 A 0.56,0.56 0 0 0 7.84,72.24 0.61,0.61 0 0 0 7.7,72.12 C 7.92,72 9,71.07 9.56,70.57 c 0.56,-0.5 0.92,-0.83 1.09,-1 l 0.05,0.06 c -0.18,1.26 -0.43,3 -0.52,3.89 0.73,-0.67 1.53,-1.4 2.15,-2 a 0.64,0.64 0 0 0 0.09,0.14 0.38,0.38 0 0 0 0.13,0.1 c -0.27,0.2 -1.12,0.9 -1.44,1.2 l -1.5,1.38 z"
         id="path454" />
      <path
         class="cls-1"
         d="M 9.61,74.51 9.43,74.32 V 74.25 C 9.64,73.13 9.8,71.88 9.96,70.66 L 9.38,71.18 C 9,71.54 8.18,72.32 8,72.47 L 7.86,72.62 7.78,72.43 A 0.45,0.45 0 0 0 7.7,72.32 L 7.58,72.23 7.41,72.12 7.63,72 c 0.22,-0.14 1.32,-1.06 1.84,-1.54 0.52,-0.48 0.91,-0.82 1.08,-1 l 0.1,-0.11 0.18,0.22 -0.11,0.77 c -0.14,1 -0.29,2.07 -0.38,2.82 0.67,-0.61 1.35,-1.23 1.89,-1.76 l 0.13,-0.12 0.08,0.16 0.07,0.11 a 0.25,0.25 0 0 0 0.09,0.06 l 0.21,0.09 -0.18,0.13 c -0.27,0.2 -1.11,0.9 -1.43,1.19 l -1.5,1.41 z m 0.7,-4.44 -0.06,0.48 c -0.15,1.17 -0.31,2.38 -0.5,3.48 l 0.28,-0.26 v -0.28 c 0.08,-0.75 0.26,-2 0.42,-3.17 l 0.07,-0.47 z m -2.39,2.06 v 0 0 l 0.62,-0.59 z m 4.39,-0.4 -0.43,0.42 0.47,-0.38 v 0 z"
         id="path456" />
      <path
         class="cls-1"
         d="m 15.27,73.37 a 0.68,0.68 0 0 0 0.16,0.13 0.49,0.49 0 0 0 0.14,0.05 c -0.29,0.43 -0.81,1.25 -1.22,2 a 1.4,1.4 0 0 1 -2,0.68 c -0.86,-0.49 -1,-1.15 -0.45,-2.09 0.17,-0.29 0.32,-0.51 0.46,-0.75 0.3,-0.53 0.54,-1 0.69,-1.26 a 1.79,1.79 0 0 0 0.21,0.16 l 0.2,0.08 c -0.19,0.27 -0.59,0.91 -1,1.62 -0.41,0.71 -0.86,1.51 0.1,2.06 0.96,0.55 1.51,-0.44 1.86,-1 0.5,-1.05 0.77,-1.48 0.85,-1.68 z"
         id="path458" />
      <path
         class="cls-1"
         d="m 13.06,76.52 a 1.6,1.6 0 0 1 -0.8,-0.23 1.53,1.53 0 0 1 -0.8,-0.9 1.8,1.8 0 0 1 0.3,-1.37 L 12,73.6 12.2,73.27 c 0.27,-0.48 0.49,-0.9 0.64,-1.17 l 0.12,-0.23 0.12,0.11 0.19,0.14 0.17,0.07 h 0.18 l -0.11,0.15 c -0.17,0.24 -0.56,0.85 -1,1.61 -0.44,0.76 -0.73,1.43 0.06,1.89 0.79,0.46 1.23,-0.22 1.68,-1 0.45,-0.78 0.79,-1.38 0.87,-1.57 l 0.08,-0.18 0.14,0.14 a 0.56,0.56 0 0 0 0.13,0.1 h 0.11 0.18 l -0.1,0.16 c -0.29,0.42 -0.81,1.25 -1.22,1.94 a 1.67,1.67 0 0 1 -1.38,1.09 z m 0,-4.25 c -0.15,0.28 -0.36,0.68 -0.62,1.13 l -0.21,0.34 -0.25,0.41 a 1.57,1.57 0 0 0 -0.28,1.17 1.29,1.29 0 0 0 0.68,0.74 h 0.06 c -1,-0.62 -0.49,-1.58 -0.13,-2.21 0.36,-0.63 0.72,-1.2 0.92,-1.5 h -0.06 z m 2.26,1.3 c -0.1,0.2 -0.27,0.5 -0.55,1 l 0.61,-1 v 0 z"
         id="path460" />
      <path
         class="cls-1"
         d="m 17.8,78.36 c -0.44,-1.17 -1,-2.46 -1.53,-3.67 -0.06,0.2 -0.17,0.51 -0.34,1.07 -0.17,0.56 -0.45,1.59 -0.49,1.81 A 0.63,0.63 0 0 0 15.28,77.49 H 15.1 c 0.11,-0.24 0.58,-1.58 0.79,-2.28 0.21,-0.7 0.36,-1.19 0.41,-1.43 h 0.08 c 0.5,1.17 1.17,2.77 1.55,3.61 0.29,-1 0.6,-2 0.81,-2.82 l 0.16,0.07 a 0.5,0.5 0 0 0 0.16,0 c -0.12,0.3 -0.49,1.35 -0.61,1.76 -0.12,0.41 -0.51,1.72 -0.58,2 z"
         id="path462" />
      <path
         class="cls-1"
         d="m 18,78.55 -0.25,-0.08 v -0.06 c -0.4,-1.07 -0.9,-2.22 -1.39,-3.35 l -0.23,0.75 c -0.15,0.5 -0.45,1.59 -0.49,1.8 v 0.2 L 15.47,77.69 15.35,77.62 H 15.2 15.01 l 0.08,-0.18 c 0.1,-0.22 0.57,-1.54 0.79,-2.27 0.22,-0.73 0.36,-1.18 0.41,-1.42 v -0.14 l 0.27,0.08 0.22,0.51 c 0.4,0.94 0.88,2.07 1.22,2.83 0.25,-0.84 0.52,-1.74 0.7,-2.48 v -0.17 l 0.15,0.09 0.13,0.06 h 0.32 l -0.07,0.18 c -0.12,0.3 -0.49,1.35 -0.61,1.75 -0.12,0.4 -0.51,1.72 -0.58,2 z m -1.69,-4.18 0.14,0.33 c 0.49,1.12 1,2.28 1.42,3.37 L 17.98,77.7 17.86,77.45 C 17.52,76.72 16.95,75.38 16.5,74.3 l -0.1,-0.23 z m -1,3 h 0.07 c 0,-0.2 0.14,-0.52 0.22,-0.83 -0.15,0.34 -0.25,0.64 -0.33,0.82 z m 3.55,-2.61 c 0,0.2 -0.11,0.4 -0.16,0.61 l 0.21,-0.59 h -0.05 z"
         id="path464" />
      <path
         class="cls-1"
         d="m 22.13,78.47 a 1.74,1.74 0 0 1 -1,0.27 2.0033035,2.0033035 0 0 1 0.23,-4 2.38,2.38 0 0 1 1.07,0.31 1.65,1.65 0 0 0 -0.12,0.43 v 0 A 1.29,1.29 0 0 0 21.3,75 c -0.78,0 -1.41,0.49 -1.46,1.72 -0.05,1.23 0.52,1.81 1.3,1.85 a 1.6,1.6 0 0 0 1,-0.41 v 0 z"
         id="path466" />
      <path
         class="cls-1"
         d="m 21.17,78.87 h -0.09 a 1.89,1.89 0 0 1 -1.38,-0.63 2.2,2.2 0 0 1 -0.48,-1.58 1.93,1.93 0 0 1 2,-2 h 0.12 a 2.52,2.52 0 0 1 1.13,0.33 l 0.11,0.07 -0.06,0.11 a 1.48,1.48 0 0 0 -0.1,0.38 v 0.08 l -0.2,0.06 -0.05,-0.07 a 1.17,1.17 0 0 0 -0.83,-0.48 h -0.07 c -0.75,0 -1.21,0.58 -1.26,1.59 A 1.91,1.91 0 0 0 20.28,78 1.12,1.12 0 0 0 21.15,78.42 1.4,1.4 0 0 0 22.1,78 l 0.1,-0.08 0.11,0.15 v 0.08 l -0.07,0.37 v 0 a 1.85,1.85 0 0 1 -1.07,0.35 z M 20.55,75 a 1.72,1.72 0 0 0 -1.07,1.67 2,2 0 0 0 0.42,1.4 1.49,1.49 0 0 0 0.55,0.4 1.3,1.3 0 0 1 -0.37,-0.33 2.17,2.17 0 0 1 -0.36,-1.46 1.88,1.88 0 0 1 0.83,-1.68 z m 1.24,0 a 1.49,1.49 0 0 1 0.39,0.29 V 75.17 A 2.29,2.29 0 0 0 21.79,75 Z"
         id="path468" />
      <path
         class="cls-1"
         d="m 25.89,72.48 -0.55,0.07 -0.54,0.05 0.38,-1.46 z m -0.73,-2.09 c -0.35,1.36 -0.72,2.71 -1.09,4.06 a 0.65,0.65 0 0 1 0.18,0 h 0.18 c 0,-0.36 0.17,-0.94 0.31,-1.53 l 0.6,-0.08 0.65,-0.07 c 0.24,0.47 0.55,1.05 0.69,1.42 a 1.2,1.2 0 0 1 0.26,-0.06 1,1 0 0 1 0.27,0 c -0.34,-0.56 -1.32,-2.48 -2,-3.7 z"
         id="path470" />
      <path
         class="cls-1"
         d="m 23.87,74.68 0.07,-0.26 c 0.37,-1.32 0.72,-2.64 1.09,-4.06 v -0.09 h 0.27 l 0.42,0.81 c 0.58,1.12 1.3,2.51 1.57,3 l 0.13,0.22 h -0.25 a 0.77,0.77 0 0 0 -0.23,0 1.1,1.1 0 0 0 -0.24,0.05 h -0.12 v -0.11 c -0.1,-0.27 -0.3,-0.67 -0.5,-1 l -0.14,-0.28 h -0.1 -0.45 l -0.52,0.07 c -0.13,0.56 -0.24,1.1 -0.29,1.44 V 74.6 H 24.3 24.15 Z m 0.59,-1.17 -0.21,0.77 h 0.07 c 0.03,-0.22 0.08,-0.48 0.14,-0.78 z m 1.61,-0.91 v 0.07 l 0.18,0.36 c 0.17,0.34 0.35,0.69 0.47,1 H 26.89 27 c -0.32,-0.58 -0.92,-1.74 -1.46,-2.78 l -0.29,-0.55 -0.06,0.24 0.92,1.73 z m -0.85,-1.09 -0.25,1 v 0 h 0.31 0.37 z"
         id="path472" />
      <path
         class="cls-1"
         d="m 28.19,71.85 c 0,-0.4 0.1,-0.8 0.15,-1.19 a 3.89,3.89 0 0 1 0.48,0 0.69,0.69 0 0 1 0.7,0.8 0.85,0.85 0 0 1 -1,0.75 1.38,1.38 0 0 1 -0.33,-0.06 z m -0.5,0.91 c 0,0.47 -0.11,1 -0.18,1.43 h 0.25 L 28,74.24 c 0,-0.48 0.06,-1 0.1,-1.43 V 72.4 h 0.19 a 16,16 0 0 1 1.11,2 h 0.29 l 0.3,0.06 c -0.25,-0.39 -1,-1.66 -1.17,-2 a 1.12,1.12 0 0 0 1.12,-1 c 0.06,-0.66 -0.39,-0.92 -1,-1 h -0.57 a 5.19,5.19 0 0 1 -0.56,-0.08 c 0,0.48 -0.06,1 -0.1,1.43 z"
         id="path474" />
      <path
         class="cls-1"
         d="M 30.31,74.65 30,74.56 29.72,74.5 h -0.35 v -0.08 a 16.53,16.53 0 0 0 -1.06,-1.89 v 0.28 c 0,0.42 -0.07,0.88 -0.1,1.43 v 0.16 h -0.16 -0.22 -0.22 -0.17 v -0.17 c 0.06,-0.44 0.13,-0.93 0.18,-1.42 l 0.09,-1 c 0,-0.45 0.07,-0.92 0.11,-1.43 v -0.15 h 0.15 a 5,5 0 0 0 0.55,0.08 h 0.28 0.29 c 0.75,0.07 1.13,0.47 1.07,1.12 a 1.2,1.2 0 0 1 -1,1 l 0.16,0.29 c 0.29,0.51 0.73,1.28 0.91,1.56 z m -0.74,-0.41 h 0.18 c -0.21,-0.36 -0.52,-0.9 -0.76,-1.31 l -0.26,-0.45 -0.07,-0.12 h -0.23 a 16.08,16.08 0 0 1 1.08,1.89 z M 27.66,74 h 0.11 0.11 c 0,-0.48 0.06,-0.9 0.09,-1.28 l 0.05,-0.54 v 0 -0.42 c 0,-0.42 0.1,-0.85 0.15,-1.2 v -0.08 h -0.22 c 0,0.46 -0.06,0.88 -0.1,1.29 l -0.09,1 c 0.02,0.43 -0.04,0.87 -0.1,1.23 z m 1.57,-3.4 a 0.8,0.8 0 0 1 0.26,0.2 0.83,0.83 0 0 1 0.16,0.63 0.91,0.91 0 0 1 -0.32,0.65 l -0.09,0.06 a 0.88,0.88 0 0 0 0.59,-0.75 0.69,0.69 0 0 0 -0.6,-0.74 z m -0.93,1.42 h 0.2 a 1,1 0 0 0 0.67,-0.16 0.67,0.67 0 0 0 0.23,-0.47 0.58,0.58 0 0 0 -0.11,-0.44 0.71,0.71 0 0 0 -0.48,-0.21 h -0.36 c 0,0.32 -0.1,0.71 -0.14,1.08 v 0 z"
         id="path476" />
      <path
         class="cls-1"
         d="m 31.53,72.3 c 0.07,-0.37 0.14,-0.75 0.2,-1.13 A 8.78,8.78 0 0 0 30.66,71 a 0.8,0.8 0 0 0 0.06,-0.17 0.51,0.51 0 0 0 0,-0.17 c 0.43,0.1 0.84,0.19 1.27,0.27 0.43,0.08 0.85,0.15 1.27,0.21 a 0.74,0.74 0 0 0 -0.06,0.17 0.6,0.6 0 0 0 0,0.18 8.84,8.84 0 0 0 -1,-0.26 c -0.08,0.37 -0.16,0.75 -0.23,1.13 l -0.18,0.94 c -0.09,0.47 -0.16,0.95 -0.23,1.42 l -0.24,-0.07 h -0.24 c 0.11,-0.46 0.22,-0.93 0.31,-1.41 z"
         id="path478" />
      <path
         class="cls-1"
         d="m 31.63,74.91 -0.15,-0.06 -0.22,-0.07 h -0.21 -0.16 v -0.16 c 0.1,-0.41 0.21,-0.9 0.31,-1.4 l 0.17,-0.94 c 0.06,-0.33 0.12,-0.66 0.18,-1 v 0 A 8.42,8.42 0 0 0 30.63,71.17 H 30.44 L 30.51,71 a 0.68,0.68 0 0 0 0,-0.15 0.43,0.43 0 0 0 0,-0.14 v -0.18 h 0.17 l 1.26,0.26 c 0.38,0.07 0.79,0.14 1.27,0.21 h 0.17 l -0.07,0.15 a 0.66,0.66 0 0 0 -0.05,0.14 0.53,0.53 0 0 0 0,0.14 v 0.2 l -0.19,-0.06 a 8.3,8.3 0 0 0 -0.9,-0.23 c -0.07,0.33 -0.14,0.67 -0.2,1 l -0.17,0.94 c -0.08,0.41 -0.14,0.84 -0.21,1.25 z m -0.42,-0.39 h 0.1 0.11 v 0 c 0.06,-0.41 0.13,-0.84 0.21,-1.26 l 0.17,-0.94 c 0.07,-0.38 0.15,-0.76 0.23,-1.13 v -0.12 h 0.12 c 0.3,0.06 0.64,0.14 0.89,0.21 V 71.21 L 32,71.08 30.88,70.85 v 0.06 c 0.27,0 0.61,0.07 0.92,0.13 h 0.13 v 0.26 c -0.06,0.33 -0.12,0.67 -0.18,1 l -0.17,0.94 c -0.18,0.47 -0.28,0.9 -0.37,1.28 z"
         id="path480" />
      <path
         class="cls-1"
         d="m 33.62,72.73 c 0.11,-0.46 0.2,-0.94 0.29,-1.4 0.29,0.09 0.58,0.16 0.87,0.23 0.29,0.07 0.58,0.12 0.88,0.17 a 1,1 0 0 0 -0.06,0.16 1,1 0 0 0 0,0.17 c -0.4,-0.12 -0.63,-0.22 -1.26,-0.37 -0.06,0.23 -0.12,0.42 -0.18,0.68 L 34,73.09 c 0.58,0.13 0.9,0.18 1.19,0.22 a 0.87,0.87 0 0 0 -0.07,0.33 c -0.33,-0.12 -0.94,-0.27 -1.17,-0.33 l -0.19,0.79 c -0.1,0.41 -0.15,0.67 -0.18,0.81 a 7.68,7.68 0 0 0 1.33,0.23 l -0.05,0.17 a 0.88,0.88 0 0 0 0,0.16 c -0.29,-0.08 -0.57,-0.16 -0.87,-0.23 l -0.9,-0.18 c 0.13,-0.47 0.27,-0.93 0.37,-1.4 z"
         id="path482" />
      <path
         class="cls-1"
         d="M 34.94,75.63 H 34.77 C 34.48,75.55 34.2,75.47 33.91,75.4 L 33,75.18 h -0.14 v -0.14 c 0.13,-0.45 0.26,-0.92 0.37,-1.39 l 0.21,-0.93 c 0.11,-0.46 0.2,-0.93 0.29,-1.39 v -0.14 h 0.14 c 0.31,0.09 0.59,0.17 0.86,0.23 0.27,0.06 0.55,0.12 0.87,0.17 h 0.17 l -0.07,0.15 a 0.78,0.78 0 0 0 0,0.14 1,1 0 0 0 0,0.14 v 0.16 h -0.16 l -0.3,-0.1 C 35.01,72 34.79,71.93 34.41,71.84 v 0.17 c 0,0.12 -0.07,0.24 -0.1,0.39 v 0.08 l -0.11,0.51 c 0.51,0.11 0.81,0.15 1.06,0.19 h 0.16 l -0.06,0.15 a 1.16,1.16 0 0 0 0,0.15 1.06,1.06 0 0 0 0,0.14 v 0.18 l -0.17,-0.06 c -0.27,-0.1 -0.75,-0.22 -1,-0.29 l -0.16,0.66 c -0.07,0.3 -0.12,0.53 -0.15,0.68 a 6.31,6.31 0 0 0 1.18,0.2 h 0.18 l -0.06,0.17 v 0.16 a 0.7,0.7 0 0 0 0,0.12 z m -0.54,-0.42 0.3,0.08 v 0 0 z M 33.21,75 h 0.2 v -0.11 c 0,-0.15 0.09,-0.42 0.18,-0.82 l 0.19,-0.79 0.05,-0.22 0.14,-0.63 v -0.08 c 0,-0.15 0.07,-0.28 0.1,-0.4 l 0.08,-0.29 v -0.11 l -0.2,-0.06 c -0.08,0.42 -0.16,0.85 -0.26,1.27 l -0.21,0.93 c -0.04,0.42 -0.16,0.85 -0.27,1.31 z m 1.37,-1.61 0.41,0.12 v 0 0 z m 0.47,-1.6 0.28,0.09 h 0.15 v -0.05 z"
         id="path484" />
      <path
         class="cls-1"
         d="m 36.49,73.72 a 0.3,0.3 0 0 1 0.2,0.38 0.3,0.3 0 0 1 -0.35,0.24 0.32,0.32 0 0 1 0.15,-0.61 z"
         id="path486" />
      <path
         class="cls-1"
         d="m 36.4,74.47 h -0.09 a 0.41,0.41 0 0 1 -0.26,-0.21 0.46,0.46 0 0 1 0,-0.33 0.45,0.45 0 0 1 0.51,-0.33 0.4,0.4 0 0 1 0.25,0.19 0.47,0.47 0 0 1 -0.16,0.63 0.41,0.41 0 0 1 -0.25,0.05 z m 0,-0.63 a 0.2,0.2 0 0 0 -0.17,0.15 0.18,0.18 0 0 0 0.11,0.22 0.16,0.16 0 0 0 0.11,0 0.21,0.21 0 0 0 0.07,-0.28 0.13,0.13 0 0 0 -0.08,-0.07 v 0 z"
         id="path488" />
      <path
         class="cls-1"
         d="m 39,72.5 c 0.18,1.12 0.39,2.19 0.63,3.32 0.3,-0.37 1.47,-1.72 2.2,-2.6 h 0.06 c -0.2,1.41 -0.41,2.61 -0.57,3.88 A 1.1,1.1 0 0 0 41.1,77.02 h -0.23 c 0.18,-1 0.34,-1.89 0.47,-2.84 v 0 c -0.67,0.78 -1.34,1.55 -2,2.42 v 0 c -0.15,-1 -0.36,-2 -0.54,-3.07 v 0 c -0.32,0.87 -0.79,2.11 -0.95,2.71 a 0.73,0.73 0 0 0 -0.16,-0.07 h -0.18 c 0.47,-1.14 1,-2.55 1.44,-3.66 z"
         id="path490" />
      <path
         class="cls-1"
         d="m 41.42,77.32 -0.16,-0.08 -0.2,-0.07 H 40.85 40.7 v -0.15 c 0.14,-0.75 0.28,-1.56 0.41,-2.41 -0.57,0.66 -1.15,1.34 -1.69,2.09 v 0.07 H 39.21 V 76.68 C 39.11,76.06 39,75.43 38.88,74.77 l -0.13,-0.7 c -0.3,0.81 -0.65,1.77 -0.78,2.27 v 0.16 l -0.15,-0.08 -0.13,-0.06 h -0.34 l 0.07,-0.18 c 0.65,-1.56 1.12,-2.76 1.44,-3.65 v -0.11 l 0.28,0.06 v 0.09 c 0.16,1 0.35,2 0.57,3.05 l 0.76,-0.9 1.26,-1.49 0.05,-0.06 0.25,0.06 v 0.12 c -0.08,0.54 -0.16,1.05 -0.23,1.55 -0.12,0.8 -0.24,1.55 -0.33,2.33 z M 41,76.89 h 0.11 0.08 c 0.09,-0.72 0.2,-1.43 0.31,-2.17 0.06,-0.39 0.12,-0.79 0.18,-1.2 l -0.4,0.47 h 0.17 v 0.15 c -0.12,1 -0.28,1.86 -0.45,2.75 z m -2.29,-3.54 0.15,0.07 v 0.07 c 0.07,0.38 0.14,0.77 0.21,1.15 0.1,0.55 0.21,1.12 0.29,1.67 l 0.15,-0.2 -0.05,-0.26 c -0.23,-1.09 -0.41,-2 -0.58,-3 z M 37.66,76 v 0 h 0.05 c 0.08,-0.26 0.19,-0.6 0.32,-1 z"
         id="path492" />
      <path
         class="cls-1"
         d="M 44.1,76 43.55,75.9 43,75.74 43.82,74.47 Z m 0,-2.21 c -0.76,1.18 -1.53,2.34 -2.32,3.5 h 0.19 l 0.18,0.07 A 14.67,14.67 0 0 1 42.88,76 l 0.6,0.11 0.64,0.14 c 0.08,0.52 0.19,1.17 0.21,1.56 h 0.26 a 1.17,1.17 0 0 1 0.26,0.08 c -0.14,-0.63 -0.47,-2.77 -0.69,-4.12 z"
         id="path494" />
      <path
         class="cls-1"
         d="m 45,78.11 -0.23,-0.1 -0.23,-0.07 h -0.2 -0.16 v -0.11 c 0,-0.3 -0.09,-0.75 -0.16,-1.19 v -0.26 l -0.55,-0.12 -0.4,-0.08 h -0.11 a 14,14 0 0 0 -0.72,1.27 l -0.06,0.12 -0.12,-0.06 -0.15,-0.06 H 41.76 41.5 l 0.15,-0.22 c 0.85,-1.26 1.61,-2.41 2.32,-3.5 v -0.08 l 0.26,0.06 v 0.09 l 0.2,1.24 c 0.19,1.19 0.39,2.42 0.49,2.88 z m -0.57,-0.45 h 0.16 0.06 c -0.11,-0.57 -0.28,-1.63 -0.44,-2.67 l -0.17,-1 -0.13,0.21 0.33,1.92 h -0.12 0.09 l 0.07,0.44 c 0.08,0.44 0.14,0.8 0.17,1.11 z M 42,77.15 h 0.07 c 0.11,-0.21 0.25,-0.47 0.39,-0.71 z m 1.26,-1.49 h 0.1 l 0.24,0.05 0.37,0.07 -0.17,-1 z"
         id="path496" />
      <path
         class="cls-1"
         d="m 48.62,75 a 1.38,1.38 0 0 0 -1.06,-0.62 c -0.83,-0.06 -1.5,0.45 -1.58,1.68 -0.08,1.23 0.43,1.78 1.36,1.85 a 1.69,1.69 0 0 0 0.81,-0.13 c 0,-0.22 0,-0.44 0.05,-0.67 0.05,-0.23 0,-0.52 0,-0.76 a 1,1 0 0 0 0.24,0 0.66,0.66 0 0 0 0.21,0 c 0,0.16 -0.05,0.52 -0.1,1.12 0,0.14 0,0.29 0,0.45 a 4.22,4.22 0 0 1 -1.29,0.18 1.78,1.78 0 0 1 -1.79,-2.11 1.81,1.81 0 0 1 2.08,-1.85 2.29,2.29 0 0 1 1.25,0.41 1.57,1.57 0 0 0 -0.14,0.42 z"
         id="path498" />
      <path
         class="cls-1"
         d="m 47.41,78.3 h -0.15 a 2.06,2.06 0 0 1 -1.46,-0.64 2.47,2.47 0 0 1 0.2,-3.13 2,2 0 0 1 1.54,-0.45 2.41,2.41 0 0 1 1.32,0.43 l 0.1,0.07 -0.06,0.1 a 1.45,1.45 0 0 0 -0.13,0.38 v 0.11 h -0.24 v -0.05 a 1.25,1.25 0 0 0 -1,-0.56 1.21,1.21 0 0 0 -0.92,0.28 1.82,1.82 0 0 0 -0.52,1.28 c -0.07,1 0.38,1.65 1.25,1.72 a 1.81,1.81 0 0 0 0.68,-0.08 c 0,-0.13 0,-0.26 0,-0.4 v -0.2 c 0,-0.22 0,-0.44 0,-0.65 V 76.2 l 0.17,0.06 h 0.2 a 0.47,0.47 0 0 0 0.17,0 h 0.18 v 0.19 c 0,0.17 -0.05,0.54 -0.1,1.12 v 0.17 c 0,0.09 0,0.18 0,0.28 v 0.09 h -0.08 a 4.61,4.61 0 0 1 -1.15,0.19 z m -0.64,-3.89 a 1.55,1.55 0 0 0 -0.57,0.31 2.22,2.22 0 0 0 -0.2,2.76 1.6,1.6 0 0 0 0.85,0.49 1.69,1.69 0 0 1 -1,-1.89 2.06,2.06 0 0 1 0.61,-1.46 1.38,1.38 0 0 1 0.31,-0.21 z m 1.58,2.14 c 0,0.2 0,0.4 0,0.61 v 0.2 c 0,0.16 0,0.32 0,0.48 v 0.07 h -0.06 -0.05 l 0.28,-0.07 c 0,-0.06 0,-0.12 0,-0.18 v -0.17 c 0,-0.44 0.06,-0.77 0.08,-1 H 48.42 Z M 48.1,74.42 a 1.48,1.48 0 0 1 0.5,0.38 l 0.05,-0.14 a 1.9,1.9 0 0 0 -0.54,-0.24 z"
         id="path500" />
      <path
         class="cls-1"
         d="m 49.61,75.75 c 0,-0.48 0,-1 -0.07,-1.44 a 1.07,1.07 0 0 0 0.24,0 h 0.25 c 0,0.48 0,1 0,1.44 v 1 c 0,0.48 0,1 0.06,1.44 h -0.24 -0.24 c 0,-0.48 0,-1 0,-1.44 z"
         id="path502" />
      <path
         class="cls-1"
         d="m 49.48,78.32 v -0.17 c 0,-0.46 0,-0.95 0,-1.43 v -1 c 0,-0.46 0,-0.92 -0.07,-1.43 v -0.17 h 0.16 a 0.76,0.76 0 0 0 0.22,0 h 0.23 0.16 v 0.16 c 0,0.42 0,0.93 0,1.43 v 1 c 0,0.38 0,0.75 0,1.13 v 0.46 h -0.16 a 1,1 0 0 0 -0.43,0 z m 0.26,-2.57 v 1 c 0,0.44 0,0.87 0,1.29 H 50 v -0.15 c 0,-0.38 0,-0.76 0,-1.14 v -1 c 0,-0.45 0,-0.9 0,-1.29 h -0.22 c -0.07,0.45 -0.05,0.87 -0.04,1.29 z"
         id="path504" />
      <path
         class="cls-1"
         d="m 51,77.37 a 0.86,0.86 0 0 0 0.84,0.5 0.73,0.73 0 0 0 0.65,-0.86 c -0.09,-1 -1.62,-0.44 -1.73,-1.74 a 1,1 0 0 1 1,-1.14 1,1 0 0 1 0.76,0.2 1.73,1.73 0 0 0 -0.1,0.47 h -0.06 a 0.65,0.65 0 0 0 -0.63,-0.47 0.64,0.64 0 0 0 -0.58,0.74 c 0.09,1 1.61,0.47 1.72,1.69 a 1.19,1.19 0 0 1 -1.11,1.35 1.12,1.12 0 0 1 -0.85,-0.25 1.88,1.88 0 0 0 0.05,-0.5 z"
         id="path506" />
      <path
         class="cls-1"
         d="m 51.64,78.25 a 1.24,1.24 0 0 1 -0.79,-0.28 l -0.07,-0.05 v -0.08 a 1.75,1.75 0 0 0 0,-0.47 v -0.12 h 0.26 v 0.07 a 0.73,0.73 0 0 0 0.71,0.43 0.61,0.61 0 0 0 0.53,-0.72 c 0,-0.37 -0.29,-0.48 -0.7,-0.62 -0.41,-0.14 -1,-0.34 -1,-1.12 a 1.24,1.24 0 0 1 2,-1.05 l 0.08,0.06 v 0.09 a 1.63,1.63 0 0 0 -0.09,0.44 v 0.11 h -0.26 v -0.09 c -0.12,-0.28 -0.29,-0.4 -0.5,-0.39 a 0.51,0.51 0 0 0 -0.47,0.6 c 0,0.39 0.29,0.5 0.71,0.65 0.42,0.15 0.94,0.32 1,1 a 1.31,1.31 0 0 1 -1.23,1.49 z m -0.57,-0.44 a 1,1 0 0 0 0.57,0.18 v 0 a 0.93,0.93 0 0 1 -0.56,-0.32 c 0,0 0,0.09 -0.01,0.14 z m 0.14,-3.34 a 0.88,0.88 0 0 0 -0.3,0.78 c 0.05,0.61 0.45,0.75 0.86,0.9 0.41,0.15 0.82,0.29 0.87,0.85 a 1,1 0 0 1 -0.12,0.61 1.14,1.14 0 0 0 0.23,-0.83 c 0,-0.55 -0.41,-0.68 -0.83,-0.82 -0.42,-0.14 -0.84,-0.29 -0.89,-0.87 a 0.84,0.84 0 0 1 0.19,-0.62 z m 0.86,-0.21 a 0.73,0.73 0 0 1 0.28,0.23 v -0.12 a 0.79,0.79 0 0 0 -0.27,-0.11 z"
         id="path508" />
      <path
         class="cls-1"
         d="M 54.21,75.33 C 54.14,74.95 54.07,74.58 53.99,74.2 a 8.68,8.68 0 0 0 -1,0.25 0.71,0.71 0 0 0 0,-0.18 0.74,0.74 0 0 0 -0.06,-0.17 l 1.27,-0.2 1.27,-0.26 a 0.78,0.78 0 0 0 0,0.18 0.84,0.84 0 0 0 0.05,0.17 8.57,8.57 0 0 0 -1.06,0.13 c 0.06,0.38 0.12,0.75 0.19,1.13 l 0.17,0.94 c 0.08,0.47 0.19,0.94 0.29,1.41 h -0.24 a 1,1 0 0 0 -0.24,0.07 c -0.07,-0.47 -0.13,-1 -0.22,-1.42 z"
         id="path510" />
      <path
         class="cls-1"
         d="m 54.49,77.87 -0.06,-0.4 c -0.06,-0.39 -0.11,-0.79 -0.19,-1.18 l -0.17,-0.94 c -0.06,-0.35 -0.12,-0.68 -0.19,-1 a 7.83,7.83 0 0 0 -0.9,0.22 l -0.19,0.06 v -0.2 a 0.57,0.57 0 0 0 0,-0.15 0.59,0.59 0 0 0 0,-0.13 L 52.69,74 h 0.17 l 1.27,-0.2 1.26,-0.26 h 0.17 v 0.17 a 0.67,0.67 0 0 0 0,0.15 0.84,0.84 0 0 0 0,0.13 l 0.08,0.17 h -0.19 a 7.75,7.75 0 0 0 -0.92,0.11 c 0.05,0.36 0.11,0.69 0.17,1 l 0.17,0.94 c 0.08,0.43 0.17,0.88 0.27,1.3 l 0.06,0.26 h -0.16 -0.22 l -0.21,0.06 z m -0.16,-2.56 0.17,0.94 c 0.08,0.39 0.13,0.8 0.19,1.19 v 0.08 h 0.11 0.1 C 54.81,77.11 54.72,76.68 54.64,76.26 L 54.47,75.32 C 54.4,74.97 54.34,74.6 54.28,74.19 v -0.12 h 0.12 c 0.29,-0.06 0.64,-0.1 0.91,-0.13 V 73.88 L 54.18,74 53.06,74.18 v 0.07 c 0.27,-0.08 0.63,-0.16 0.89,-0.2 h 0.12 v 0.12 c 0.08,0.36 0.15,0.73 0.22,1.13 z"
         id="path512" />
      <path
         class="cls-1"
         d="M 56.68,74.78 C 56.56,74.4 56.46,74.01 56.35,73.62 a 4,4 0 0 1 0.45,-0.17 0.69,0.69 0 0 1 1,0.46 0.85,0.85 0 0 1 -0.66,1.1 1.57,1.57 0 0 1 -0.33,0.07 z m -0.1,1 c 0.14,0.45 0.27,0.92 0.4,1.38 l 0.22,-0.1 h 0.24 c -0.16,-0.44 -0.33,-0.9 -0.47,-1.36 l -0.12,-0.39 0.18,-0.06 a 15.63,15.63 0 0 1 1.79,1.37 1.43,1.43 0 0 1 0.27,-0.12 l 0.3,-0.06 C 59,76.18 57.85,75.3 57.51,75.05 a 1.11,1.11 0 0 0 0.66,-1.32 c -0.2,-0.63 -0.72,-0.69 -1.26,-0.52 -0.18,0.06 -0.35,0.14 -0.54,0.2 -0.19,0.06 -0.37,0.1 -0.55,0.14 0.16,0.45 0.33,0.9 0.47,1.36 z"
         id="path514" />
      <path
         class="cls-1"
         d="m 56.9,77.39 -0.07,-0.24 c -0.12,-0.43 -0.24,-0.87 -0.38,-1.3 v 0 l -0.29,-0.91 c -0.12,-0.38 -0.26,-0.78 -0.4,-1.16 l -0.12,-0.33 h 0.14 c 0.18,0 0.37,-0.08 0.54,-0.14 l 0.24,-0.09 0.3,-0.11 a 1.25,1.25 0 0 1 1,0 1,1 0 0 1 0.46,0.59 1.19,1.19 0 0 1 -0.55,1.37 l 0.27,0.2 c 0.46,0.35 1.17,0.88 1.45,1.07 l 0.29,0.19 h -0.35 l -0.27,0.06 A 1.22,1.22 0 0 0 58.92,76.7 H 58.84 L 58.77,76.64 A 16,16 0 0 0 57,75.39 l 0.08,0.26 c 0.14,0.43 0.29,0.86 0.44,1.27 l 0.08,0.23 h -0.16 -0.22 l -0.2,0.09 z m -0.2,-1.62 c 0.13,0.41 0.25,0.83 0.36,1.24 h 0.09 0.11 c -0.14,-0.4 -0.29,-0.8 -0.42,-1.21 l -0.16,-0.51 v 0 l -0.13,-0.4 C 56.43,74.5 56.32,74.1 56.22,73.73 v -0.07 l -0.21,0.05 v 0.06 c 0.14,0.38 0.28,0.78 0.4,1.17 z m 0.4,-0.63 a 15.75,15.75 0 0 1 1.74,1.31 l 0.21,-0.08 v 0 l -1.21,-0.9 -0.43,-0.32 -0.11,-0.08 -0.17,0.07 z m -0.3,-0.4 0.06,0.2 0.2,-0.05 a 1,1 0 0 0 0.55,-0.41 0.66,0.66 0 0 0 0,-0.52 0.59,0.59 0 0 0 -0.28,-0.37 0.71,0.71 0 0 0 -0.52,0 l -0.34,0.12 c 0.09,0.34 0.19,0.69 0.3,1 z m 0.35,-1.47 a 0.8,0.8 0 0 1 0.32,0.08 0.84,0.84 0 0 1 0.41,0.52 0.91,0.91 0 0 1 0,0.72 l -0.06,0.1 a 0.88,0.88 0 0 0 0.25,-0.92 0.71,0.71 0 0 0 -0.33,-0.44 0.88,0.88 0 0 0 -0.58,-0.06 z"
         id="path516" />
      <path
         class="cls-1"
         d="m 61,73.62 -0.48,0.29 -0.47,0.26 -0.24,-1.49 z M 59.5,72 c 0.23,1.39 0.44,2.76 0.63,4.15 a 0.66,0.66 0 0 1 0.14,-0.11 l 0.17,-0.07 c -0.1,-0.35 -0.22,-0.93 -0.33,-1.53 l 0.52,-0.32 0.57,-0.32 c 0.41,0.33 0.92,0.74 1.2,1 l 0.22,-0.16 a 1.43,1.43 0 0 1 0.24,-0.11 c -0.53,-0.38 -2.2,-1.74 -3.28,-2.6 z"
         id="path518" />
      <path
         class="cls-1"
         d="m 60,76.41 v -0.24 c -0.19,-1.35 -0.39,-2.7 -0.63,-4.15 v -0.09 l 0.24,-0.14 0.42,0.34 c 1,0.84 2.45,2 2.92,2.32 l 0.2,0.14 -0.23,0.08 a 1.24,1.24 0 0 0 -0.22,0.1 L 62.5,74.92 62.41,75 62.33,74.91 c -0.22,-0.22 -0.61,-0.54 -1,-0.82 L 61.19,74 l -0.1,0.06 -0.39,0.22 -0.44,0.27 c 0.11,0.58 0.22,1.11 0.31,1.43 v 0.12 h -0.12 l -0.15,0.06 a 0.53,0.53 0 0 0 -0.11,0.09 z m 0.07,-1.28 0.11,0.79 h 0.06 c 0,-0.23 -0.06,-0.49 -0.12,-0.79 z m 1.1,-1.48 0.3,0.25 c 0.33,0.26 0.66,0.54 0.89,0.76 l 0.14,-0.1 h 0.05 C 61.96,74.11 60.73,73.12 59.8,72.37 l -0.19,-0.15 v 0.25 l 1.54,1.2 H 61.09 Z M 60,74.36 Z m 0,-1.36 0.16,1 h 0.08 l 0.23,-0.13 0.17,-0.11 0.14,-0.09 z"
         id="path520" />
      <path
         class="cls-1"
         d="m 3,0.09 c 0,0 0.45,30.54 0.91,34.45 0.46,3.91 0.66,10.78 6.36,18 4.45,5.64 11.18,9.81 14,11.72 2.32,1.57 8.82,6.27 8.82,6.27 0,0 9,-6.46 12.54,-8.91 a 74.85,74.85 0 0 0 9.9,-8.09 25.56,25.56 0 0 0 5.63,-9.81 c 1.18,-3.91 1.28,-8.27 1.46,-12 C 62.8,27.99 64,0 64,0 Z"
         id="path522" />
      <path
         class="cls-6"
         d="M 33.13,1 H 4.08 l 0.48,30 a 86.53,86.53 0 0 0 1.16,9.34 32.46,32.46 0 0 0 6,12.65 C 14.95,57.09 25,63.66 25,63.66 l 7.62,5.21 v -4 c 0,0 -5.88,-4.32 -10.33,-7.32 a 34.22,34.22 0 0 1 -8.9,-8.22 24,24 0 0 1 -4,-9.3 C 8.5,36.5 8.5,25.03 8.5,25.03 L 7.92,5.7 H 33.1 Z"
         id="path524"
         style="fill:url(#linear-gradient-5)" />
      <path
         class="cls-7"
         d="M 33,6.34 32.56,64 l -8,-5.65 a 58.32,58.32 0 0 1 -8,-6.29 A 23.4,23.4 0 0 1 11.13,43.7 34.93,34.93 0 0 1 9.4,35 C 9.26,33.14 9.08,25.35 9.08,25.35 L 8.65,6.3 Z"
         id="path526" />
      <path
         class="cls-8"
         d="m 33.95,0.93 h 28.53 c 0,0 -0.5,10.62 -0.59,14.22 -0.09,3.6 -0.35,8.32 -0.47,9.69 -0.12,1.37 -0.38,9.78 -0.58,12 a 30.47,30.47 0 0 1 -1.45,7.26 26.64,26.64 0 0 1 -5.24,8.9 55,55 0 0 1 -8.38,6.89 c -2.83,2 -8.21,5.72 -8.21,5.72 l -4.06,2.95 z"
         id="path528" />
      <path
         class="cls-1"
         d="m 11.33,34.29 0.3,-0.09 2.06,-0.06 1.7,1.59 1.5,0.09 0.61,-1.18 0.48,-0.73 0.29,-0.09 -0.35,1.65 H 18.6 L 20.53,35 23.21,33.71 v -2.62 a 9,9 0 0 1 2.24,-0.76 17.6,17.6 0 0 0 2.18,-0.54 3.56,3.56 0 0 0 0.44,-0.14 l 0.09,1.29 c 0,0 1.88,-0.12 2.12,-0.21 0.24,-0.09 0.94,-0.27 0.94,-0.27 a 9.89,9.89 0 0 0 -0.71,1.59 c -0.06,0.39 0,3.82 0,3.82 l 0.09,0.27 -0.32,0.59 0.55,1.27 v 6.77 l 0.35,0.53 A 1.29,1.29 0 0 1 30.83,45.89 2.54,2.54 0 0 1 30.12,46.36 7.89,7.89 0 0 0 28.21,46 c -1,-0.06 -2.44,0 -3.12,0 a 16.32,16.32 0 0 0 -2,0.56 18.22,18.22 0 0 1 -2.76,-0.06 c -0.88,-0.11 -3.47,-0.79 -4.27,-0.94 a 10.65,10.65 0 0 0 -2.32,-0.39 2.27,2.27 0 0 0 -0.77,0.35 l -1.18,-0.83 -0.15,-0.47 0.65,-0.41 0.06,-0.86 0.71,0.44 0.73,-0.35 0.12,-0.77 0.53,0.53 0.5,-0.06 -0.06,-0.85 h -2 L 11,40.3 11.12,39.86 12.86,41 h 2.35 l 0.12,-1.47 h -3.56 l -0.48,-4.74 z"
         id="path530" />
      <path
         class="cls-9"
         d="m 24.66,34.56 1,-2.5 c 0,0 0.32,-0.59 0.53,-0.67 L 27,31 l -0.14,-0.2 -1.2,0.09 a 2.2,2.2 0 0 0 -0.86,0.29 c -0.23,0.21 -0.59,0.56 -0.59,0.56 l 0.23,2.67 z"
         id="path532" />
      <path
         class="cls-9"
         d="m 26.83,35.12 0.17,-2.95 0.76,-0.26 0.79,-0.18 1.12,-0.06 a 7.35,7.35 0 0 1 -0.35,1.88 2.68,2.68 0 0 1 -1,1.24 4.43,4.43 0 0 1 -1.49,0.33 z"
         id="path534" />
      <path
         class="cls-7"
         d="M 17.12,40.33 17.06,41 19.85,40.94 a 1.6,1.6 0 0 1 0.67,0.41 c 0.15,0.23 0.65,1.27 0.65,1.27 l 0.23,0.64 A 2.35,2.35 0 0 0 21.7,41.99 3.11,3.11 0 0 0 20.79,40.4 1.9,1.9 0 0 0 19.66,40 1.08,1.08 0 0 0 19.01,40.27 l -1.65,0.06 z"
         id="path536" />
      <path
         class="cls-10"
         d="m 18.07,39.79 v -0.35 c 0,0 0.53,-0.06 0.67,-0.35 A 5.31,5.31 0 0 0 19,38 a 0.92,0.92 0 0 1 0.24,0.62 1,1 0 0 1 -0.32,0.85 1.44,1.44 0 0 1 -0.56,0.32 1.68,1.68 0 0 1 -0.29,0 z"
         id="path538" />
      <path
         class="cls-10"
         d="m 17.5,35.74 c 0,0 -0.61,1.62 -0.82,2.35 -0.21,0.73 -0.47,4.71 -0.47,4.71 H 15.5 a 35.69,35.69 0 0 1 0.41,-4.09 24.4,24.4 0 0 1 1.59,-2.97 z"
         id="path540" />
      <polygon
         class="cls-7"
         points="19.45,42.44 19.39,43.06 18.68,42.94 18.36,42.12 17.77,42.76 17,42.7 17,41.82 18.62,41.88 "
         id="polygon542" />
      <path
         class="cls-9"
         d="m 13,44.35 0.47,0.3 0.36,-0.09 a 4.9,4.9 0 0 1 1.56,-0.56 31.29,31.29 0 0 1 3.59,0.24 c 1.14,0.18 2.67,0.32 2.79,0.35 a 2.5,2.5 0 0 0 0.38,0 3.91,3.91 0 0 0 0.85,-2.18 2.5,2.5 0 0 0 -0.47,-1.77 3.06,3.06 0 0 0 -0.89,-0.67 6.64,6.64 0 0 0 -0.93,-0.35 l 0.08,0.3 a 3.39,3.39 0 0 1 1.18,0.91 2.57,2.57 0 0 1 0.53,1.65 15.08,15.08 0 0 1 -0.61,1.68 c 0,0 -3,-0.44 -3.94,-0.56 A 14.85,14.85 0 0 0 15.86,43.48 5.67,5.67 0 0 0 13,44.35 Z"
         id="path544" />
      <path
         class="cls-9"
         d="m 15.5,44.85 0.27,-0.38 c 0,0 3.86,0.71 4.65,0.74 a 16.29,16.29 0 0 0 2.47,0 6.56,6.56 0 0 0 1,-1.91 A 5.63,5.63 0 0 0 23.18,40.68 8.58,8.58 0 0 0 21.32,39.45 8.55,8.55 0 0 0 19.95,39 6.15,6.15 0 0 0 19.51,37.71 3.87,3.87 0 0 0 18.37,36.92 c -0.12,0 -0.27,0.14 -0.27,0.14 a 2.5,2.5 0 0 1 0.44,0.85 0.83,0.83 0 0 1 -0.32,0.65 C 18.04,38.67 17.51,38.5 17.51,38.5 l 0.21,-2 6.59,-0.94 0.11,0.27 -0.23,0.38 -2.74,0.27 -1.21,1.35 v 0.79 l 0.32,0.06 0.21,-0.47 0.33,0.06 0.26,0.53 1.29,-0.15 0.56,-0.56 0.67,0.15 -0.09,0.38 h 0.3 l 1.18,-1 -0.12,-0.39 -0.64,0.41 -3.24,-0.15 0.29,-0.41 h 2.48 l 1.26,-0.79 1,1.32 0.12,-1.09 2,-0.35 c 0,0 0.3,-0.3 0.44,-0.47 a 2.52,2.52 0 0 0 0.3,-0.53 l 0.27,-0.06 v 0.79 l -0.88,0.91 1.06,1.89 v 4.41 a 6.23,6.23 0 0 0 -0.27,1 6.8,6.8 0 0 0 0.18,0.94 H 29.08 A 6.43,6.43 0 0 0 28.93,44.11 5.56,5.56 0 0 0 28.7,43.49 h -0.21 a 3.2,3.2 0 0 1 0,0.95 6,6 0 0 1 -0.26,0.62 h -1 a 7.76,7.76 0 0 0 0.56,-1.73 3.06,3.06 0 0 0 -0.47,-1.65 c -0.17,-0.29 -0.5,-0.92 -0.5,-0.92 h -0.3 c 0,0 0.3,1 0.42,1.39 0.12,0.39 0.44,0.85 0.24,1.23 -0.2,0.38 -0.92,1.32 -0.92,1.32 L 25.91,45.02 25.5,45.2 25.44,44.44 A 4,4 0 0 0 25.76,43.29 4.79,4.79 0 0 0 25.36,42 l -0.82,-1.47 -0.23,0.12 0.44,1.76 a 2,2 0 0 1 -0.21,1.64 c -0.38,0.56 -1,1.32 -1,1.32 l -0.62,0.09 -0.8,0.41 -0.76,0.09 c 0,0 -1.79,-0.24 -2.67,-0.44 z"
         id="path546" />
      <path
         class="cls-1"
         d="m 28.21,40.82 c 0,0 0.62,0.3 0.71,0.62 a 14,14 0 0 1 0.15,1.62 h -0.41 c 0,0 -0.1,-1 -0.15,-1.29 -0.05,-0.29 -0.3,-0.95 -0.3,-0.95 z"
         id="path548" />
      <path
         class="cls-9"
         d="m 12.33,35 0.29,-0.06 h 0.77 l 0.32,0.33 0.09,2.29 0.23,-0.06 0.53,-0.7 h 1.71 l -0.26,0.61 -0.62,1.27 -0.06,0.18 -1.09,-0.12 -1.94,-0.41 a 1.4,1.4 0 0 1 -0.32,-0.79 5.38,5.38 0 0 1 0,-1.41 C 12.06,35.88 12.33,35 12.33,35 Z"
         id="path550" />
      <path
         class="cls-1"
         d="m 37.41,9.84 h 1.38 l 0.15,0.67 h 0.36 l 0.25,-0.65 h 1.28 l 0.33,0.78 h 0.36 l 0.27,-0.8 h 1 v 1.55 l -0.63,0.74 0.13,3.24 0.71,0.09 0.21,0.52 0.32,0.06 0.08,-0.5 1.11,-0.13 0.12,-3.46 -0.81,-0.52 v -1.42 l 0.1,-0.11 h 1.32 l 0.19,0.17 0.17,0.59 h 0.34 l 0.14,-0.67 0.06,-0.08 h 1.47 l 0.12,0.76 h 0.3 l 0.19,-0.74 0.23,-0.06 h 0.86 v 1.51 l -0.65,0.53 v 3.5 l 0.67,0.17 0.11,0.46 0.19,0.1 L 50,16 l 0.17,-0.57 0.88,-0.08 0.09,-3.5 -0.7,-0.46 v -1.5 l 0.21,-0.18 h 1 l 0.26,0.21 v 0.67 h 0.5 V 9.84 L 52.58,9.67 H 54 l 0.11,0.23 v 0.63 h 0.61 V 9.84 L 54.9,9.66 h 1.21 l 0.22,0.21 v 1.24 l -0.7,0.59 v 4.61 l 0.06,0.5 0.34,0.09 0.19,0.67 -0.15,0.55 -0.81,0.69 -0.17,0.34 -0.88,1 h -0.27 l -0.29,0.71 -0.27,0.09 0.74,13.52 1.63,1.74 0.61,9.94 H 48.71 L 48.52,45.61 H 44.2 l -0.33,0.63 H 36.44 L 37,36.48 39,34.38 39.89,21 39.41,20.75 39.18,19.84 a 3.47,3.47 0 0 1 -0.65,-0.46 6.45,6.45 0 0 1 -0.61,-0.86 l -0.5,-0.3 v -0.5 L 37.92,17.3 38,12 37.18,11.37 v -1.09 z"
         id="path552" />
      <path
         class="cls-11"
         d="m 39,18.86 a 0.09,0.09 0 0 1 0.09,-0.11 h 1.42 a 0.1,0.1 0 0 1 0.1,0.11 v 0.19 a 0.28,0.28 0 0 1 -0.09,0.17 l -0.27,0.19 a 0.39,0.39 0 0 1 -0.19,0.06 h -0.43 a 0.49,0.49 0 0 1 -0.2,0 l -0.28,-0.16 a 0.24,0.24 0 0 1 -0.11,-0.16 z"
         id="path554" />
      <path
         class="cls-11"
         d="m 45.58,18.74 c 0,0 0,-0.08 0,-0.08 h 1.92 c 0.06,0 0.09,0 0.06,0.1 l -0.29,0.58 a 0.2,0.2 0 0 1 -0.16,0.1 h -0.88 a 0.25,0.25 0 0 1 -0.18,-0.08 z"
         id="path556" />
      <path
         class="cls-11"
         d="m 52.17,18.75 c 0,-0.05 0,-0.09 0.05,-0.09 h 1.47 a 0.07,0.07 0 0 1 0.07,0.1 l -0.26,0.75 a 0.15,0.15 0 0 1 -0.14,0.1 h -0.55 a 0.22,0.22 0 0 1 -0.16,-0.1 z"
         id="path558" />
      <path
         class="cls-12"
         d="m 46.19,39.31 v 5.94 h -2 v -0.42 l 0.72,-0.39 v -0.27 l -0.8,-0.37 v -2 l 1.07,-0.2 v -0.39 l -0.81,-0.38 a 1.68,1.68 0 0 1 0.59,-0.91 2,2 0 0 1 0.84,-0.49 z"
         id="path560" />
      <path
         class="cls-12"
         d="m 46.83,39.44 a 9.36,9.36 0 0 1 0.86,0.46 2.63,2.63 0 0 1 0.5,0.54 1.11,1.11 0 0 1 0.05,0.34 l -0.67,0.51 v 0.32 l 0.91,0.27 v 1.59 l -0.71,0.73 v 0.25 l 0.74,0.25 v 0.54 h -1.63 z"
         id="path562" />
      <path
         class="cls-1"
         d="m 16.67,15.2 a 16.7,16.7 0 0 1 -1.49,0.79 c -0.3,0.1 -1.56,0.31 -1.56,0.31 v -0.77 l -0.66,0.84 A 3.17,3.17 0 0 1 12,15.9 3.51,3.51 0 0 0 11.54,15.21 l -1.41,0.22 -0.18,0.16 0.26,2.89 h 1.86 L 12,18.91 a 4.47,4.47 0 0 1 -0.9,0.25 c -0.23,0 -0.56,0.1 -0.71,0 -0.15,-0.1 -0.51,-0.41 -0.51,-0.41 L 9.74,19 a 5,5 0 0 0 0.92,0.69 7.21,7.21 0 0 0 1.07,-0.15 H 12 l 0.12,0.53 -0.3,0.11 L 11.48,20 11.23,20.45 11,20.61 10.67,20.33 10.52,20.87 c 0,0 -0.36,0.1 -0.46,0.31 a 0.79,0.79 0 0 0 0,0.54 15.75,15.75 0 0 1 1.74,-0.38 14.34,14.34 0 0 1 1.84,0.48 11.65,11.65 0 0 0 2.2,0 c 0.21,0 1.61,0 1.94,0 0.33,0 1.33,-0.28 1.51,0 a 3.91,3.91 0 0 1 0.31,0.51 l 0.95,-0.67 a 1.82,1.82 0 0 1 -0.08,-0.74 7,7 0 0 0 0.08,-1 c 0,-0.2 -0.13,-0.48 -0.1,-0.77 0.03,-0.29 0,-2.6 0,-2.6 a 1.93,1.93 0 0 1 -0.23,-0.67 c 0,-0.3 0.16,-0.61 0.13,-0.92 C 20.32,14.65 20,13.8 20,13.62 c 0,-0.18 0.43,-0.33 0.43,-0.33 L 20.3,13.06 h -1.38 l 0.05,-0.69 c 0,0 -1.2,0.13 -1.56,0.23 a 1.13,1.13 0 0 0 -0.82,0.69 9.38,9.38 0 0 0 0,1.45 z"
         id="path564" />
      <path
         class="cls-9"
         d="m 18.38,13 a 1.22,1.22 0 0 1 -0.13,0.56 C 18.12,13.74 17.84,14.3 17.79,14.38 17.74,14.46 17.48,15 17.48,15 l -0.08,0.15 c 0,0 -0.26,-1.2 -0.26,-1.28 0,-0.08 0,-0.54 0.18,-0.69 a 1.89,1.89 0 0 1 0.72,-0.2 z"
         id="path566" />
      <path
         class="cls-10"
         d="m 12.93,20.06 a 6.63,6.63 0 0 1 -0.18,-1 8.69,8.69 0 0 1 0.07,-1.46 1,1 0 0 0 -0.39,0.69 11.83,11.83 0 0 0 0,1.2 c 0,0.21 0,0.59 0,0.59 z"
         id="path568" />
      <path
         class="cls-10"
         d="m 13.24,18.37 a 2,2 0 0 0 0.7,0 2.42,2.42 0 0 0 0.46,-0.48 0.87,0.87 0 0 1 0,0.59 0.69,0.69 0 0 1 -0.54,0.25 4.51,4.51 0 0 1 -0.62,0 z"
         id="path570" />
      <path
         class="cls-7"
         d="m 13.52,19.6 c 0,0 0.36,0 0.46,0.13 a 0.54,0.54 0 0 1 0.11,0.33 h -0.54 z"
         id="path572" />
      <path
         class="cls-7"
         d="m 14.39,19 a 1.89,1.89 0 0 1 0.46,0.33 c 0.07,0.13 0.3,0.74 0.3,0.74 l 0.33,-0.05 a 1.86,1.86 0 0 0 0,-0.76 0.81,0.81 0 0 0 -0.54,-0.41 2.59,2.59 0 0 0 -0.55,0.15 z"
         id="path574" />
      <path
         class="cls-9"
         d="m 18.76,18.76 a 3.18,3.18 0 0 1 0.59,1 6.18,6.18 0 0 1 -0.18,1.35 l 0.26,0.15 h 0.2 a 8.62,8.62 0 0 0 0.2,-1.23 7.41,7.41 0 0 0 0,-1 l 0.18,-0.23 c 0,0 -0.18,-1.51 -0.28,-1.84 -0.1,-0.33 -0.36,-1 -0.36,-1 l -0.77,0.72 -0.51,-0.36 -0.87,0.56 H 16.1 l -0.2,-0.07 -0.18,0.18 0.43,0.18 0.77,0.05 h 0.56 v 0.18 l -1,0.13 c 0,0 -0.15,0.26 -0.36,0.28 a 0.8,0.8 0 0 1 -0.61,-0.23 3.24,3.24 0 0 1 -0.36,-0.82 l 1.63,-0.33 0.44,-0.33 -0.23,-0.26 -1.66,0.51 -1.81,0.41 -0.18,0.33 -0.06,1 c 0,0 0.23,0.18 0.41,0.13 0.18,-0.05 0.44,-0.2 0.47,-0.38 A 1.73,1.73 0 0 0 14,17.25 V 17 l 0.29,0.05 0.38,0.23 0.2,0.67 a 5.85,5.85 0 0 1 0.92,0.41 2.77,2.77 0 0 1 0.67,0.67 c 0.05,0.16 0,1.76 0,1.76 l -2.79,0.16 c 0,0 -0.05,0.36 0.59,0.45 a 3.15,3.15 0 0 0 1.35,-0.2 c 0.23,0 0.95,0 0.95,0 a 3.33,3.33 0 0 0 0.59,-0.28 1.31,1.31 0 0 0 0.46,-0.67 6.18,6.18 0 0 0 0,-1.23 c 0,-0.1 0,-0.72 0,-0.72 a 4.44,4.44 0 0 1 0.59,1.25 12.57,12.57 0 0 1 -0.2,1.61 0.8,0.8 0 0 0 0.51,-0.38 1.56,1.56 0 0 0 0.38,-1 2.5,2.5 0 0 0 -0.23,-0.69 z"
         id="path576" />
      <path
         class="cls-9"
         d="m 10.43,21.34 c 0,0 0.66,-0.2 1.1,-0.28 0.44,-0.08 2.5,-0.35 3,-0.39 0.5,-0.04 1.3,-0.15 1.3,-0.15 l 0.28,-0.33 V 19.9 a 5.15,5.15 0 0 1 -0.48,0.24 19.9,19.9 0 0 1 -2.12,0.15 10.88,10.88 0 0 0 -1.79,0.18 7.34,7.34 0 0 0 -1.22,0.56 0.35,0.35 0 0 0 -0.07,0.31 z"
         id="path578" />
      <path
         class="cls-9"
         d="m 15.41,18.55 a 1,1 0 0 1 0.41,0.35 3,3 0 0 1 0.18,0.54 h 0.21 c 0,0 0,-0.41 -0.13,-0.54 a 6.08,6.08 0 0 0 -0.67,-0.43 z"
         id="path580" />
      <path
         class="cls-9"
         d="m 10.4,15.92 0.13,2 a 6,6 0 0 0 1.17,0 c 0.18,-0.07 0.49,-0.13 0.62,-0.31 A 1.53,1.53 0 0 0 12.6,17.1 c 0,-0.16 -0.31,-0.23 -0.46,-0.2 a 2.43,2.43 0 0 0 -0.54,0.28 l -0.15,0.05 A 6.23,6.23 0 0 0 11.29,16.41 0.87,0.87 0 0 0 10.96,15.9 1.61,1.61 0 0 0 10.4,15.92 Z"
         id="path582" />
      <rect
         class="cls-1"
         x="10.86"
         y="16.559999"
         width="0.18000001"
         height="0.66000003"
         id="rect584" />
      <path
         class="cls-1"
         d="m 28.07,15.2 a 16.71,16.71 0 0 1 -1.49,0.79 c -0.31,0.1 -1.56,0.31 -1.56,0.31 v -0.77 l -0.66,0.84 A 3.17,3.17 0 0 1 23.47,15.88 3.25,3.25 0 0 0 23,15.2 l -1.41,0.22 -0.18,0.16 0.26,2.89 h 1.86 l -0.08,0.43 a 4.51,4.51 0 0 1 -0.89,0.25 c -0.23,0 -0.57,0.1 -0.72,0 -0.15,-0.1 -0.51,-0.41 -0.51,-0.41 l -0.17,0.31 a 5,5 0 0 0 0.92,0.69 7.19,7.19 0 0 0 1.07,-0.15 h 0.26 l 0.13,0.53 -0.31,0.11 -0.35,-0.23 -0.26,0.45 -0.23,0.16 -0.33,-0.28 -0.15,0.54 c 0,0 -0.35,0.1 -0.46,0.31 a 0.82,0.82 0 0 0 0,0.54 15.8,15.8 0 0 1 1.74,-0.38 14.24,14.24 0 0 1 1.84,0.48 11.68,11.68 0 0 0 2.2,0 c 0.2,0 1.61,0 1.93,0 0.32,0 1.33,-0.28 1.51,0 a 4,4 0 0 1 0.31,0.51 l 0.95,-0.67 a 1.84,1.84 0 0 1 -0.08,-0.74 6.29,6.29 0 0 0 0.08,-1 c 0,-0.2 -0.13,-0.48 -0.1,-0.77 0.03,-0.29 0,-2.6 0,-2.6 A 1.88,1.88 0 0 1 31.6,15.88 c 0,-0.3 0.16,-0.61 0.13,-0.92 a 13.09,13.09 0 0 1 -0.31,-1.28 c 0,-0.18 0.43,-0.33 0.43,-0.33 l -0.13,-0.23 h -1.38 l 0.06,-0.69 c 0,0 -1.21,0.13 -1.56,0.23 a 1.14,1.14 0 0 0 -0.82,0.69 9.88,9.88 0 0 0 0,1.45 z"
         id="path586" />
      <path
         class="cls-9"
         d="m 29.78,13 a 1.21,1.21 0 0 1 -0.13,0.56 C 29.52,13.74 29.24,14.3 29.19,14.38 29.14,14.46 28.88,15 28.88,15 l -0.08,0.15 c 0,0 -0.26,-1.2 -0.26,-1.28 0,-0.08 0,-0.54 0.18,-0.69 a 1.92,1.92 0 0 1 0.72,-0.2 z"
         id="path588" />
      <path
         class="cls-10"
         d="m 24.33,20.06 a 6.79,6.79 0 0 1 -0.18,-1 8.55,8.55 0 0 1 0.07,-1.46 1,1 0 0 0 -0.38,0.69 10,10 0 0 0 0,1.2 c 0,0.21 0,0.59 0,0.59 z"
         id="path590" />
      <path
         class="cls-10"
         d="m 24.64,18.37 a 2,2 0 0 0 0.69,0 2.48,2.48 0 0 0 0.46,-0.48 0.87,0.87 0 0 1 0,0.59 0.68,0.68 0 0 1 -0.54,0.25 4.5,4.5 0 0 1 -0.62,0 z"
         id="path592" />
      <path
         class="cls-7"
         d="m 24.92,19.6 c 0,0 0.36,0 0.46,0.13 a 0.55,0.55 0 0 1 0.1,0.33 L 25,20 Z"
         id="path594" />
      <path
         class="cls-7"
         d="m 25.79,19 a 1.82,1.82 0 0 1 0.46,0.33 c 0.08,0.13 0.31,0.74 0.31,0.74 l 0.33,-0.05 a 1.86,1.86 0 0 0 0,-0.76 0.81,0.81 0 0 0 -0.53,-0.41 2.64,2.64 0 0 0 -0.57,0.15 z"
         id="path596" />
      <path
         class="cls-9"
         d="m 30.16,18.76 a 3.24,3.24 0 0 1 0.59,1 6.43,6.43 0 0 1 -0.18,1.35 l 0.25,0.15 h 0.21 a 8.7,8.7 0 0 0 0.21,-1.26 7.61,7.61 0 0 0 0,-1 l 0.18,-0.23 c 0,0 -0.18,-1.51 -0.28,-1.84 -0.1,-0.33 -0.35,-1 -0.35,-1 l -0.77,0.72 -0.51,-0.36 -0.87,0.56 h -1.13 l -0.2,-0.07 -0.18,0.18 0.43,0.18 0.77,0.05 h 0.56 v 0.18 l -1,0.13 c 0,0 -0.16,0.26 -0.36,0.28 a 0.8,0.8 0 0 1 -0.61,-0.23 3.26,3.26 0 0 1 -0.36,-0.82 l 1.64,-0.33 0.43,-0.33 -0.23,-0.26 -1.66,0.51 -1.81,0.41 -0.18,0.33 -0.05,1 c 0,0 0.23,0.18 0.41,0.13 0.18,-0.05 0.43,-0.2 0.46,-0.38 a 1.72,1.72 0 0 0 -0.15,-0.59 v -0.26 l 0.28,0.05 0.38,0.23 0.2,0.67 a 5.85,5.85 0 0 1 0.92,0.41 2.81,2.81 0 0 1 0.67,0.67 c 0.05,0.16 0,1.76 0,1.76 l -2.79,0.16 c 0,0 -0.06,0.36 0.59,0.45 a 3.15,3.15 0 0 0 1.35,-0.2 c 0.23,0 0.95,0 0.95,0 A 3.28,3.28 0 0 0 28.56,20.88 1.29,1.29 0 0 0 29.02,20.21 6.15,6.15 0 0 0 29,19 c 0,-0.1 0,-0.72 0,-0.72 a 4.32,4.32 0 0 1 0.59,1.25 12.17,12.17 0 0 1 -0.07,1.63 0.8,0.8 0 0 0 0.51,-0.38 1.55,1.55 0 0 0 0.38,-1 2.65,2.65 0 0 0 -0.23,-0.69 z"
         id="path598" />
      <path
         class="cls-9"
         d="m 21.83,21.34 c 0,0 0.67,-0.2 1.1,-0.28 0.43,-0.08 2.5,-0.35 3,-0.39 0.5,-0.04 1.3,-0.15 1.3,-0.15 l 0.28,-0.33 0.05,-0.29 a 4.49,4.49 0 0 1 -0.49,0.24 19.9,19.9 0 0 1 -2.12,0.15 10.77,10.77 0 0 0 -1.79,0.18 7.38,7.38 0 0 0 -1.23,0.56 0.35,0.35 0 0 0 -0.1,0.31 z"
         id="path600" />
      <path
         class="cls-9"
         d="m 26.81,18.55 a 1,1 0 0 1 0.41,0.35 3,3 0 0 1 0.18,0.54 h 0.2 c 0,0 0,-0.41 -0.13,-0.54 a 5.75,5.75 0 0 0 -0.66,-0.43 z"
         id="path602" />
      <path
         class="cls-9"
         d="m 21.81,15.92 0.13,2 a 6,6 0 0 0 1.17,0 c 0.18,-0.07 0.48,-0.13 0.61,-0.31 A 1.47,1.47 0 0 0 24,17.1 c 0,-0.16 -0.31,-0.23 -0.46,-0.2 A 2.4,2.4 0 0 0 23,17.18 l -0.15,0.05 A 7,7 0 0 0 22.7,16.41 C 22.62,16.18 22.5,15.95 22.36,15.9 a 1.61,1.61 0 0 0 -0.55,0.02 z"
         id="path604" />
      <rect
         class="cls-1"
         x="22.27"
         y="16.559999"
         width="0.18000001"
         height="0.66000003"
         id="rect606" />
      <path
         class="cls-1"
         d="m 1.42,43.9 a 6,6 0 0 1 1.12,1.42 3.72,3.72 0 0 1 0.24,1.83 4.19,4.19 0 0 1 -0.56,1.21 6.06,6.06 0 0 0 -0.74,2.06 6.6,6.6 0 0 0 0.21,1.51 c 0.11,0.3 0.2,0.83 0.41,1.27 0.21,0.44 0.41,0.68 0.56,0.68 h 0.62 v 0.25 L 10.7,52 c 0.07,-0.34 0.7,-2.14 0.76,-2.76 A 9.43,9.43 0 0 0 11.11,46.64 24.45,24.45 0 0 0 9.43,43.42 13.14,13.14 0 0 0 7.92,41.53 0.77,0.77 0 0 0 7.09,41.39 16.62,16.62 0 0 1 7.74,44 7.69,7.69 0 0 1 7.18,46.83 1.77,1.77 0 0 1 6.32,47.63 c 0,0 -0.59,-1.18 -0.8,-1.74 A 5.8,5.8 0 0 0 3.75,43.5 C 2.9,42.92 0.21,43 0,43 v 0 c 0.13,0.06 1,0.59 1.42,0.9 z"
         id="path608" />
      <path
         class="cls-13"
         d="m 2.06,43.84 a 9.61,9.61 0 0 1 1.31,1.62 5.05,5.05 0 0 1 0.18,2.23 c -0.13,0.61 -0.82,1.26 -1,1.9 A 6.57,6.57 0 0 0 2.41,51.41 1.83,1.83 0 0 0 3,52.67 22.14,22.14 0 0 0 6,52.7 C 7,52.6 7.56,52.42 8.16,52.32 A 6.65,6.65 0 0 0 9.5,51.6 c 0,0 0.67,-2.16 0.74,-2.67 A 4.75,4.75 0 0 0 10.14,46.69 9.12,9.12 0 0 0 9.35,44.94 L 8.57,43.47 c 0,0 0,1.37 0,1.52 a 5.26,5.26 0 0 1 -0.31,1.34 7,7 0 0 1 -0.51,1.05 7.27,7.27 0 0 1 -1.13,1.44 2.45,2.45 0 0 1 -0.85,0.26 c 0,0 -0.36,-1.31 -0.47,-1.6 A 11.1,11.1 0 0 0 4.79,46.07 8.83,8.83 0 0 0 3.94,44.94 3.24,3.24 0 0 0 3.19,44.24 6,6 0 0 0 2.06,43.84 Z"
         id="path610" />
      <path
         class="cls-1"
         d="M 4,53.06 A 4.9,4.9 0 0 1 3.19,51.25 V 51.17 A 2.41,2.41 0 0 1 3.43,49.36 6.07,6.07 0 0 0 4.14,47.23 4.53,4.53 0 0 0 3,44.05 l 0.19,-0.18 a 4.72,4.72 0 0 1 1.2,3.37 6.31,6.31 0 0 1 -0.74,2.23 2.16,2.16 0 0 0 -0.21,1.66 v 0.08 a 4.69,4.69 0 0 0 0.76,1.7 z"
         id="path612" />
      <path
         class="cls-1"
         d="M 8.49,52.63 A 1.67,1.67 0 0 1 8.27,51.81 7.35,7.35 0 0 1 8.48,51.08 15.87,15.87 0 0 0 9.26,48 9,9 0 0 0 8.09,44.17 L 8.31,44 a 9.1,9.1 0 0 1 1.21,4 15.85,15.85 0 0 1 -0.79,3.17 c -0.1,0.32 -0.2,0.63 -0.2,0.68 a 1.43,1.43 0 0 0 0.19,0.67 z"
         id="path614" />
      <path
         class="cls-9"
         d="m 19.45,13.57 a 7,7 0 0 1 0.23,1.1 1.05,1.05 0 0 1 -0.36,0.59 c -0.15,0.1 -0.48,0.39 -0.48,0.39 a 1.91,1.91 0 0 1 -0.28,-0.67 2.15,2.15 0 0 1 0.23,-1 2.91,2.91 0 0 1 0.66,-0.41 z"
         id="path616" />
      <path
         class="cls-9"
         d="m 31,13.57 a 6.67,6.67 0 0 1 0.23,1.1 1,1 0 0 1 -0.36,0.59 c -0.15,0.1 -0.48,0.39 -0.48,0.39 a 1.88,1.88 0 0 1 -0.28,-0.67 2.2,2.2 0 0 1 0.23,-1 2.91,2.91 0 0 1 0.66,-0.41 z"
         id="path618" />
      <circle
         class="cls-1"
         cx="45.549999"
         cy="42.709999"
         r="0.25"
         id="circle620" />
      <circle
         class="cls-1"
         cx="47.450001"
         cy="42.709999"
         r="0.25"
         id="circle622" />
      <circle
         class="cls-11"
         cx="46.869999"
         cy="25.52"
         r="0.41999999"
         id="circle624" />
      <circle
         class="cls-11"
         cx="43.950001"
         cy="29.459999"
         r="0.41999999"
         id="circle626" />
      <circle
         class="cls-11"
         cx="49.220001"
         cy="29.48"
         r="0.41999999"
         id="circle628" />
      <circle
         class="cls-11"
         cx="46.900002"
         cy="33.310001"
         r="0.41999999"
         id="circle630" />
      <rect
         class="cls-11"
         x="46.779999"
         y="25.549999"
         width="0.27000001"
         height="7.71"
         id="rect632" />
      <rect
         class="cls-11"
         x="44.16"
         y="29.360001"
         width="5.1199999"
         height="0.28999999"
         id="rect634" />
      <path
         class="cls-14"
         d="m 40.68,13 a 0.1,0.1 0 0 1 -0.1,0.11 H 39.5 A 0.11,0.11 0 0 1 39.4,13 V 12.12 A 0.11,0.11 0 0 1 39.5,12 h 1.07 a 0.11,0.11 0 0 1 0.1,0.11 z m 1,4.84 a 0.11,0.11 0 0 0 -0.11,-0.11 h -3.25 a 0.11,0.11 0 0 0 -0.11,0.11 v 0.3 a 0.11,0.11 0 0 0 0.11,0.11 h 3.29 a 0.11,0.11 0 0 0 0.11,-0.11 z m -1.87,-1.3 a 0.11,0.11 0 0 0 -0.1,-0.11 h -0.85 a 0.11,0.11 0 0 0 -0.11,0.11 V 17 a 0.11,0.11 0 0 0 0.11,0.11 h 0.85 A 0.11,0.11 0 0 0 39.81,17 Z m 1.5,0 A 0.11,0.11 0 0 0 41.2,16.43 h -0.83 a 0.11,0.11 0 0 0 -0.11,0.11 V 17 a 0.11,0.11 0 0 0 0.11,0.11 H 41.2 A 0.11,0.11 0 0 0 41.31,17 Z m -0.62,-1.33 a 0.11,0.11 0 0 0 -0.11,-0.1 h -1.03 a 0.1,0.1 0 0 0 -0.11,0.1 V 16 a 0.11,0.11 0 0 0 0.11,0.11 h 1.06 A 0.11,0.11 0 0 0 40.72,16 Z M 39.61,13.58 A 0.11,0.11 0 0 0 39.5,13.47 h -0.66 a 0.1,0.1 0 0 0 -0.1,0.11 v 1.11 a 0.1,0.1 0 0 0 0.1,0.11 h 0.66 a 0.11,0.11 0 0 0 0.11,-0.11 z m 1.67,0 a 0.11,0.11 0 0 0 -0.11,-0.1 h -0.59 a 0.11,0.11 0 0 0 -0.11,0.1 v 1.07 a 0.11,0.11 0 0 0 0.11,0.11 h 0.59 a 0.11,0.11 0 0 0 0.11,-0.11 z m 0.06,1.65 A 0.1,0.1 0 0 0 41.23,15.12 H 41.11 A 0.11,0.11 0 0 0 41,15.23 v 0.69 a 0.11,0.11 0 0 0 0.11,0.11 h 0.12 a 0.11,0.11 0 0 0 0.11,-0.11 z M 39.1,15.18 A 0.1,0.1 0 0 0 39,15.08 h -0.19 a 0.11,0.11 0 0 0 -0.11,0.1 v 0.75 a 0.11,0.11 0 0 0 0.11,0.11 H 39 a 0.11,0.11 0 0 0 0.1,-0.11 z m -0.12,-3 A 0.1,0.1 0 0 0 38.87,12.07 H 38.81 A 0.11,0.11 0 0 0 38.7,12.18 V 13 a 0.11,0.11 0 0 0 0.11,0.11 h 0.06 A 0.1,0.1 0 0 0 39,13 Z m 2.39,-0.05 A 0.11,0.11 0 0 0 41.3,12 H 41.21 A 0.11,0.11 0 0 0 41.1,12.11 V 13 a 0.11,0.11 0 0 0 0.11,0.1 H 41.3 A 0.11,0.11 0 0 0 41.41,13 Z m 3.2,-1.76 a 0.1,0.1 0 0 0 -0.11,0.1 v 0.41 a 0.24,0.24 0 0 0 0.09,0.17 l 0.2,0.16 a 0.37,0.37 0 0 0 0.19,0.07 h 3.76 a 0.29,0.29 0 0 0 0.18,-0.08 l 0.11,-0.11 a 0.34,0.34 0 0 0 0.07,-0.19 v -0.33 a 0.11,0.11 0 0 0 -0.1,-0.11 h -0.19 a 0.11,0.11 0 0 0 -0.11,0.11 v 0.15 a 0.11,0.11 0 0 1 -0.1,0.11 h -1.08 a 0.11,0.11 0 0 1 -0.11,-0.11 v -0.2 a 0.11,0.11 0 0 0 -0.11,-0.11 h -0.68 a 0.11,0.11 0 0 0 -0.11,0.11 v 0.18 a 0.11,0.11 0 0 1 -0.11,0.11 h -1.2 A 0.11,0.11 0 0 1 45.05,10.7 v -0.2 a 0.11,0.11 0 0 0 -0.11,-0.11 z m -6.68,0 a 0.11,0.11 0 0 0 -0.11,0.1 v 0.41 a 0.24,0.24 0 0 0 0.09,0.17 l 0.2,0.16 a 0.4,0.4 0 0 0 0.19,0.07 h 3.76 A 0.27,0.27 0 0 0 42.2,11.2 l 0.11,-0.11 a 0.31,0.31 0 0 0 0.07,-0.19 v -0.33 a 0.11,0.11 0 0 0 -0.11,-0.11 h -0.19 a 0.11,0.11 0 0 0 -0.11,0.11 v 0.15 a 0.11,0.11 0 0 1 -0.1,0.11 h -1.08 a 0.11,0.11 0 0 1 -0.11,-0.11 v -0.2 a 0.1,0.1 0 0 0 -0.1,-0.11 H 39.9 a 0.11,0.11 0 0 0 -0.1,0.11 v 0.18 a 0.11,0.11 0 0 1 -0.11,0.11 h -1.2 a 0.11,0.11 0 0 1 -0.1,-0.11 v -0.2 a 0.11,0.11 0 0 0 -0.1,-0.11 z M 51,10.28 a 0.1,0.1 0 0 0 -0.1,0.1 v 0.56 a 0.24,0.24 0 0 0 0.08,0.17 l 0.2,0.15 a 0.34,0.34 0 0 0 0.19,0.07 h 3.7 a 0.27,0.27 0 0 0 0.18,-0.08 l 0.11,-0.11 a 0.31,0.31 0 0 0 0.07,-0.19 v -0.32 a 0.11,0.11 0 0 0 -0.1,-0.11 h -0.18 a 0.11,0.11 0 0 0 -0.11,0.11 v 0.15 a 0.11,0.11 0 0 1 -0.11,0.11 h -1.4 a 0.11,0.11 0 0 1 -0.11,-0.11 v -0.41 a 0.1,0.1 0 0 0 -0.1,-0.11 H 53 a 0.1,0.1 0 0 0 -0.1,0.11 v 0.39 a 0.11,0.11 0 0 1 -0.11,0.11 h -1.2 a 0.11,0.11 0 0 1 -0.11,-0.11 v -0.38 a 0.11,0.11 0 0 0 -0.1,-0.11 z m 3.06,1.81 A 0.11,0.11 0 0 0 54,12 h -1.47 a 0.11,0.11 0 0 0 -0.11,0.11 v 0.81 a 0.11,0.11 0 0 0 0.11,0.1 H 54 a 0.11,0.11 0 0 0 0.11,-0.1 z m 0.73,1.46 a 0.11,0.11 0 0 0 -0.11,-0.11 h -1 a 0.1,0.1 0 0 0 -0.11,0.11 v 0.9 a 0.11,0.11 0 0 0 0.11,0.11 h 1 a 0.11,0.11 0 0 0 0.11,-0.11 z m -1.9,0 a 0.11,0.11 0 0 0 -0.11,-0.11 h -1 a 0.11,0.11 0 0 0 -0.1,0.11 v 0.93 a 0.1,0.1 0 0 0 0.1,0.11 h 1 a 0.11,0.11 0 0 0 0.11,-0.11 z M 54.17,15 a 0.1,0.1 0 0 0 -0.1,-0.11 H 52.59 A 0.11,0.11 0 0 0 52.49,15 v 0.86 a 0.11,0.11 0 0 0 0.1,0.11 h 1.47 a 0.1,0.1 0 0 0 0.1,-0.11 z m -2,0.05 A 0.11,0.11 0 0 0 52.06,14.94 H 52 a 0.11,0.11 0 0 0 -0.11,0.11 v 0.81 A 0.11,0.11 0 0 0 52,16 h 0.1 a 0.11,0.11 0 0 0 0.11,-0.11 z m 0.9,1.36 A 0.11,0.11 0 0 0 52.96,16.3 H 52 a 0.11,0.11 0 0 0 -0.1,0.11 v 0.42 A 0.11,0.11 0 0 0 52,17 h 1 a 0.11,0.11 0 0 0 0.11,-0.11 z m 1.63,-0.08 a 0.11,0.11 0 0 0 -0.11,-0.11 h -1.04 a 0.11,0.11 0 0 0 -0.1,0.11 v 0.47 a 0.1,0.1 0 0 0 0.1,0.11 H 54.6 A 0.1,0.1 0 0 0 54.71,16.8 Z M 54.77,15 a 0.11,0.11 0 0 0 -0.1,-0.11 H 54.55 A 0.11,0.11 0 0 0 54.44,15 v 0.78 a 0.11,0.11 0 0 0 0.11,0.11 h 0.12 a 0.11,0.11 0 0 0 0.1,-0.11 z M 52.1,12.16 a 0.11,0.11 0 0 0 -0.11,-0.11 h -0.14 a 0.1,0.1 0 0 0 -0.1,0.11 v 0.76 a 0.11,0.11 0 0 0 0.1,0.11 H 52 a 0.11,0.11 0 0 0 0.11,-0.11 z m 2.54,-0.05 A 0.12,0.12 0 0 0 54.53,12 h -0.05 a 0.11,0.11 0 0 0 -0.11,0.11 v 0.76 a 0.11,0.11 0 0 0 0.11,0.11 h 0.05 a 0.11,0.11 0 0 0 0.11,-0.11 z m -8.94,0 A 0.11,0.11 0 0 0 45.6,12 h -0.07 a 0.11,0.11 0 0 0 -0.11,0.11 V 13 a 0.11,0.11 0 0 0 0.11,0.1 H 45.6 A 0.11,0.11 0 0 0 45.71,13 Z m 0.73,1.43 a 0.11,0.11 0 0 0 -0.11,-0.11 h -0.76 a 0.1,0.1 0 0 0 -0.1,0.11 v 1 a 0.11,0.11 0 0 0 0.1,0.11 h 0.76 a 0.11,0.11 0 0 0 0.11,-0.11 z m 1.13,-1.48 a 0.11,0.11 0 0 0 -0.11,-0.11 h -1.37 a 0.11,0.11 0 0 0 -0.11,0.11 V 13 a 0.11,0.11 0 0 0 0.11,0.11 h 1.37 A 0.11,0.11 0 0 0 47.56,13 Z m 0.57,0.07 c 0,-0.06 0,-0.11 -0.08,-0.11 a 0.1,0.1 0 0 0 -0.09,0.11 V 13 a 0.1,0.1 0 0 0 0.09,0.11 c 0,0 0.08,0 0.08,-0.11 z M 48,13.59 a 0.11,0.11 0 0 0 -0.11,-0.11 h -0.56 a 0.11,0.11 0 0 0 -0.11,0.11 v 1 a 0.11,0.11 0 0 0 0.11,0.11 h 0.56 A 0.11,0.11 0 0 0 48,14.59 Z m 0.08,1.58 a 0.1,0.1 0 0 0 -0.11,-0.1 v 0 a 0.1,0.1 0 0 0 -0.11,0.1 v 0.75 A 0.11,0.11 0 0 0 48,16 v 0 a 0.11,0.11 0 0 0 0.11,-0.11 z m -0.54,-0.11 a 0.11,0.11 0 0 0 -0.11,-0.11 h -1.4 a 0.11,0.11 0 0 0 -0.11,0.11 v 0.86 a 0.11,0.11 0 0 0 0.11,0.11 h 1.4 a 0.11,0.11 0 0 0 0.11,-0.11 z m -1.9,0 a 0.11,0.11 0 0 0 -0.11,-0.11 h -0.15 a 0.11,0.11 0 0 0 -0.11,0.11 v 0.81 a 0.11,0.11 0 0 0 0.11,0.11 h 0.15 a 0.1,0.1 0 0 0 0.11,-0.11 z m 1,1.36 a 0.11,0.11 0 0 0 -0.11,-0.11 h -1 a 0.11,0.11 0 0 0 -0.11,0.11 v 0.51 a 0.11,0.11 0 0 0 0.11,0.11 h 1 a 0.11,0.11 0 0 0 0.11,-0.11 z m 1.43,0 a 0.11,0.11 0 0 0 -0.11,-0.1 H 47.1 a 0.1,0.1 0 0 0 -0.11,0.1 v 0.55 a 0.11,0.11 0 0 0 0.11,0.11 H 48 a 0.11,0.11 0 0 0 0.11,-0.11 z m -5.77,0.53 a 0.11,0.11 0 0 0 0.1,0.11 h 2.21 a 0.11,0.11 0 0 0 0.11,-0.11 v -0.81 a 0.11,0.11 0 0 0 -0.11,-0.11 h -0.36 a 0.16,0.16 0 0 0 -0.14,0.1 l -0.14,0.4 a 0.16,0.16 0 0 1 -0.14,0.1 H 43 a 0.11,0.11 0 0 1 -0.11,-0.1 V 16.1 A 0.11,0.11 0 0 0 42.79,16 h -0.36 a 0.12,0.12 0 0 0 -0.11,0.1 z m 6.59,0 a 0.12,0.12 0 0 0 0.12,0.11 H 50.9 A 0.11,0.11 0 0 0 51,17 V 16.12 A 0.11,0.11 0 0 0 51,16 h -0.3 a 0.16,0.16 0 0 0 -0.14,0.1 l -0.1,0.34 a 0.15,0.15 0 0 1 -0.14,0.1 h -0.86 a 0.17,0.17 0 0 1 -0.15,-0.1 L 49.16,16.08 A 0.19,0.19 0 0 0 49,16 h -0.07 a 0.09,0.09 0 0 0 -0.1,0.1 z m -3.7,2.83 c 0.06,0 0.08,0 0,-0.08 l -1.48,-1.79 a 0.25,0.25 0 0 0 -0.18,-0.08 h -0.39 a 0.29,0.29 0 0 0 -0.18,0.08 l -1.36,1.72 c 0,0 0,0.08 0,0.09 z m 2.94,-0.15 a 0.1,0.1 0 0 0 0.1,0.11 h 3.4 c 0.06,0 0.09,0 0.05,-0.1 l -0.55,-1 a 0.22,0.22 0 0 0 -0.16,-0.1 H 50.6 a 0.18,0.18 0 0 1 -0.15,-0.1 L 50.16,17.86 A 0.2,0.2 0 0 0 50,17.8 h -0.19 a 0.33,0.33 0 0 0 -0.18,0.08 l -1.42,1.53 a 0.36,0.36 0 0 0 -0.08,0.18 z m 0.23,-1.84 a 0.11,0.11 0 0 0 -0.1,-0.11 H 45 a 0.11,0.11 0 0 0 -0.11,0.11 V 18 A 0.11,0.11 0 0 0 45,18.1 h 3.22 a 0.11,0.11 0 0 0 0.1,-0.1 z m -5.45,2.47 a 0.11,0.11 0 0 0 -0.1,-0.1 h -1.93 a 0.11,0.11 0 0 0 -0.11,0.1 v 1.66 a 0.11,0.11 0 0 0 0.11,0.11 h 1.92 a 0.11,0.11 0 0 0 0.1,-0.11 z m 0.1,2.18 A 0.11,0.11 0 0 0 42.9,22.33 h -0.61 a 0.11,0.11 0 0 0 -0.11,0.11 V 24 a 0.11,0.11 0 0 0 0.11,0.11 H 42.9 A 0.11,0.11 0 0 0 43,24 Z m -1.15,0 a 0.11,0.11 0 0 0 -0.11,-0.1 h -1 a 0.1,0.1 0 0 0 -0.11,0.1 V 24 a 0.1,0.1 0 0 0 0.11,0.1 h 1 A 0.11,0.11 0 0 0 41.86,24 Z m 3,0 a 0.1,0.1 0 0 0 -0.11,-0.1 h -0.59 a 0.1,0.1 0 0 0 -0.11,0.1 v 1.69 a 0.11,0.11 0 0 0 0.11,0.11 h 0.59 a 0.11,0.11 0 0 0 0.11,-0.11 z m 3.28,0 a 0.11,0.11 0 0 0 -0.1,-0.11 h -2.6 a 0.11,0.11 0 0 0 -0.11,0.11 V 24 a 0.11,0.11 0 0 0 0.11,0.11 h 2.61 A 0.11,0.11 0 0 0 48.15,24 Z m 1.36,0 a 0.1,0.1 0 0 0 -0.11,-0.1 h -0.76 a 0.11,0.11 0 0 0 -0.11,0.1 V 24 a 0.11,0.11 0 0 0 0.11,0.1 h 0.76 A 0.11,0.11 0 0 0 49.5,24 Z m 2,0 a 0.11,0.11 0 0 0 -0.11,-0.11 h -0.78 a 0.11,0.11 0 0 0 -0.11,0.11 v 1.7 a 0.11,0.11 0 0 0 0.11,0.11 h 0.78 a 0.11,0.11 0 0 0 0.11,-0.11 z m 0.94,0 a 0.11,0.11 0 0 0 -0.1,-0.1 H 52 a 0.11,0.11 0 0 0 -0.1,0.1 V 24 a 0.1,0.1 0 0 0 0.1,0.1 h 0.31 a 0.1,0.1 0 0 0 0.1,-0.1 z m -0.18,-2.12 a 0.1,0.1 0 0 0 -0.1,-0.1 h -1.47 a 0.11,0.11 0 0 0 -0.1,0.1 v 1.62 a 0.1,0.1 0 0 0 0.1,0.1 h 1.47 a 0.1,0.1 0 0 0 0.1,-0.1 z m -8.9,4.38 a 0.11,0.11 0 0 0 -0.11,-0.11 h -2.67 a 0.11,0.11 0 0 0 -0.11,0.11 v 1.49 a 0.11,0.11 0 0 0 0.11,0.11 h 2.68 a 0.11,0.11 0 0 0 0.11,-0.11 z m -1.54,2 a 0.11,0.11 0 0 0 -0.11,-0.11 h -1.27 a 0.12,0.12 0 0 0 -0.11,0.11 l -0.06,1.55 a 0.1,0.1 0 0 0 0.1,0.11 h 1.34 a 0.11,0.11 0 0 0 0.11,-0.11 z m 3,0 a 0.11,0.11 0 0 0 -0.1,-0.11 H 42.31 A 0.11,0.11 0 0 0 42.2,26.7 v 1.6 a 0.11,0.11 0 0 0 0.11,0.11 h 2.41 a 0.11,0.11 0 0 0 0.1,-0.11 z m 6.71,0 a 0.11,0.11 0 0 0 -0.11,-0.1 h -2.71 a 0.11,0.11 0 0 0 -0.11,0.1 v 1.55 a 0.11,0.11 0 0 0 0.11,0.1 h 2.71 a 0.11,0.11 0 0 0 0.11,-0.1 z m -3.29,0.08 a 0.11,0.11 0 0 0 -0.11,-0.1 h -0.49 a 0.11,0.11 0 0 0 -0.11,0.1 v 1.47 a 0.11,0.11 0 0 0 0.11,0.1 h 0.49 a 0.11,0.11 0 0 0 0.11,-0.1 z M 46.36,26.7 a 0.11,0.11 0 0 0 -0.11,-0.1 h -0.92 a 0.11,0.11 0 0 0 -0.11,0.1 v 1.54 a 0.11,0.11 0 0 0 0.11,0.1 h 0.92 a 0.11,0.11 0 0 0 0.11,-0.1 z m 6.11,-2.14 a 0.1,0.1 0 0 0 -0.1,-0.1 h -2 a 0.11,0.11 0 0 0 -0.11,0.1 v 1.66 a 0.11,0.11 0 0 0 0.11,0.11 h 2 a 0.11,0.11 0 0 0 0.1,-0.11 z M 40,20.24 a 0.11,0.11 0 0 0 -0.11,-0.1 h -0.07 a 0.11,0.11 0 0 0 -0.11,0.1 v 0.17 a 0.11,0.11 0 0 0 0.11,0.11 h 0.07 A 0.11,0.11 0 0 0 40,20.41 Z m 6.8,0.05 A 0.11,0.11 0 0 0 46.69,20.18 H 46.5 a 0.11,0.11 0 0 0 -0.1,0.11 v 0.08 a 0.11,0.11 0 0 0 0.1,0.11 h 0.19 a 0.11,0.11 0 0 0 0.11,-0.11 z m 6.31,0.13 a 0.1,0.1 0 0 0 -0.1,-0.11 H 52.9 a 0.11,0.11 0 0 0 -0.11,0.11 v 0.24 a 0.11,0.11 0 0 0 0.11,0.11 h 0.11 a 0.1,0.1 0 0 0 0.1,-0.11 z M 51.42,17.57 Z M 55,17.7 a 0.11,0.11 0 0 0 -0.11,-0.11 h -3.3 A 0.12,0.12 0 0 0 51.48,17.7 V 18 a 0.11,0.11 0 0 0 0.11,0.1 h 3.3 A 0.11,0.11 0 0 0 55,18 Z M 41.73,30.85 a 0.11,0.11 0 0 0 -0.11,-0.1 h -1.5 a 0.11,0.11 0 0 0 -0.11,0.1 v 1.27 a 0.11,0.11 0 0 0 0.11,0.11 h 1.5 a 0.11,0.11 0 0 0 0.11,-0.11 z m 3.13,-0.07 a 0.11,0.11 0 0 0 -0.1,-0.11 h -2.4 a 0.11,0.11 0 0 0 -0.11,0.11 v 1.35 a 0.11,0.11 0 0 0 0.11,0.11 h 2.39 a 0.11,0.11 0 0 0 0.1,-0.11 z m -1.29,1.9 A 0.11,0.11 0 0 0 43.46,32.57 H 40 a 0.11,0.11 0 0 0 -0.1,0.11 v 1.47 a 0.11,0.11 0 0 0 0.1,0.11 h 3.46 a 0.11,0.11 0 0 0 0.11,-0.11 z m 9.36,0 a 0.11,0.11 0 0 0 -0.11,-0.11 h -2.46 a 0.11,0.11 0 0 0 -0.11,0.11 v 1.42 a 0.11,0.11 0 0 0 0.11,0.11 h 2.46 a 0.11,0.11 0 0 0 0.11,-0.11 z m -0.15,-1.79 a 0.1,0.1 0 0 0 -0.1,-0.1 H 52 a 0.1,0.1 0 0 0 -0.1,0.1 v 1.21 a 0.11,0.11 0 0 0 0.1,0.11 h 0.65 a 0.1,0.1 0 0 0 0.1,-0.11 z m -1.23,0 a 0.11,0.11 0 0 0 -0.11,-0.11 h -2.72 a 0.11,0.11 0 0 0 -0.11,0.11 v 1.25 a 0.11,0.11 0 0 0 0.11,0.11 h 2.71 a 0.11,0.11 0 0 0 0.11,-0.11 z m -3.35,0 a 0.11,0.11 0 0 0 -0.1,-0.11 h -0.48 a 0.11,0.11 0 0 0 -0.11,0.11 v 1.23 a 0.11,0.11 0 0 0 0.11,0.11 h 0.48 a 0.11,0.11 0 0 0 0.1,-0.11 z m -1.91,0 a 0.11,0.11 0 0 0 -0.11,-0.11 h -0.8 a 0.11,0.11 0 0 0 -0.11,0.11 v 1.21 a 0.11,0.11 0 0 0 0.11,0.11 h 0.8 A 0.11,0.11 0 0 0 46.29,32.1 Z M 46.15,30.18 A 0.11715375,0.11715375 0 0 0 46,30 h -1.28 a 0.11,0.11 0 0 0 -0.11,0.11 v 0.15 a 0.11,0.11 0 0 0 0.11,0.11 H 46 a 0.11,0.11 0 0 0 0.11,-0.11 z m 2.49,0 a 0.11,0.11 0 0 0 -0.11,-0.1 h -0.71 a 0.11,0.11 0 0 0 -0.1,0.1 v 0.09 a 0.11,0.11 0 0 0 0.1,0.11 h 0.71 a 0.11,0.11 0 0 0 0.11,-0.11 z m 0.08,-1.43 a 0.11,0.11 0 0 0 -0.11,-0.11 h -0.95 a 0.11,0.11 0 0 0 -0.11,0.11 v 0.17 a 0.11,0.11 0 0 0 0.11,0.1 h 0.95 a 0.11,0.11 0 0 0 0.11,-0.1 z m -2.49,0 a 0.11,0.11 0 0 0 -0.11,-0.11 h -1.54 a 0.11,0.11 0 0 0 -0.11,0.11 v 0.16 a 0.11,0.11 0 0 0 0.11,0.1 h 1.53 a 0.11,0.11 0 0 0 0.11,-0.1 z m 6.39,-2.17 A 0.11,0.11 0 0 0 52.51,26.47 H 52 a 0.11,0.11 0 0 0 -0.1,0.11 v 1.57 a 0.11,0.11 0 0 0 0.1,0.1 h 0.5 a 0.11,0.11 0 0 0 0.11,-0.1 z M 39.31,37 A 0.11,0.11 0 0 0 39.2,36.9 H 37.89 A 0.11,0.11 0 0 0 37.78,37 v 1.16 a 0.11,0.11 0 0 0 0.11,0.11 h 1.31 a 0.11,0.11 0 0 0 0.11,-0.11 z m 0,3.43 a 0.1,0.1 0 0 0 -0.1,-0.1 h -1.57 a 0.1,0.1 0 0 0 -0.1,0.1 v 1.29 a 0.1,0.1 0 0 0 0.1,0.1 h 1.52 a 0.1,0.1 0 0 0 0.1,-0.1 z m 2.29,1.8 a 0.11,0.11 0 0 0 -0.1,-0.1 H 38 a 0.11,0.11 0 0 0 -0.1,0.1 v 1.4 a 0.11,0.11 0 0 0 0.1,0.11 h 3.46 a 0.11,0.11 0 0 0 0.1,-0.11 z m -2.24,2 a 0.11,0.11 0 0 0 -0.11,-0.11 h -1.82 a 0.11,0.11 0 0 0 -0.11,0.11 v 1.12 a 0.11,0.11 0 0 0 0.11,0.1 h 1.79 a 0.11,0.11 0 0 0 0.11,-0.1 z m 3,-0.1 a 0.11,0.11 0 0 0 -0.11,-0.1 h -2.33 a 0.11,0.11 0 0 0 -0.1,0.1 v 1.25 a 0.11,0.11 0 0 0 0.1,0.11 h 2.33 a 0.11,0.11 0 0 0 0.11,-0.11 z m 1.14,-2 a 0.11,0.11 0 0 0 -0.11,-0.11 h -1 a 0.11,0.11 0 0 0 -0.11,0.11 v 1.32 a 0.11,0.11 0 0 0 0.11,0.11 h 1 a 0.11,0.11 0 0 0 0.11,-0.11 z m 0,2 a 0.11,0.11 0 0 0 -0.11,-0.1 h -0.31 a 0.11,0.11 0 0 0 -0.11,0.1 v 1.12 a 0.11,0.11 0 0 0 0.11,0.11 h 0.31 a 0.11,0.11 0 0 0 0.11,-0.11 z m -2.1,-5.3 a 0.11,0.11 0 0 0 -0.11,-0.11 h -3.44 a 0.11,0.11 0 0 0 -0.11,0.11 v 1 a 0.11,0.11 0 0 0 0.11,0.11 h 3.47 a 0.11,0.11 0 0 0 0.11,-0.11 z m 13.42,-0.19 a 0.11,0.11 0 0 0 -0.11,-0.11 h -3 a 0.11,0.11 0 0 0 -0.11,0.11 v 1.17 a 0.11,0.11 0 0 0 0.11,0.11 h 3 a 0.11,0.11 0 0 0 0.11,-0.11 z M 55,40.27 A 0.11,0.11 0 0 0 54.89,40.16 H 53.3 a 0.11,0.11 0 0 0 -0.11,0.11 v 1.27 a 0.11,0.11 0 0 0 0.11,0.11 h 1.57 a 0.11,0.11 0 0 0 0.11,-0.11 z m -0.39,1.8 A 0.11,0.11 0 0 0 54.5,41.96 h -2.68 a 0.11,0.11 0 0 0 -0.11,0.11 v 1.32 a 0.11,0.11 0 0 0 0.11,0.1 h 2.66 a 0.11,0.11 0 0 0 0.11,-0.1 z m 0.69,1.83 a 0.1,0.1 0 0 0 -0.11,-0.1 h -1.87 a 0.11,0.11 0 0 0 -0.11,0.1 v 1.33 a 0.11,0.11 0 0 0 0.11,0.11 h 1.85 a 0.11,0.11 0 0 0 0.11,-0.11 z m -2.52,0 a 0.1,0.1 0 0 0 -0.11,-0.1 h -1.61 a 0.1,0.1 0 0 0 -0.1,0.1 v 1.28 a 0.11,0.11 0 0 0 0.1,0.11 h 1.59 a 0.11,0.11 0 0 0 0.11,-0.11 z m 2.09,-6.85 a 0.11,0.11 0 0 0 -0.11,-0.1 h -1.51 a 0.1,0.1 0 0 0 -0.11,0.1 v 0.86 a 0.11,0.11 0 0 0 0.11,0.11 h 1.48 a 0.11,0.11 0 0 0 0.11,-0.11 z M 43.75,26.12 a 0.11,0.11 0 0 0 0.11,0.11 h 2.09 a 0.14,0.14 0 0 0 0.13,-0.1 v 0 a 0.23,0.23 0 0 0 -0.05,-0.18 1,1 0 0 1 -0.26,-0.6 c 0,-0.37 0.21,-0.43 0.21,-0.43 a 0.18,0.18 0 0 0 0.13,-0.13 V 24.6 a 0.09,0.09 0 0 0 -0.09,-0.11 h -1.88 a 0.75,0.75 0 0 0 -0.21,0 h -0.08 a 0.15,0.15 0 0 0 -0.1,0.14 z m 3.77,-1.68 v 0.26 a 0.19,0.19 0 0 0 0.1,0.15 0.49,0.49 0 0 1 0.24,0.29 1,1 0 0 1 0,0.52 0.6,0.6 0 0 1 -0.14,0.2 0.29,0.29 0 0 0 -0.09,0.18 v 0.07 a 0.1,0.1 0 0 0 0.1,0.11 h 2 a 0.1,0.1 0 0 0 0.11,-0.1 v -1.66 a 0.11,0.11 0 0 0 -0.11,-0.1 H 47.62 M 44,34.1 a 0.11,0.11 0 0 0 0.11,0.11 h 2 a 0.11,0.11 0 0 0 0.11,-0.11 v -0.16 a 0.19,0.19 0 0 0 -0.1,-0.15 c 0,0 -0.36,-0.17 -0.32,-0.47 a 0.89,0.89 0 0 1 0.3,-0.52 0.19,0.19 0 0 0 0.08,-0.13 0.12,0.12 0 0 0 -0.12,-0.07 h -2 a 0.11,0.11 0 0 0 -0.11,0.11 z m 3.66,-1.28 a 0.27,0.27 0 0 0 0.1,0.16 0.56,0.56 0 0 1 0.16,0.17 c 0.06,0.12 0,0.19 0,0.37 a 0.61,0.61 0 0 1 -0.2,0.32 0.24,0.24 0 0 0 -0.09,0.17 v 0 a 0.11,0.11 0 0 0 0.11,0.11 h 1.85 A 0.11,0.11 0 0 0 49.7,34.01 V 32.7 a 0.11,0.11 0 0 0 -0.11,-0.11 h -1.84 a 0.1,0.1 0 0 0 -0.1,0.11 z m -7.88,5.28 a 0.11,0.11 0 0 0 0.11,0.11 h 3 a 0.28,0.28 0 0 0 0.18,-0.08 L 43.2,38 a 0.28,0.28 0 0 0 0.07,-0.19 v -0.76 a 0.12,0.12 0 0 0 -0.11,-0.11 l -3.2,-0.09 a 0.1,0.1 0 0 0 -0.1,0.1 z m 3.82,-1 v 0.73 a 0.09,0.09 0 0 0 0.11,0.09 h 0.23 a 0.66,0.66 0 0 0 0.19,-0.07 l 0.59,-0.4 a 0.25,0.25 0 0 0 0.09,-0.17 V 37.09 A 0.11,0.11 0 0 0 44.7,36.98 h -0.92 a 0.29,0.29 0 0 0 -0.17,0 0.18,0.18 0 0 0 -0.01,0.13 z m 0.73,1.47 a 0.34,0.34 0 0 0 0.08,0.18 l 0.34,0.32 a 0.25,0.25 0 0 0 0.18,0.07 v 0 a 0.36,0.36 0 0 0 0.19,-0.08 h 0.06 a 0.27,0.27 0 0 0 0.09,-0.18 V 38.5 a 0.66,0.66 0 0 0 0,-0.2 L 45.19,38.14 A 0.22,0.22 0 0 0 45,38 v 0 a 0.44,0.44 0 0 0 -0.2,0 l -0.35,0.16 a 0.17,0.17 0 0 0 -0.09,0.15 z m -1.06,0.3 -0.12,0.18 -0.29,0.46 a 0.18,0.18 0 0 0 0,0.18 v 0 a 0.47,0.47 0 0 0 0.15,0.13 l 0.7,0.34 a 0.15,0.15 0 0 0 0.17,0 l 0.37,-0.45 a 0.47,0.47 0 0 0 0.07,-0.19 v -0.07 a 0.27,0.27 0 0 0 -0.07,-0.19 l -0.66,-0.68 a 0.08,0.08 0 0 0 -0.13,0 z m -1.2,-0.32 a 0.11,0.11 0 0 0 -0.1,0.11 v 1 c 0,0.06 0,0.08 0.09,0 v 0 A 1,1 0 0 0 42.2,39.5 l 0.26,-0.46 a 0.73,0.73 0 0 0 0.08,-0.2 v -0.11 a 0.2,0.2 0 0 0 -0.22,-0.25 z m 0.83,2.2 a 0.84,0.84 0 0 0 -0.05,0.2 l -0.06,0.55 a 0.09,0.09 0 0 0 0.1,0.1 h 0.33 a 0.23,0.23 0 0 0 0.16,-0.1 l 0.11,-0.17 a 0.68,0.68 0 0 0 0.08,-0.19 v -0.21 a 0.21,0.21 0 0 0 -0.06,-0.18 l -0.36,-0.36 a 0.07,0.07 0 0 0 -0.12,0 z m 2.77,-3.44 a 0.31,0.31 0 0 0 -0.09,0.18 v 0.16 a 0.63,0.63 0 0 0 0,0.21 l 0.33,0.9 a 0.16,0.16 0 0 0 0.14,0.1 h 0.56 a 0.15,0.15 0 0 0 0.14,-0.1 l 0.41,-1.34 a 0.2,0.2 0 0 0 0,-0.18 L 47,37 A 0.3,0.3 0 0 0 46.82,36.92 H 46.2 A 0.32,0.32 0 0 0 46,37 Z M 48,37.09 a 0.28,0.28 0 0 0 0,0.19 v 0.06 a 0.35,0.35 0 0 0 0.12,0.16 l 0.69,0.42 a 0.12,0.12 0 0 0 0.15,0 l 0.13,-0.19 a 0.41,0.41 0 0 0 0.06,-0.2 V 37.11 A 0.11,0.11 0 0 0 49.05,37 H 48.2 a 0.22,0.22 0 0 0 -0.16,0.09 z m 1.66,0.58 a 0.24,0.24 0 0 0 0.08,0.18 L 50,38 a 0.33,0.33 0 0 0 0.19,0.07 h 2.48 a 0.11,0.11 0 0 0 0.11,-0.1 v -0.51 a 0.71,0.71 0 0 0 0,-0.21 V 37.1 A 0.15,0.15 0 0 0 52.64,37 H 49.8 a 0.11,0.11 0 0 0 -0.11,0.11 z M 51,41 a 0.57,0.57 0 0 0 0,0.2 l 0.05,0.11 a 0.55,0.55 0 0 0 0.14,0.15 l 0.35,0.2 a 0.42,0.42 0 0 0 0.2,0.06 h 0.84 a 0.11,0.11 0 0 0 0.11,-0.11 V 40.29 A 0.11,0.11 0 0 0 52.58,40.18 H 51.3 a 0.43,0.43 0 0 0 -0.2,0 0.19,0.19 0 0 0 -0.09,0.16 z m 0,1.17 a 0.11,0.11 0 0 0 -0.11,-0.11 h -1.27 a 0.11,0.11 0 0 0 -0.11,0.11 v 1.03 a 0.11,0.11 0 0 0 0.11,0.11 h 1.25 A 0.11,0.11 0 0 0 51,43.2 Z M 50.34,44 A 0.11,0.11 0 0 0 50.23,43.89 H 49.64 A 0.11,0.11 0 0 0 49.53,44 v 1.27 a 0.11,0.11 0 0 0 0.11,0.11 h 0.59 a 0.11,0.11 0 0 0 0.11,-0.11 z m -2.39,-4.79 a 0.12,0.12 0 0 0 0.15,0 l 0.37,-0.55 a 0.13,0.13 0 0 0 0,-0.16 L 48,38.06 A 0.51,0.51 0 0 0 47.8,38 v 0 a 0.11,0.11 0 0 0 -0.12,0.09 l -0.12,0.8 a 0.17,0.17 0 0 0 0.07,0.16 z m 0.58,0.18 a 0.18,0.18 0 0 0 0,0.18 l 0.13,0.16 a 0.12,0.12 0 0 0 0.16,0 l 0.81,-0.69 a 0.19,0.19 0 0 0 0.06,-0.18 v 0 a 0.38,0.38 0 0 0 -0.1,-0.18 l -0.38,-0.34 a 0.08,0.08 0 0 0 -0.13,0 z m 0.76,0.84 a 0.16,0.16 0 0 0 -0.06,0.16 l 0.32,1 a 0.13,0.13 0 0 0 0.14,0.08 l 0.6,-0.1 a 0.12,0.12 0 0 0 0.1,-0.13 l -0.07,-1.18 a 0.39,0.39 0 0 0 -0.07,-0.19 l -0.08,-0.12 a 0.12,0.12 0 0 0 -0.16,0 z m 1.52,-0.5 a 0.19,0.19 0 0 0 0.17,0.07 h 0.12 a 0.13,0.13 0 0 0 0.11,-0.13 v -1 a 0.1,0.1 0 0 0 -0.1,-0.11 H 50.7 a 0.1,0.1 0 0 0 -0.1,0.11 v 0.86 a 0.34,0.34 0 0 0 0.08,0.19 z m 4.27,2.35 c 0,-0.06 0,-0.11 -0.07,-0.11 -0.07,0 -0.08,0.06 -0.08,0.11 v 1.13 c 0,0.06 0,0.1 0.08,0.1 0.08,0 0.07,0 0.07,-0.1 z m -17.62,0.28 c 0,-0.06 0,-0.1 -0.06,-0.1 -0.06,0 -0.06,0 -0.06,0.1 v 1.05 c 0,0.06 0,0.1 0.06,0.1 0.06,0 0.06,0 0.06,-0.1 z m 1.16,-6.55 c 0,0 0,0.08 0,0.08 h 0.24 a 0.22,0.22 0 0 0 0.17,-0.09 l 0.78,-1.1 c 0,0 0,-0.08 0,-0.08 h -0.09 a 0.28,0.28 0 0 0 -0.18,0.09 z m 1,0 c 0,0 0.05,0 0.11,0 h 0.58 a 0.2,0.2 0 0 0 0.16,-0.09 l 0.54,-1 a 0.06,0.06 0 0 0 -0.06,-0.09 h -0.36 a 0.24,0.24 0 0 0 -0.18,0.09 l -0.73,0.92 a 0.42,0.42 0 0 0 -0.09,0.22 z m 1.25,0 c 0,0 0,0.09 0.05,0.09 h 0.39 a 0.18,0.18 0 0 0 0.15,-0.1 l 0.47,-1.1 a 0.07,0.07 0 0 0 -0.07,-0.1 h -0.17 a 0.21,0.21 0 0 0 -0.16,0.09 z m 1.06,0 A 0.10124228,0.10124228 0 0 0 42,36 h 0.34 a 0.16,0.16 0 0 0 0.14,-0.1 l 0.35,-1.14 a 0.07,0.07 0 0 0 -0.07,-0.1 h -0.19 a 0.18,0.18 0 0 0 -0.15,0.1 z m 1,0 a 0.07,0.07 0 0 0 0.08,0.1 h 0.26 a 0.17,0.17 0 0 0 0.14,-0.1 l 0.37,-1.06 a 0.07,0.07 0 0 0 -0.07,-0.1 h -0.26 a 0.15,0.15 0 0 0 -0.14,0.1 z m 0.93,0 a 0.09,0.09 0 0 0 0.09,0.11 h 0.26 a 0.13,0.13 0 0 0 0.13,-0.11 l 0.26,-1.17 a 0.08,0.08 0 0 0 -0.09,-0.1 h -0.25 a 0.14,0.14 0 0 0 -0.13,0.1 z m 0.94,0 a 0.08,0.08 0 0 0 0.09,0.1 H 45 a 0.15,0.15 0 0 0 0.13,-0.11 l 0.22,-1.1 A 0.08,0.08 0 0 0 45.26,34.6 H 45.1 a 0.14,0.14 0 0 0 -0.12,0.11 z m 0.82,0 a 0.1,0.1 0 0 0 0.1,0.1 v 0 a 0.12,0.12 0 0 0 0.11,-0.1 l 0.07,-1.05 a 0.09,0.09 0 0 0 -0.1,-0.1 v 0 a 0.12,0.12 0 0 0 -0.11,0.11 z m 0.69,0 a 0.1,0.1 0 0 0 0.1,0.1 v 0 a 0.11,0.11 0 0 0 0.11,-0.1 v -1 A 0.11,0.11 0 0 0 46.41,34.7 h -0.06 a 0.1,0.1 0 0 0 -0.1,0.1 z m 0.89,-1 a 0.1,0.1 0 0 0 -0.1,-0.1 0.1,0.1 0 0 0 -0.1,0.1 v 1.08 a 0.11,0.11 0 0 0 0.1,0.1 0.1,0.1 0 0 0 0.1,-0.1 z M 48,35 a 0.1,0.1 0 0 0 -0.11,-0.1 v 0 a 0.1,0.1 0 0 0 -0.1,0.1 v 0.56 a 0.11,0.11 0 0 0 0.1,0.11 v 0 A 0.11,0.11 0 0 0 48,35.56 Z m 1.32,0.58 c 0,0.06 0,0.11 -0.06,0.11 -0.06,0 -0.06,0 -0.06,-0.11 v -0.09 c 0,-0.06 0,-0.1 0.06,-0.1 0.06,0 0.06,0 0.06,0.1 z m 0.42,-0.73 a 0.07,0.07 0 0 0 -0.06,0.1 l 0.31,0.72 a 0.21,0.21 0 0 0 0.15,0.1 v 0 c 0.06,0 0.09,0 0.06,-0.09 L 49.86,35 a 0.17,0.17 0 0 0 -0.15,-0.09 z m 1.66,0.72 a 0.2,0.2 0 0 0 0.16,0.1 v 0 c 0.06,0 0.08,0 0,-0.09 l -0.42,-0.66 a 0.19,0.19 0 0 0 -0.15,-0.08 c 0,0 -0.07,0 0,0.1 z m 1,0.09 a 0.22,0.22 0 0 0 0.17,0.09 h 0.07 c 0.06,0 0.08,0 0,-0.09 l -0.51,-0.73 a 0.21,0.21 0 0 0 -0.17,-0.08 h -0.07 c -0.06,0 -0.08,0 0,0.09 z m 0.35,-1 c -0.06,0 -0.07,0 0,0.1 l 0.43,0.62 a 0.2,0.2 0 0 0 0.16,0.08 c 0.06,0 0.07,0 0,-0.1 l -0.43,-0.62 a 0.22,0.22 0 0 0 -0.2,-0.04 z m -13.08,7 a 0.1,0.1 0 0 0 0.11,0.1 h 1.66 a 0.48,0.48 0 0 0 0.2,-0.06 l 0.51,-0.32 a 0.22,0.22 0 0 0 0.09,-0.17 v -0.85 a 0.11,0.11 0 0 0 -0.11,-0.11 h -2.4 a 0.11,0.11 0 0 0 -0.11,0.11 z M 44.26,20.3 a 0.11,0.11 0 0 0 -0.11,0.11 v 1.41 a 0.11,0.11 0 0 0 0.11,0.11 h 2.3 a 0.1,0.1 0 0 0 0.1,-0.1 v -0.8 A 0.26,0.26 0 0 0 46.57,20.86 L 45.83,20.3 a 0.37,0.37 0 0 0 -0.19,-0.07 z m 3.87,-0.08 a 0.4,0.4 0 0 0 -0.19,0.06 l -0.78,0.57 a 0.29,0.29 0 0 0 -0.09,0.17 v 0.8 a 0.1,0.1 0 0 0 0.1,0.11 h 2.4 a 0.12,0.12 0 0 0 0.11,-0.11 V 20.4 a 0.12,0.12 0 0 0 -0.11,-0.11 z m -7.84,8.48 a 0.12,0.12 0 0 0 -0.11,0.11 v 1.41 a 0.1,0.1 0 0 0 0.1,0.11 h 3.48 a 0.1,0.1 0 0 0 0.11,-0.09 0.14,0.14 0 0 0 -0.1,-0.11 0.71,0.71 0 0 1 -0.52,-0.7 0.7,0.7 0 0 1 0.5,-0.66 0.13,0.13 0 0 0 0.1,-0.13 0.1,0.1 0 0 0 -0.11,-0.09 z m 9.07,-0.12 a 0.08,0.08 0 0 0 -0.08,0.1 v 0.05 a 0.17,0.17 0 0 0 0.13,0.13 c 0,0 0.55,0.1 0.55,0.56 0,0.74 -0.57,0.72 -0.57,0.72 a 0.13,0.13 0 0 0 -0.13,0.1 v 0 a 0.09,0.09 0 0 0 0.09,0.11 h 3.29 a 0.1,0.1 0 0 0 0.1,-0.1 l -0.09,-1.59 a 0.13,0.13 0 0 0 -0.11,-0.11 z"
         id="path636"
         style="fill:url(#linear-gradient-6)" />
      <rect
         class="cls-1"
         x="12.36"
         y="36.470001"
         width="0.23999999"
         height="0.73000002"
         id="rect638" />
      <rect
         class="cls-1"
         x="13.12"
         y="35.759998"
         width="0.23999999"
         height="1.6799999"
         id="rect640" />
      <rect
         style="fill:#ffffff;fill-opacity:0"
         id="rect1577"
         width="81.936058"
         height="83.394775"
         x="0.15455784"
         y="-1.542558" />
      <rect
         style="fill:#ffffff;fill-opacity:0"
         id="rect1839"
         width="77.309113"
         height="85.361382"
         x="-2.5434892"
         y="-1.5824122" />
    </g>
  </g>
  <metadata
     id="metadata1841">
    <rdf:RDF>
      <cc:Work
         rdf:about="">
        <dc:title>Footer Logo</dc:title>
      </cc:Work>
    </rdf:RDF>
  </metadata>
</svg>
