<?xml version="1.0" encoding="UTF-8" standalone="no"?>
<!-- Generator: Adobe Illustrator 16.0.0, SVG Export Plug-In . SVG Version: 6.00 Build 0)  -->

<svg
   version="1.1"
   id="Layer_1"
   x="0px"
   y="0px"
   width="281.023px"
   height="167.683px"
   viewBox="0 0 281.023 167.683"
   enable-background="new 0 0 281.023 167.683"
   xml:space="preserve"
   sodipodi:docname="Nescol.svg"
   inkscape:version="1.2.2 (b0a8486541, 2022-12-01)"
   xmlns:inkscape="http://www.inkscape.org/namespaces/inkscape"
   xmlns:sodipodi="http://sodipodi.sourceforge.net/DTD/sodipodi-0.dtd"
   xmlns="http://www.w3.org/2000/svg"
   xmlns:svg="http://www.w3.org/2000/svg"><defs
   id="defs1785" /><sodipodi:namedview
   id="namedview1783"
   pagecolor="#505050"
   bordercolor="#eeeeee"
   borderopacity="1"
   inkscape:showpageshadow="0"
   inkscape:pageopacity="0"
   inkscape:pagecheckerboard="0"
   inkscape:deskcolor="#505050"
   showgrid="false"
   inkscape:zoom="1.0966126"
   inkscape:cx="47.874701"
   inkscape:cy="109.88384"
   inkscape:window-width="1346"
   inkscape:window-height="674"
   inkscape:window-x="10"
   inkscape:window-y="43"
   inkscape:window-maximized="1"
   inkscape:current-layer="g1780" />
<g
   id="g1780">
	<polygon
   points="13.324,79.276 18.183,79.276 18.183,48.662 13.969,48.662 13.969,66.985 9.111,48.662 3.178,48.662 3.178,79.276    7.435,79.276 7.435,57.102  "
   id="polygon1726" />
	<path
   d="M30.824,72.236c0,2.185-0.947,3.016-2.45,3.016c-1.505,0-2.453-0.832-2.453-3.016V55.703c0-2.188,0.947-3.017,2.453-3.017   c1.503,0,2.45,0.83,2.45,3.017V72.236z M35.554,71.928V56.009c0-4.899-2.536-7.699-7.18-7.699c-4.645,0-7.182,2.8-7.182,7.699   v15.919c0,4.9,2.538,7.698,7.182,7.698C33.018,79.626,35.554,76.828,35.554,71.928"
   id="path1728" />
	<path
   d="M48.024,59.202c0,2.448-1.077,3.235-2.839,3.235h-1.848v-9.403h2.279c1.676,0,2.408,0.964,2.408,3.148V59.202z    M53.312,79.276c-0.473-1.137-0.517-2.231-0.517-3.718v-4.722c0-3.193-0.773-5.512-3.138-6.518c2.107-1.004,3.096-3.061,3.096-6.21   v-2.405c0-4.724-2.106-7.041-7.008-7.041h-7.138v30.614h4.729V66.812h1.632c2.152,0,3.098,1.048,3.098,3.893v4.811   c0,2.493,0.171,2.972,0.43,3.76H53.312z"
   id="path1730" />
	<polygon
   points="54.46,53.034 59.405,53.034 59.405,79.276 64.135,79.276 64.135,53.034 69.079,53.034 69.079,48.662 54.46,48.662     "
   id="polygon1732" />
	<polygon
   points="75.684,66.155 81.059,66.155 81.059,79.277 85.875,79.277 85.875,48.66 81.059,48.66 81.059,61.78 75.684,61.78    75.684,48.66 70.955,48.66 70.955,79.277 75.684,79.277  "
   id="polygon1734" />
	<polygon
   points="100.709,53.034 108.877,53.034 108.877,48.662 95.979,48.662 95.979,79.276 108.877,79.276 108.877,74.901    100.709,74.901 100.709,65.937 107.2,65.937 107.2,61.562 100.709,61.562  "
   id="polygon1736" />
	<path
   d="M121.083,69.565h-4.558l2.278-15.481L121.083,69.565z M127.319,79.276l-4.816-30.614h-6.923l-4.813,30.614h4.342   l0.815-5.555h5.807l0.815,5.555H127.319z"
   id="path1738" />
	<path
   d="M128.701,56.008c0,8.747,9.242,9.927,9.242,16.227c0,2.188-0.943,2.974-2.45,2.974c-1.506,0-2.45-0.787-2.45-2.974v-2.188   h-4.472v1.88c0,4.899,2.408,7.699,7.053,7.699c4.643,0,7.05-2.799,7.05-7.699c0-8.747-9.244-9.926-9.244-16.226   c0-2.186,0.859-3.018,2.366-3.018c1.504,0,2.364,0.832,2.364,3.018v1.27h4.472v-0.963c0-4.899-2.365-7.698-6.966-7.698   S128.701,51.109,128.701,56.008"
   id="path1740" />
	<polygon
   points="144.005,53.034 148.952,53.034 148.952,79.276 153.682,79.276 153.682,53.034 158.625,53.034 158.625,48.662    144.005,48.662  "
   id="polygon1742" />
	<path
   d="M3.306,96.292c0,8.747,9.244,9.928,9.244,16.225c0,2.188-0.945,2.975-2.451,2.975s-2.45-0.786-2.45-2.975v-2.186H3.176   v1.88c0,4.899,2.409,7.697,7.053,7.697c4.643,0,7.052-2.798,7.052-7.697c0-8.748-9.245-9.929-9.245-16.226   c0-2.185,0.86-3.019,2.364-3.019c1.506,0,2.365,0.834,2.365,3.019v1.27h4.472v-0.963c0-4.898-2.365-7.698-6.966-7.698   C5.67,88.594,3.306,91.394,3.306,96.292"
   id="path1744" />
	<path
   d="M29.234,108.144v4.373c0,2.188-0.946,2.975-2.451,2.975c-1.505,0-2.451-0.786-2.451-2.975V95.986   c0-2.188,0.946-3.019,2.451-3.019c1.505,0,2.451,0.83,2.451,3.019v3.279h4.473v-2.973c0-4.898-2.409-7.698-7.053-7.698   s-7.053,2.8-7.053,7.698v15.92c0,4.899,2.409,7.698,7.053,7.698s7.053-2.799,7.053-7.698v-4.068H29.234z"
   id="path1746" />
	<path
   d="M45.831,112.519c0,2.186-0.946,3.017-2.451,3.017c-1.505,0-2.453-0.831-2.453-3.017V95.986   c0-2.188,0.948-3.019,2.453-3.019c1.504,0,2.451,0.83,2.451,3.019V112.519z M50.56,112.211V96.292c0-4.898-2.536-7.698-7.18-7.698   c-4.643,0-7.182,2.8-7.182,7.698v15.919c0,4.899,2.539,7.699,7.182,7.699C48.024,119.911,50.56,117.111,50.56,112.211"
   id="path1748" />
	<polygon
   points="52.082,93.318 57.027,93.318 57.027,119.559 61.756,119.559 61.756,93.318 66.701,93.318 66.701,88.944    52.082,88.944  "
   id="polygon1750" />
	<polygon
   points="68.696,119.559 81.208,119.559 81.208,115.187 73.425,115.187 73.425,88.944 68.696,88.944  "
   id="polygon1752" />
	<path
   d="M93.204,109.849h-4.558l2.279-15.483L93.204,109.849z M99.439,119.559l-4.814-30.615h-6.923l-4.815,30.615h4.343   l0.814-5.554h5.808l0.815,5.554H99.439z"
   id="path1754" />
	<polygon
   points="111.761,119.559 116.621,119.559 116.621,88.944 112.406,88.944 112.406,107.269 107.549,88.944 101.615,88.944    101.615,119.559 105.872,119.559 105.872,97.386  "
   id="polygon1756" />
	<path
   d="M129.45,112.212c0,2.187-0.903,2.973-2.408,2.973h-2.667V93.318h2.667c1.505,0,2.408,0.787,2.408,2.974V112.212z    M134.178,111.994V96.511c0-4.898-2.323-7.567-7.051-7.567h-7.482v30.616h7.482C131.855,119.56,134.178,116.893,134.178,111.994"
   id="path1758" />
	<path
   fill="#D1D3D4"
   d="M12.808,148.793v4.372c0,2.186-0.944,2.977-2.451,2.977c-1.504,0-2.45-0.791-2.45-2.977v-16.53   c0-2.188,0.946-3.019,2.45-3.019c1.507,0,2.451,0.83,2.451,3.019v3.279h4.473v-2.974c0-4.9-2.409-7.698-7.053-7.698   c-4.643,0-7.052,2.798-7.052,7.698v15.918c0,4.898,2.409,7.699,7.052,7.699c4.644,0,7.053-2.801,7.053-7.699v-4.065H12.808z"
   id="path1760"
   style="fill:#343a40;fill-opacity:0.82745099" />
	<path
   fill="#D1D3D4"
   d="M29.189,153.166c0,2.186-0.948,3.02-2.451,3.02c-1.505,0-2.453-0.834-2.453-3.02v-16.53   c0-2.188,0.948-3.019,2.453-3.019c1.503,0,2.451,0.83,2.451,3.019V153.166z M33.918,152.859v-15.918c0-4.9-2.536-7.698-7.18-7.698   c-4.645,0-7.182,2.798-7.182,7.698v15.918c0,4.898,2.538,7.699,7.182,7.699C31.382,160.558,33.918,157.757,33.918,152.859"
   id="path1762"
   style="fill:#343a40;fill-opacity:0.82745099" />
	<polygon
   fill="#D1D3D4"
   points="36.751,160.208 49.263,160.208 49.263,155.834 41.481,155.834 41.481,129.594 36.751,129.594  "
   id="polygon1764"
   style="fill:#343a40;fill-opacity:0.82745099" />
	<polygon
   fill="#D1D3D4"
   points="51.327,160.208 63.839,160.208 63.839,155.834 56.057,155.834 56.057,129.594 51.327,129.594  "
   id="polygon1766"
   style="fill:#343a40;fill-opacity:0.82745099" />
	<polygon
   fill="#D1D3D4"
   points="70.634,133.966 78.802,133.966 78.802,129.594 65.904,129.594 65.904,160.208 78.802,160.208    78.802,155.834 70.634,155.834 70.634,146.87 77.125,146.87 77.125,142.495 70.634,142.495  "
   id="polygon1768"
   style="fill:#343a40;fill-opacity:0.82745099" />
	<path
   fill="#D1D3D4"
   d="M88.821,147.524h2.149v5.642c0,2.186-0.945,2.975-2.45,2.975s-2.45-0.789-2.45-2.975v-16.53   c0-2.188,0.945-3.019,2.45-3.019s2.45,0.83,2.45,3.019v3.279h4.473v-2.974c0-4.9-2.408-7.698-7.052-7.698   c-4.645,0-7.051,2.798-7.051,7.698v15.918c0,4.898,2.406,7.699,7.051,7.699c4.644,0,7.052-2.801,7.052-7.699v-9.709h-6.622V147.524   z"
   id="path1770"
   style="fill:#343a40;fill-opacity:0.82745099" />
	<polygon
   fill="#D1D3D4"
   points="103.226,133.966 111.395,133.966 111.395,129.594 98.497,129.594 98.497,160.208 111.395,160.208    111.395,155.834 103.226,155.834 103.226,146.87 109.718,146.87 109.718,142.495 103.226,142.495  "
   id="polygon1772"
   style="fill:#343a40;fill-opacity:0.82745099" />
	<path
   fill="#D1D3D4"
   d="M199.648,54.516c0,0,2.819-8.836,1.061-12.268c-1.819-5.181-9.237-7.34-9.237-7.34L87.058,4.557   c0,0,168.347,7.405,178.055,7.976c9.713,0.572,12.286,6.834,12.286,6.834s3.653,6.78,0,13.407   c-4.355,7.905-83.06,119.231-89.199,127.937c-8.093,10.49-24.432-1.659-19.547-14.815"
   id="path1774" />
	<path
   fill="#8F53A1"
   d="M183.093,53.806c0,0,2.819-8.839,1.058-12.27c-1.817-5.178-9.237-7.338-9.237-7.338L70.502,3.847   c0,0,168.347,7.405,178.056,7.976c9.712,0.571,12.286,6.834,12.286,6.834s3.653,6.779,0,13.407   c-4.356,7.904-83.063,119.233-89.2,127.936c-8.093,10.491-24.434-1.659-19.546-14.815"
   id="path1776" />
	<path
   fill="#5B3E81"
   d="M260.895,32.041c3.653-6.627,0-13.404,0-13.404s-2.575-6.265-12.284-6.836   c-7.83-0.46-118.7-5.361-161.424-7.244l104.334,30.328c0,0,7.419,2.16,9.237,7.339c1.761,3.432-1.059,12.269-1.059,12.269   l-30.994,91.379c-2.03,5.471-0.387,10.76,2.801,14.325c0.06-0.076,0.126-0.142,0.189-0.22   C177.834,151.275,256.537,39.945,260.895,32.041"
   id="path1778" />
</g>
</svg>
