<?xml version="1.0" encoding="UTF-8" standalone="no"?>
<svg
   id="Layer_1"
   viewBox="0 0 73.468712 98.43"
   version="1.1"
   sodipodi:docname="Scotch.svg"
   width="73.468712"
   height="98.43"
   inkscape:version="1.2.2 (b0a8486541, 2022-12-01)"
   xmlns:inkscape="http://www.inkscape.org/namespaces/inkscape"
   xmlns:sodipodi="http://sodipodi.sourceforge.net/DTD/sodipodi-0.dtd"
   xmlns="http://www.w3.org/2000/svg"
   xmlns:svg="http://www.w3.org/2000/svg">
  <sodipodi:namedview
     id="namedview548"
     pagecolor="#505050"
     bordercolor="#eeeeee"
     borderopacity="1"
     inkscape:showpageshadow="0"
     inkscape:pageopacity="0"
     inkscape:pagecheckerboard="0"
     inkscape:deskcolor="#505050"
     showgrid="false"
     inkscape:zoom="3.919598"
     inkscape:cx="26.660897"
     inkscape:cy="58.807051"
     inkscape:window-width="1346"
     inkscape:window-height="674"
     inkscape:window-x="10"
     inkscape:window-y="43"
     inkscape:window-maximized="1"
     inkscape:current-layer="Layer_1" />
  <defs
     id="defs361">
    <style
       id="style359">.cls-1{fill:#024682;}.cls-2,.cls-3{fill:#fff;}.cls-4,.cls-5{fill:#f2a900;}.cls-6{fill:#5c1128;}.cls-5,.cls-3{fill-rule:evenodd;}</style>
  </defs>
  <g
     id="g1062"
     transform="translate(-19.222719,-50.82)">
    <g
       id="g545">
      <path
         class="cls-1"
         d="m 55.2,129.32 c -0.18,-0.14 -1.91,-1.49 -4.66,-2.45 -6.25,-2.2 -14.3,-6.01 -18.14,-10.11 -5.9,-6.3 -5.79,-12.82 -5.78,-13.09 V 50.82 c 0,0 58.66,0 58.66,0 v 52.87 c 0,0.25 0.09,6.8 -5.78,13.06 -3.85,4.11 -11.89,7.92 -18.14,10.11 -2.83,1 -4.65,2.45 -4.67,2.46 l -0.73,0.6 -0.74,-0.61 z"
         id="path389"
         style="fill:#024682" />
      <path
         class="cls-1"
         d="m 92.37,131.49 v 0 c 0,0 -0.05,-0.07 -0.08,-0.11 -0.04,-0.05 -0.06,-0.11 -0.1,-0.16 l -0.24,-0.27 c -1.47,-1.86 -4.11,-5.1 -4.91,-5.54 -1.7,-1.15 -3.41,-0.4 -8.3,3.59 -6.69,5.46 -16.05,9.28 -22.77,9.28 -6.72,0 -16.08,-3.82 -22.77,-9.28 -4.89,-4 -6.61,-4.74 -8.3,-3.59 -0.85,0.47 -3.78,4.12 -5.19,5.91 -0.02,0.02 -0.03,0.04 -0.05,0.06 -0.04,0.05 -0.08,0.1 -0.11,0.14 v 0 c -0.06,0.1 -0.12,0.21 -0.17,0.33 -0.83,2.03 1.62,4.69 7.47,8.12 -1.81,2.22 -3.25,4.42 -3.27,4.45 l -0.56,0.86 1.01,-0.2 c 3.54,-0.71 5.83,0.51 8.58,2.85 0.74,0.63 2.18,1.31 3.46,1.31 0.61,0 1.19,-0.16 1.63,-0.55 0.06,-0.06 0.11,-0.12 0.17,-0.18 v 0 c 0,0 0.03,-0.03 0.06,-0.07 0.06,-0.08 0.12,-0.15 0.17,-0.23 0.55,-0.74 2,-2.69 3.42,-4.43 2.31,0.95 4.59,1.71 6.81,2.23 2.88,0.68 5.75,0.83 7.65,0.83 1.9,0 4.74,-0.14 7.63,-0.83 2.21,-0.52 4.5,-1.28 6.8,-2.23 1.73,2.15 3.47,4.55 3.5,4.59 h 0.02 c 0.09,0.11 0.19,0.23 0.31,0.33 0.44,0.4 1.02,0.55 1.63,0.55 1.28,0 2.72,-0.68 3.46,-1.31 2.75,-2.34 5.04,-3.56 8.58,-2.85 l 1.01,0.2 -0.56,-0.86 c 0,0 -1.46,-2.23 -3.27,-4.45 4.68,-2.76 7.16,-5.02 7.55,-6.87 0.12,-0.58 0.03,-1.12 -0.27,-1.61 z"
         id="path391"
         style="fill:#024682" />
      <path
         class="cls-2"
         d="m 20.21,132.18 c 0.03,-0.07 0.07,-0.12 0.1,-0.18 1.3,-1.33 3.14,0.05 5.78,2.3 0.45,0.38 0.9,0.77 1.34,1.12 2.89,2.34 8.71,5.99 13.28,7.99 -0.87,1.07 -1.73,2.19 -2.38,3.06 -0.21,-0.65 -0.78,-1.48 -2.18,-2.32 -0.5,-0.3 -1.4,-0.79 -2.36,-1.31 -1.12,-0.61 -2.27,-1.24 -2.84,-1.6 -0.06,-0.04 -0.26,-0.14 -0.55,-0.3 -9.86,-5.21 -10.62,-7.73 -10.2,-8.77 z"
         id="path393"
         style="fill:#ffffff" />
      <path
         class="cls-2"
         d="m 33.19,147.28 c -2.33,-1.98 -4.45,-3.25 -7.23,-3.25 -0.35,0 -0.71,0.02 -1.08,0.06 0.59,-0.85 1.6,-2.26 2.75,-3.67 0.74,0.42 1.53,0.85 2.37,1.3 0.26,0.14 0.44,0.23 0.5,0.27 0.6,0.37 1.76,1.01 2.89,1.62 0.94,0.51 1.84,1 2.32,1.29 1.14,0.69 1.8,1.45 1.87,2.14 0.02,0.24 -0.03,0.44 -0.12,0.61 -0.1,0.14 -0.18,0.25 -0.22,0.31 -0.03,0.03 -0.06,0.07 -0.09,0.1 -0.92,0.83 -3.08,-0.03 -3.95,-0.77 z"
         id="path395"
         style="fill:#ffffff" />
      <path
         class="cls-2"
         d="m 63.43,145.16 c -2.8,0.66 -5.59,0.8 -7.43,0.8 -1.84,0 -4.65,-0.14 -7.45,-0.8 -2.3,-0.55 -4.69,-1.34 -7.1,-2.36 -4.56,-1.93 -10.55,-5.68 -13.48,-8.05 -0.44,-0.35 -0.88,-0.73 -1.32,-1.11 -1.7,-1.45 -3.56,-3.04 -5.2,-3.04 H 21.4 c 1.78,-2.21 3.51,-4.22 3.88,-4.41 l 0.1,-0.05 c 1.13,-0.78 2.4,-0.46 7.29,3.53 6.94,5.67 16.31,9.48 23.31,9.48 7,0 16.37,-3.81 23.31,-9.48 4.89,-4 6.16,-4.32 7.29,-3.53 l 0.09,0.05 c 0.38,0.19 2.1,2.19 3.87,4.38 h -0.03 c -1.62,0 -3.46,1.58 -5.14,3.03 -0.46,0.4 -0.92,0.8 -1.38,1.17 -2.93,2.37 -8.92,6.12 -13.48,8.05 -2.41,1.02 -4.79,1.81 -7.1,2.36 z"
         id="path397"
         style="fill:#ffffff" />
      <path
         class="cls-2"
         d="m 87.09,144.08 c -3.33,-0.37 -5.69,0.96 -8.31,3.19 -0.87,0.74 -3.03,1.6 -3.95,0.77 -0.22,-0.2 -0.48,-0.54 -0.43,-1.01 0.07,-0.69 0.73,-1.45 1.87,-2.14 0.49,-0.29 1.38,-0.78 2.32,-1.29 1.13,-0.61 2.3,-1.25 2.89,-1.62 0.06,-0.04 0.23,-0.13 0.49,-0.26 0.84,-0.45 1.63,-0.88 2.37,-1.3 1.15,1.41 2.16,2.82 2.75,3.67 z"
         id="path399"
         style="fill:#ffffff" />
      <path
         class="cls-2"
         d="m 91.8,132.92 c -0.28,1.33 -2.29,3.81 -10.24,8.03 -0.29,0.15 -0.48,0.26 -0.54,0.3 -0.57,0.36 -1.73,0.99 -2.85,1.6 -0.95,0.52 -1.85,1.01 -2.36,1.31 -1.42,0.86 -1.98,1.69 -2.18,2.35 -0.63,-0.85 -1.49,-1.98 -2.38,-3.08 4.57,-2 10.39,-5.66 13.29,-7.99 0.47,-0.38 0.94,-0.78 1.4,-1.18 2.62,-2.26 4.44,-3.63 5.73,-2.25 0.15,0.28 0.19,0.59 0.12,0.93 z"
         id="path401"
         style="fill:#ffffff" />
      <path
         class="cls-2"
         d="m 27.47,103.68 v 0 c 0,0.26 -0.11,6.45 5.55,12.48 3.74,3.99 11.65,7.73 17.8,9.89 2.88,1.01 4.72,2.44 4.92,2.6 l 0.2,0.17 0.2,-0.16 c 0.08,-0.07 1.97,-1.56 4.92,-2.6 6.15,-2.16 14.06,-5.9 17.8,-9.89 5.61,-5.98 5.56,-12.13 5.55,-12.48 v 0 -52.01 H 27.47 c 0,0 0,52.01 0,52.01 z"
         id="path403"
         style="fill:#ffffff" />
      <path
         class="cls-6"
         d="M 82.82,53.26 H 29.05 c 0,0 0,50.46 0,50.46 0,0.24 0,5.91 5.12,11.36 1.57,1.68 4.18,3.51 7.56,5.3 2.88,1.53 6.3,3.01 9.61,4.18 1.78,0.63 3.25,1.44 4.16,2.02 l 0.38,0.23 0.38,-0.22 c 0,0 2.47,-1.4 4.26,-2.03 3.32,-1.17 6.73,-2.65 9.61,-4.18 3.38,-1.79 5.99,-3.63 7.56,-5.3 5.13,-5.47 5.13,-11.03 5.12,-11.36 V 53.26 Z"
         id="path405"
         style="fill:#5c1128" />
      <g
         id="g485">
        <path
           class="cls-1"
           d="M 82.82,53.26 H 29.05 c 0,0 0,50.46 0,50.46 0,0.24 0,5.91 5.12,11.36 1.57,1.68 4.18,3.51 7.56,5.3 2.88,1.53 6.3,3.01 9.61,4.18 1.78,0.63 3.25,1.44 4.16,2.02 l 0.38,0.23 0.38,-0.22 c 0,0 2.47,-1.4 4.26,-2.03 3.32,-1.17 6.73,-2.65 9.61,-4.18 3.38,-1.79 5.99,-3.63 7.56,-5.3 5.13,-5.47 5.13,-11.03 5.12,-11.36 V 53.26 Z m -26.89,1.46 h 17.54 c 0,0 -16.78,20.79 -16.78,20.79 -0.29,0.27 -0.55,0.56 -0.76,0.89 v 0 c 0,0 0,0 0,0 -0.21,-0.33 -0.46,-0.62 -0.75,-0.88 L 38.39,54.73 h 17.55 z m -25.42,11.69 8.87,10.98 v 19.54 l -8.24,10.2 q 0.08,0.25 0,0 c -0.62,-2.02 -0.63,-3.39 -0.63,-3.43 V 66.4 Z m 38.93,52.66 c -2.81,1.5 -6.15,2.96 -9.41,4.09 -1.46,0.51 -3.3,1.48 -4.13,1.93 -0.98,-0.59 -2.4,-1.33 -4.08,-1.93 -3.25,-1.15 -6.6,-2.59 -9.41,-4.09 -0.88,-0.47 -1.7,-0.93 -2.46,-1.39 v 0 L 55.93,97.89 71.9,117.68 q 0.22,-0.13 0,0 c -0.75,0.46 -1.58,0.92 -2.46,1.39 z m 11.3,-11.9 -8.27,-10.24 V 77.39 l 8.86,-10.98 v 37.31 c 0,0.11 0.02,1.46 -0.59,3.44 z"
           id="path407"
           style="fill:#024682" />
        <g
           id="g455">
          <g
             id="g413">
            <polygon
               class="cls-2"
               points=""
               id="polygon409"
               style="fill:#ffffff" />
            <path
               class="cls-2"
               d="m 54.65,95.51 v 0.31 c -0.67,-0.39 -1.52,-0.71 -2.63,-0.99 -0.5,-0.12 -1,-0.16 -1.52,-0.16 -0.52,0 -1,0.04 -1.53,0.07 -0.61,0.05 -1.25,0.1 -1.9,0.09 -2.58,-0.05 -2.97,-0.15 -4.2,-0.74 L 42.02,93.64 V 73.97 c 0.16,0.07 0.3,0.13 0.44,0.2 0,0 0.02,0 0.03,0 v 19.15 l 0.11,0.06 c 1.24,0.7 1.8,0.94 4.39,0.99 0.67,0 1.32,-0.04 1.94,-0.08 1.03,-0.08 2,-0.15 2.9,0.07 1.22,0.31 2.12,0.66 2.81,1.14 z"
               id="path411"
               style="fill:#ffffff" />
          </g>
          <path
             class="cls-2"
             d="m 50.43,93.79 c 0.52,0 1.02,0.04 1.51,0.16 1.7,0.43 2.82,0.95 3.6,1.72 v -19.1 c -0.72,-1.08 -1.86,-1.73 -3.93,-2.24 -0.9,-0.22 -1.87,-0.15 -2.9,-0.08 -0.62,0.05 -1.27,0.1 -1.95,0.08 -2.07,-0.04 -2.63,-0.3 -3.41,-0.66 -0.14,-0.06 -0.28,-0.13 -0.44,-0.2 v 19.59 c 1.04,0.58 1.56,0.83 4.08,0.88 0.65,0.02 1.29,-0.03 1.91,-0.08 0.52,-0.04 1.03,-0.08 1.53,-0.08 z"
             id="path415"
             style="fill:#ffffff" />
          <g
             id="g427">
            <path
               class="cls-4"
               d="m 48.66,77.78 c 1.03,-0.08 2,-0.15 2.9,0.08 1.08,0.27 1.88,0.57 2.51,0.95 V 78.3 c -0.63,-0.34 -1.4,-0.62 -2.4,-0.87 -0.97,-0.24 -1.98,-0.17 -3.04,-0.09 -0.61,0.05 -1.25,0.1 -1.91,0.08 -1.46,-0.03 -2.12,-0.16 -2.67,-0.38 v 0.48 c 0.57,0.2 1.28,0.32 2.66,0.35 0.67,0 1.32,-0.04 1.95,-0.08 z"
               id="path417"
               style="fill:#f2a900" />
            <path
               class="cls-4"
               d="m 48.66,91.13 c 1.03,-0.08 2,-0.15 2.9,0.08 1.08,0.27 1.87,0.57 2.51,0.95 v -0.51 c -0.64,-0.34 -1.4,-0.62 -2.4,-0.87 -0.97,-0.24 -1.98,-0.17 -3.04,-0.09 -0.61,0.05 -1.25,0.1 -1.91,0.08 -1.45,-0.03 -2.12,-0.16 -2.67,-0.37 v 0.47 c 0.57,0.2 1.28,0.32 2.66,0.35 0.67,0 1.32,-0.04 1.95,-0.08 z"
               id="path419"
               style="fill:#f2a900" />
            <path
               class="cls-4"
               d="m 48.65,81.12 c 1.03,-0.08 2,-0.15 2.9,0.08 1.08,0.27 1.88,0.57 2.51,0.94 v -0.51 c -0.63,-0.34 -1.4,-0.62 -2.4,-0.87 -0.97,-0.24 -1.98,-0.17 -3.04,-0.09 -0.61,0.05 -1.25,0.1 -1.9,0.08 -1.45,-0.03 -2.12,-0.16 -2.67,-0.38 v 0.47 c 0.57,0.19 1.28,0.32 2.66,0.35 0.68,0 1.32,-0.04 1.94,-0.08 z"
               id="path421"
               style="fill:#f2a900" />
            <path
               class="cls-4"
               d="m 48.66,87.79 c 1.03,-0.08 2,-0.15 2.89,0.08 1.08,0.27 1.88,0.58 2.51,0.95 V 88.31 C 53.43,87.97 52.66,87.69 51.66,87.44 50.69,87.2 49.69,87.27 48.62,87.35 48,87.4 47.37,87.44 46.71,87.43 45.26,87.4 44.59,87.27 44.04,87.06 v 0.47 c 0.57,0.2 1.28,0.32 2.66,0.35 0.68,0 1.33,-0.03 1.95,-0.08 z"
               id="path423"
               style="fill:#f2a900" />
            <path
               class="cls-4"
               d="m 48.66,84.45 c 1.03,-0.08 2,-0.15 2.89,0.08 1.08,0.27 1.88,0.57 2.51,0.95 v -0.51 c -0.64,-0.34 -1.41,-0.62 -2.41,-0.87 -0.97,-0.24 -1.97,-0.17 -3.04,-0.09 -0.62,0.05 -1.25,0.09 -1.91,0.08 -1.45,-0.03 -2.11,-0.16 -2.67,-0.37 v 0.47 c 0.57,0.19 1.28,0.32 2.66,0.34 0.68,0 1.33,-0.04 1.95,-0.08 z"
               id="path425"
               style="fill:#f2a900" />
          </g>
          <path
             class="cls-2"
             d="m 51.91,95.24 c -0.9,-0.22 -1.87,-0.15 -2.9,-0.08 -0.62,0.05 -1.27,0.09 -1.95,0.08 -2.65,-0.05 -3.09,-0.16 -4.38,-0.78 L 41.59,93.89 V 74.55 c -0.14,-0.06 -0.28,-0.13 -0.44,-0.2 v 19.82 l 1.16,0.66 c 1.5,0.74 2.3,0.83 4.82,0.87 0.66,0.01 1.29,-0.04 1.91,-0.08 0.52,-0.04 1.03,-0.08 1.53,-0.08 0.5,0 1.02,0.04 1.51,0.16 0.65,0.16 1.21,0.34 1.69,0.53 V 95.84 C 53.25,95.61 52.64,95.4 51.9,95.22 Z"
             id="path429"
             style="fill:#ffffff" />
          <g
             id="g435">
            <polygon
               class="cls-2"
               points=""
               id="polygon431"
               style="fill:#ffffff" />
            <path
               class="cls-2"
               d="m 57.23,95.51 v 0.31 c 0.67,-0.39 1.52,-0.71 2.63,-0.99 0.5,-0.12 1,-0.16 1.52,-0.16 0.52,0 1,0.04 1.53,0.07 0.61,0.05 1.25,0.1 1.9,0.09 2.58,-0.05 2.97,-0.15 4.2,-0.74 l 0.85,-0.45 V 73.97 c -0.16,0.07 -0.3,0.13 -0.44,0.2 0,0 -0.02,0 -0.03,0 v 19.15 c 0,0 -0.11,0.06 -0.11,0.06 -1.24,0.7 -1.8,0.94 -4.39,0.99 -0.67,0 -1.32,-0.04 -1.94,-0.08 -1.03,-0.08 -2,-0.15 -2.9,0.07 -1.22,0.31 -2.12,0.66 -2.81,1.14 z"
               id="path433"
               style="fill:#ffffff" />
          </g>
          <path
             class="cls-2"
             d="m 62.97,93.87 c 0.61,0.05 1.25,0.1 1.91,0.08 2.52,-0.05 3.04,-0.29 4.08,-0.88 V 73.48 c -0.16,0.07 -0.3,0.14 -0.44,0.2 -0.78,0.36 -1.34,0.62 -3.41,0.66 -0.67,0.02 -1.32,-0.03 -1.95,-0.08 -1.03,-0.08 -2,-0.15 -2.9,0.08 -2.06,0.52 -3.21,1.17 -3.93,2.24 v 19.1 c 0.78,-0.77 1.9,-1.3 3.6,-1.72 0.49,-0.12 1,-0.16 1.51,-0.16 0.51,0 1,0.04 1.53,0.08 z"
             id="path437"
             style="fill:#ffffff" />
          <g
             id="g449">
            <path
               class="cls-4"
               d="m 63.22,77.78 c -1.03,-0.08 -2,-0.15 -2.9,0.08 -1.08,0.27 -1.88,0.57 -2.51,0.95 V 78.3 c 0.63,-0.34 1.4,-0.62 2.4,-0.87 0.97,-0.24 1.98,-0.17 3.04,-0.09 0.61,0.05 1.25,0.1 1.91,0.08 1.46,-0.03 2.12,-0.16 2.67,-0.38 v 0.48 c -0.57,0.2 -1.28,0.32 -2.66,0.35 -0.67,0 -1.32,-0.04 -1.95,-0.08 z"
               id="path439"
               style="fill:#f2a900" />
            <path
               class="cls-4"
               d="m 63.22,91.13 c -1.03,-0.08 -2,-0.15 -2.9,0.08 -1.08,0.27 -1.87,0.57 -2.51,0.95 v -0.51 c 0.64,-0.34 1.4,-0.62 2.4,-0.87 0.97,-0.24 1.98,-0.17 3.04,-0.09 0.61,0.05 1.25,0.1 1.91,0.08 1.45,-0.03 2.12,-0.16 2.67,-0.37 v 0.47 c -0.57,0.2 -1.28,0.32 -2.66,0.35 -0.67,0 -1.32,-0.04 -1.95,-0.08 z"
               id="path441"
               style="fill:#f2a900" />
            <path
               class="cls-4"
               d="m 63.22,81.12 c -1.03,-0.08 -2,-0.15 -2.9,0.08 -1.08,0.27 -1.88,0.57 -2.51,0.94 v -0.51 c 0.63,-0.34 1.4,-0.62 2.4,-0.87 0.97,-0.24 1.98,-0.17 3.04,-0.09 0.61,0.05 1.25,0.1 1.9,0.08 1.45,-0.03 2.12,-0.16 2.67,-0.38 v 0.47 c -0.57,0.19 -1.28,0.32 -2.66,0.35 -0.68,0 -1.32,-0.04 -1.94,-0.08 z"
               id="path443"
               style="fill:#f2a900" />
            <path
               class="cls-4"
               d="m 63.22,87.79 c -1.03,-0.08 -2,-0.15 -2.89,0.08 -1.08,0.27 -1.88,0.58 -2.51,0.95 v -0.51 c 0.63,-0.34 1.4,-0.62 2.4,-0.87 0.97,-0.24 1.97,-0.17 3.04,-0.09 0.62,0.05 1.25,0.09 1.91,0.08 1.45,-0.03 2.12,-0.16 2.67,-0.37 v 0.47 c -0.57,0.2 -1.28,0.32 -2.66,0.35 -0.68,0 -1.33,-0.03 -1.95,-0.08 z"
               id="path445"
               style="fill:#f2a900" />
            <path
               class="cls-4"
               d="m 63.22,84.45 c -1.03,-0.08 -2,-0.15 -2.89,0.08 -1.08,0.27 -1.88,0.57 -2.51,0.95 v -0.51 c 0.64,-0.34 1.41,-0.62 2.41,-0.87 0.97,-0.24 1.97,-0.17 3.04,-0.09 0.62,0.05 1.25,0.09 1.91,0.08 1.45,-0.03 2.11,-0.16 2.67,-0.37 v 0.47 c -0.57,0.19 -1.28,0.32 -2.66,0.34 -0.68,0 -1.33,-0.04 -1.95,-0.08 z"
               id="path447"
               style="fill:#f2a900" />
          </g>
          <path
             class="cls-2"
             d="m 59.97,95.24 c 0.9,-0.22 1.87,-0.15 2.9,-0.08 0.62,0.05 1.27,0.09 1.95,0.08 2.65,-0.05 3.09,-0.16 4.38,-0.78 l 1.09,-0.57 V 74.55 c 0.14,-0.06 0.28,-0.13 0.44,-0.2 v 19.82 c 0,0 -1.16,0.66 -1.16,0.66 -1.5,0.74 -2.3,0.83 -4.82,0.87 -0.66,0.01 -1.29,-0.04 -1.91,-0.08 -0.52,-0.04 -1.03,-0.08 -1.53,-0.08 -0.5,0 -1.02,0.04 -1.51,0.16 -0.65,0.16 -1.21,0.34 -1.69,0.53 v -0.39 c 0.52,-0.23 1.13,-0.44 1.87,-0.62 z"
             id="path451"
             style="fill:#ffffff" />
          <path
             class="cls-2"
             d="M 72.15,96.53 72.13,75.44 h -0.98 v 0.17 h 0.81 c 0,0 0.02,20.84 0.02,20.84 h -13.2 l -0.13,0.09 c -0.67,0.48 -1.66,0.75 -2.7,0.75 -1.04,0 -2.03,-0.27 -2.7,-0.75 l -0.13,-0.09 h -13.2 l 0.02,-20.84 h 0.81 c 0,0 0,-0.17 0,-0.17 h -0.98 c 0,0 -0.02,21.09 -0.02,21.09 v 0.09 c 0,0 13.32,0 13.32,0 l 0.09,0.06 c 0.7,0.5 1.72,0.78 2.8,0.78 1.08,0 2.1,-0.29 2.8,-0.78 l 0.09,-0.06 h 13.32 v -0.09 z"
             id="path453"
             style="fill:#ffffff" />
        </g>
        <g
           id="g469">
          <path
             class="cls-2"
             d="m 42.69,96.96 -10.42,12.91 c -0.2,-0.38 -0.37,-0.75 -0.52,-1.11 l 9.53,-11.8 h 1.42 z"
             id="path457"
             style="fill:#ffffff" />
          <path
             class="cls-2"
             d="m 52.62,96.96 -15.3,18.96 c -0.83,-0.63 -1.53,-1.25 -2.08,-1.84 -1.15,-1.22 -2.02,-2.46 -2.67,-3.63 L 43.45,96.96 h 9.16 z"
             id="path459"
             style="fill:#ffffff" />
          <path
             class="cls-2"
             d="m 54.32,97.59 -15.6,19.31 c -0.32,-0.21 -0.62,-0.43 -0.91,-0.63 L 53.25,97.15 c 0.32,0.18 0.67,0.32 1.07,0.44 z"
             id="path461"
             style="fill:#ffffff" />
          <path
             class="cls-2"
             d="M 76.8,54.73 61.43,73.77 c -0.44,0 -0.86,0.04 -1.27,0.15 -0.12,0.04 -0.24,0.07 -0.36,0.11 L 75.38,54.74 h 1.42 z"
             id="path463"
             style="fill:#ffffff" />
          <path
             class="cls-2"
             d="m 81.35,54.73 v 6.65 l -10.2,12.63 v -0.29 l -0.29,0.12 c -0.22,0.09 -0.4,0.17 -0.57,0.25 V 73.34 L 70,73.46 c -0.24,0.09 -0.43,0.18 -0.6,0.26 v -0.85 l -0.29,0.12 c -0.3,0.12 -0.54,0.22 -0.75,0.33 -0.76,0.36 -1.26,0.59 -3.24,0.62 -0.66,0 -1.3,-0.04 -1.91,-0.08 -0.35,-0.03 -0.68,-0.05 -1.02,-0.06 L 77.58,54.76 h 3.79 z"
             id="path465"
             style="fill:#ffffff" />
          <polygon
             class="cls-2"
             points="71.15,75.09 71.15,74.97 81.35,62.33 81.35,64.09 72.47,75.09 "
             id="polygon467"
             style="fill:#ffffff" />
        </g>
        <g
           id="g483">
          <polygon
             class="cls-2"
             points="30.52,64.08 30.52,62.33 40.73,74.98 40.73,75.09 39.41,75.09 "
             id="polygon471"
             style="fill:#ffffff" />
          <path
             class="cls-2"
             d="M 34.32,54.73 49.7,73.77 c -0.33,0 -0.67,0.04 -1.01,0.06 -0.62,0.04 -1.25,0.09 -1.91,0.08 C 44.8,73.87 44.3,73.64 43.54,73.29 43.32,73.18 43.08,73.08 42.79,72.96 L 42.5,72.84 v 0.85 c -0.18,-0.08 -0.37,-0.17 -0.6,-0.26 l -0.29,-0.12 v 0.75 C 41.44,73.98 41.25,73.9 41.03,73.81 l -0.28,-0.12 v 0.29 L 30.54,61.34 V 54.7 h 3.8 z"
             id="path473"
             style="fill:#ffffff" />
          <path
             class="cls-2"
             d="M 52.09,74.03 C 51.97,73.99 51.85,73.96 51.73,73.92 51.32,73.81 50.9,73.77 50.46,73.77 L 35.09,54.73 h 1.42 l 15.58,19.29 z"
             id="path475"
             style="fill:#ffffff" />
          <path
             class="cls-2"
             d="m 58.64,97.15 15.44,19.12 c -0.28,0.2 -0.59,0.41 -0.91,0.63 L 57.57,97.58 c 0.4,-0.11 0.75,-0.25 1.07,-0.44 v 0 z"
             id="path477"
             style="fill:#ffffff" />
          <path
             class="cls-2"
             d="m 68.42,96.96 10.89,13.5 c -0.66,1.16 -1.53,2.4 -2.68,3.63 -0.55,0.59 -1.24,1.2 -2.08,1.82 L 59.25,96.96 h 9.16 z"
             id="path479"
             style="fill:#ffffff" />
          <path
             class="cls-2"
             d="m 80.16,108.79 c -0.16,0.36 -0.34,0.73 -0.53,1.11 L 69.19,96.96 h 1.42 z"
             id="path481"
             style="fill:#ffffff" />
        </g>
      </g>
      <g
         id="g535">
        <path
           class="cls-1"
           d="m 28.1,130.25 -0.03,-0.13 c -0.09,-0.38 -0.07,-0.54 0.04,-0.67 0.14,-0.17 0.38,-0.19 0.59,0 0.19,0.16 0.2,0.31 0.19,0.4 0,0.13 -0.06,0.23 -0.08,0.25 -0.03,0.03 -0.03,0.06 -0.01,0.08 0.02,0.02 0.05,0 0.1,-0.06 0.19,-0.22 0.27,-0.3 0.3,-0.33 0.02,-0.02 0,-0.04 -0.01,-0.07 -0.06,-0.08 -0.15,-0.21 -0.34,-0.37 -0.4,-0.33 -0.85,-0.33 -1.12,-0.01 -0.19,0.23 -0.25,0.52 -0.15,1.04 l 0.05,0.21 c 0.08,0.38 0.01,0.55 -0.1,0.69 -0.13,0.15 -0.4,0.22 -0.66,0 -0.18,-0.15 -0.28,-0.37 -0.17,-0.63 0.03,-0.06 0.07,-0.13 0.1,-0.17 0.02,-0.02 0.04,-0.05 0.01,-0.07 -0.02,-0.02 -0.06,0 -0.1,0.05 -0.04,0.04 -0.2,0.21 -0.33,0.36 -0.05,0.06 -0.06,0.08 -0.03,0.14 0.08,0.16 0.19,0.29 0.36,0.43 0.15,0.13 0.33,0.24 0.55,0.27 0.32,0.04 0.55,-0.11 0.69,-0.27 0.23,-0.27 0.26,-0.57 0.14,-1.13 z"
           id="path487"
           style="fill:#024682" />
        <path
           class="cls-1"
           d="m 30.35,130.78 c 0,0 0.06,0.04 0.09,0.06 0.03,0.02 0.05,0.03 0.07,0.01 0.01,-0.02 0,-0.04 -0.04,-0.07 -0.11,-0.09 -0.29,-0.22 -0.36,-0.28 -0.08,-0.07 -0.26,-0.23 -0.37,-0.32 -0.05,-0.04 -0.07,-0.05 -0.09,-0.03 -0.02,0.02 0,0.04 0.02,0.07 0.03,0.03 0.07,0.06 0.09,0.1 0.05,0.07 0.04,0.14 -0.04,0.24 -0.07,0.1 -0.14,0.18 -0.5,0.61 l -0.42,0.5 c -0.23,0.28 -0.42,0.51 -0.54,0.61 -0.08,0.08 -0.14,0.11 -0.2,0.07 -0.03,-0.02 -0.07,-0.04 -0.11,-0.08 -0.03,-0.03 -0.05,-0.03 -0.07,-0.02 -0.02,0.02 0,0.05 0.03,0.08 0.11,0.1 0.3,0.24 0.37,0.29 0.08,0.07 0.25,0.23 0.44,0.38 0.03,0.03 0.06,0.04 0.08,0.02 0.01,-0.01 0,-0.04 -0.03,-0.06 -0.04,-0.04 -0.1,-0.09 -0.14,-0.13 -0.08,-0.08 -0.05,-0.15 0,-0.24 0.09,-0.13 0.28,-0.36 0.52,-0.64 l 0.42,-0.51 c 0.37,-0.44 0.43,-0.52 0.52,-0.6 0.09,-0.1 0.15,-0.12 0.24,-0.07 z"
           id="path489"
           style="fill:#024682" />
        <path
           class="cls-1"
           d="m 31.22,131.83 c 0.22,-0.02 0.44,0.04 0.7,0.24 0.28,0.21 0.45,0.46 0.47,0.64 0.02,0.13 -0.02,0.27 -0.09,0.36 -0.03,0.04 -0.04,0.07 -0.02,0.09 0.03,0.02 0.05,0 0.09,-0.04 0.05,-0.06 0.17,-0.22 0.25,-0.32 0.08,-0.1 0.12,-0.13 0.14,-0.15 0.01,-0.02 0.01,-0.04 -0.02,-0.07 -0.08,-0.08 -0.16,-0.18 -0.26,-0.28 -0.12,-0.12 -0.23,-0.22 -0.41,-0.36 -0.45,-0.34 -0.82,-0.43 -1.18,-0.39 -0.49,0.05 -0.81,0.35 -0.97,0.56 -0.22,0.29 -0.39,0.68 -0.29,1.16 0.09,0.44 0.37,0.79 0.78,1.1 0.19,0.14 0.43,0.29 0.59,0.34 0.07,0.02 0.09,0.01 0.14,-0.03 0.11,-0.08 0.34,-0.31 0.37,-0.35 0.02,-0.02 0.03,-0.05 0,-0.07 -0.02,-0.02 -0.04,-0.01 -0.08,0.03 -0.05,0.05 -0.16,0.1 -0.25,0.12 -0.22,0.05 -0.41,-0.04 -0.67,-0.25 -0.4,-0.3 -0.68,-1.06 -0.14,-1.77 0.22,-0.29 0.49,-0.53 0.86,-0.57 z"
           id="path491"
           style="fill:#024682" />
        <path
           class="cls-1"
           d="m 35.17,134.25 c 0,0 0.06,0.03 0.1,0.05 0.04,0.03 0.06,0.03 0.07,0.01 0.01,-0.02 0,-0.04 -0.05,-0.07 -0.12,-0.08 -0.32,-0.2 -0.36,-0.23 0,0 -0.19,-0.14 -0.35,-0.25 -0.04,-0.03 -0.07,-0.04 -0.08,-0.02 -0.01,0.02 0,0.04 0.03,0.06 0.03,0.02 0.08,0.06 0.11,0.08 0.09,0.09 0.08,0.16 0.01,0.27 -0.06,0.1 -0.12,0.19 -0.44,0.66 l -0.26,0.39 c -0.22,0.32 -0.41,0.59 -0.7,0.65 -0.21,0.04 -0.4,-0.03 -0.54,-0.12 -0.11,-0.07 -0.24,-0.18 -0.3,-0.39 -0.07,-0.23 -0.03,-0.48 0.27,-0.93 l 0.29,-0.43 c 0.32,-0.47 0.38,-0.56 0.45,-0.65 0.08,-0.1 0.14,-0.14 0.23,-0.1 0.04,0.02 0.06,0.03 0.1,0.05 0.03,0.02 0.05,0.03 0.07,0 0.01,-0.02 0,-0.04 -0.05,-0.07 -0.11,-0.08 -0.31,-0.2 -0.39,-0.25 -0.09,-0.06 -0.28,-0.2 -0.45,-0.32 -0.05,-0.03 -0.07,-0.04 -0.09,-0.02 -0.01,0.02 0,0.04 0.03,0.06 0.04,0.03 0.09,0.07 0.11,0.09 0.09,0.09 0.08,0.16 0.01,0.27 -0.06,0.1 -0.12,0.19 -0.44,0.66 l -0.31,0.45 c -0.3,0.45 -0.34,0.76 -0.28,1.01 0.09,0.36 0.38,0.57 0.54,0.68 0.2,0.14 0.45,0.25 0.8,0.21 0.41,-0.05 0.69,-0.39 0.92,-0.74 l 0.22,-0.33 c 0.32,-0.47 0.38,-0.56 0.45,-0.65 0.08,-0.1 0.14,-0.14 0.23,-0.1 z"
           id="path493"
           style="fill:#024682" />
        <path
           class="cls-1"
           d="m 37.48,135.47 c 0,0 -0.12,-0.03 -0.33,-0.15 l -1.28,-0.74 c -0.11,-0.06 -0.23,-0.14 -0.31,-0.2 -0.08,-0.05 -0.09,-0.1 -0.12,-0.12 -0.02,-0.01 -0.04,0 -0.07,0.04 -0.02,0.02 -0.25,0.28 -0.28,0.33 -0.02,0.04 -0.02,0.06 0,0.07 0.02,0.01 0.04,0 0.06,-0.02 0.02,-0.02 0.06,-0.05 0.12,-0.08 0.09,-0.04 0.18,-0.01 0.37,0.09 l 0.49,0.27 -0.77,1.33 c -0.17,0.3 -0.32,0.55 -0.42,0.68 -0.06,0.09 -0.12,0.15 -0.2,0.12 -0.03,-0.01 -0.08,-0.03 -0.12,-0.05 -0.04,-0.02 -0.06,-0.02 -0.07,0 -0.01,0.02 0,0.05 0.05,0.07 0.13,0.08 0.34,0.18 0.41,0.23 0.09,0.05 0.29,0.18 0.5,0.3 0.04,0.02 0.07,0.03 0.08,0 0,-0.02 0,-0.04 -0.04,-0.06 -0.05,-0.03 -0.12,-0.08 -0.16,-0.11 -0.09,-0.07 -0.07,-0.15 -0.03,-0.25 0.06,-0.15 0.21,-0.4 0.38,-0.7 l 0.77,-1.33 0.4,0.25 c 0.29,0.17 0.32,0.31 0.28,0.4 l -0.02,0.04 c -0.03,0.05 -0.03,0.07 0,0.09 0.02,0.01 0.04,0 0.06,-0.04 0.05,-0.08 0.19,-0.3 0.23,-0.37 0.03,-0.05 0.04,-0.07 0.01,-0.08 z"
           id="path495"
           style="fill:#024682" />
        <path
           class="cls-1"
           d="m 40.08,137.73 c 0.1,-0.17 0.09,-0.37 0.05,-0.48 -0.03,-0.08 -0.1,-0.3 -0.51,-0.52 -0.15,-0.08 -0.35,-0.18 -0.48,-0.25 -0.09,-0.05 -0.29,-0.17 -0.47,-0.27 -0.05,-0.03 -0.08,-0.03 -0.09,-0.01 -0.01,0.02 0,0.04 0.04,0.06 0.05,0.03 0.1,0.06 0.12,0.08 0.1,0.08 0.09,0.15 0.04,0.27 -0.05,0.11 -0.1,0.2 -0.38,0.7 l -0.32,0.58 c -0.17,0.3 -0.31,0.56 -0.4,0.69 -0.07,0.09 -0.12,0.15 -0.19,0.13 -0.03,0 -0.08,-0.02 -0.13,-0.05 -0.04,-0.02 -0.06,-0.02 -0.07,0 -0.01,0.02 0,0.05 0.05,0.07 0.13,0.07 0.34,0.18 0.42,0.22 0.09,0.05 0.29,0.17 0.5,0.29 0.04,0.02 0.07,0.02 0.08,0 0,-0.02 0,-0.04 -0.04,-0.06 -0.05,-0.03 -0.12,-0.07 -0.16,-0.11 -0.09,-0.07 -0.07,-0.15 -0.03,-0.25 0.06,-0.15 0.21,-0.41 0.37,-0.71 l 0.73,-1.31 c 0,0 0.04,-0.05 0.06,-0.05 0.04,0 0.09,0.03 0.14,0.06 0.08,0.04 0.2,0.14 0.26,0.31 0.09,0.27 -0.02,0.49 -0.08,0.6 -0.19,0.33 -0.55,0.4 -0.74,0.3 -0.07,-0.04 -0.1,-0.04 -0.11,-0.02 -0.01,0.02 0,0.04 0.02,0.05 0.01,0.01 0.05,0.03 0.07,0.04 0.46,0.26 0.99,0.12 1.24,-0.35 z"
           id="path497"
           style="fill:#024682" />
        <path
           class="cls-1"
           d="m 41.38,140.68 c -0.06,-0.05 -0.14,-0.15 -0.12,-0.51 0.03,-0.62 0.16,-2.25 0.17,-2.48 0,-0.09 0,-0.13 -0.03,-0.15 -0.03,-0.02 -0.07,0.01 -0.16,0.09 l -1.88,1.7 c -0.15,0.14 -0.27,0.22 -0.43,0.16 -0.03,-0.01 -0.08,-0.03 -0.11,-0.04 -0.03,-0.01 -0.04,-0.01 -0.05,0 -0.01,0.03 0,0.04 0.05,0.06 0.17,0.09 0.36,0.17 0.4,0.18 0.1,0.05 0.24,0.13 0.35,0.18 0.04,0.02 0.06,0.02 0.07,0 0,-0.02 0,-0.03 -0.04,-0.05 l -0.05,-0.02 c -0.1,-0.05 -0.11,-0.11 -0.08,-0.17 0.02,-0.04 0.08,-0.11 0.15,-0.18 l 0.42,-0.39 c 0,0 0.03,-0.02 0.04,-0.01 l 0.75,0.37 c 0,0 0.02,0.02 0.02,0.04 l -0.08,0.84 c 0,0 -0.04,0.07 -0.07,0.06 -0.04,-0.01 -0.05,-0.01 -0.06,0 -0.01,0.02 0.03,0.04 0.09,0.08 0.27,0.14 0.51,0.26 0.63,0.32 0.12,0.06 0.16,0.07 0.17,0.04 0.01,-0.02 0,-0.04 -0.03,-0.05 -0.04,-0.02 -0.09,-0.05 -0.13,-0.08 z m -0.5,-1.47 c 0,0 0,0.02 -0.03,0.01 l -0.62,-0.3 c 0,0 -0.01,-0.02 0,-0.03 l 0.71,-0.68 c 0,0 0.02,-0.03 0.03,-0.02 0.01,0 0,0.02 0,0.04 l -0.1,0.98 z"
           id="path499"
           style="fill:#024682" />
        <path
           class="cls-1"
           d="m 44.27,139.36 v 0.04 c -0.03,0.05 -0.03,0.07 0,0.09 0.02,0 0.04,-0.01 0.05,-0.04 0.04,-0.09 0.14,-0.33 0.17,-0.4 0.02,-0.05 0.03,-0.07 0,-0.08 -0.03,-0.01 -0.13,0 -0.35,-0.1 l -1.37,-0.56 c -0.11,-0.05 -0.24,-0.11 -0.34,-0.16 -0.08,-0.04 -0.1,-0.09 -0.13,-0.1 -0.02,0 -0.04,0 -0.07,0.05 -0.02,0.03 -0.21,0.31 -0.23,0.37 -0.02,0.04 -0.02,0.06 0,0.07 0.02,0 0.04,0 0.05,-0.03 0.02,-0.03 0.05,-0.06 0.11,-0.1 0.08,-0.06 0.17,-0.04 0.38,0.04 l 0.52,0.19 -0.57,1.42 c -0.13,0.32 -0.24,0.59 -0.32,0.73 -0.05,0.1 -0.1,0.16 -0.18,0.15 -0.03,0 -0.08,-0.02 -0.13,-0.04 -0.04,-0.02 -0.06,-0.01 -0.07,0 0,0.02 0.01,0.04 0.06,0.06 0.14,0.06 0.36,0.13 0.44,0.17 0.1,0.04 0.31,0.14 0.54,0.23 0.04,0.02 0.07,0.02 0.08,0 0,-0.02 0,-0.03 -0.04,-0.05 -0.05,-0.02 -0.13,-0.06 -0.17,-0.09 -0.1,-0.06 -0.09,-0.14 -0.06,-0.24 0.04,-0.16 0.15,-0.43 0.28,-0.75 l 0.58,-1.42 0.43,0.19 c 0.31,0.13 0.36,0.27 0.33,0.36 z"
           id="path501"
           style="fill:#024682" />
        <path
           class="cls-1"
           d="m 48.19,140.3 c 0,0 0.06,0.01 0.07,-0.02 0,-0.02 -0.02,-0.04 -0.07,-0.05 -0.14,-0.04 -0.35,-0.1 -0.44,-0.12 -0.1,-0.03 -0.33,-0.11 -0.46,-0.15 -0.06,-0.02 -0.09,-0.02 -0.09,0 0,0.03 0.01,0.04 0.05,0.05 0.04,0.01 0.09,0.03 0.12,0.05 0.07,0.04 0.09,0.11 0.06,0.24 -0.03,0.12 -0.06,0.22 -0.22,0.76 l -0.19,0.63 c -0.11,0.35 -0.19,0.63 -0.26,0.77 -0.04,0.1 -0.08,0.15 -0.16,0.15 -0.03,0 -0.08,0 -0.13,-0.03 -0.03,0 -0.03,0 -0.04,0 -0.02,0 -0.03,-0.01 -0.05,-0.02 -0.05,-0.03 -0.19,-0.1 -0.31,-0.38 -0.13,-0.29 -0.27,-0.69 -0.45,-1.2 0.46,-0.17 0.65,-0.37 0.74,-0.63 0.08,-0.24 0,-0.47 -0.07,-0.57 -0.15,-0.2 -0.38,-0.3 -0.6,-0.38 -0.11,-0.04 -0.38,-0.12 -0.5,-0.16 -0.07,-0.03 -0.29,-0.11 -0.48,-0.18 -0.05,-0.02 -0.08,-0.02 -0.09,0 0,0.02 0.01,0.04 0.05,0.05 0.05,0.02 0.11,0.04 0.13,0.06 0.11,0.07 0.12,0.13 0.08,0.25 -0.03,0.12 -0.07,0.21 -0.25,0.75 l -0.21,0.62 c -0.11,0.33 -0.21,0.61 -0.28,0.75 -0.05,0.1 -0.09,0.17 -0.17,0.16 -0.03,0 -0.08,-0.01 -0.13,-0.03 -0.04,-0.02 -0.06,0 -0.07,0 0,0.03 0.01,0.04 0.06,0.06 0.14,0.05 0.37,0.11 0.44,0.14 0.05,0.02 0.31,0.12 0.52,0.19 0.05,0.02 0.07,0.01 0.08,-0.01 0,-0.02 0,-0.03 -0.03,-0.04 -0.04,-0.02 -0.12,-0.05 -0.17,-0.07 -0.1,-0.05 -0.1,-0.14 -0.07,-0.24 0.03,-0.15 0.13,-0.43 0.24,-0.76 l 0.02,-0.05 c 0,0 0.02,-0.03 0.04,-0.02 l 0.31,0.11 c 0,0 0.04,0.02 0.05,0.05 0.03,0.07 0.11,0.37 0.18,0.61 0.1,0.34 0.18,0.55 0.31,0.69 0.07,0.08 0.16,0.13 0.36,0.2 l 0.34,0.12 c 0,0 0.05,0 0.06,0 0.14,0.04 0.35,0.1 0.43,0.12 0.1,0.03 0.32,0.11 0.56,0.18 0.04,0.01 0.07,0.01 0.08,-0.01 0,-0.02 0,-0.03 -0.05,-0.05 -0.05,-0.02 -0.13,-0.05 -0.18,-0.07 -0.1,-0.05 -0.11,-0.12 -0.09,-0.22 0.03,-0.16 0.12,-0.44 0.23,-0.79 l 0.19,-0.63 c 0.17,-0.54 0.2,-0.64 0.24,-0.76 0.05,-0.12 0.09,-0.18 0.19,-0.16 0.05,0 0.07,0.01 0.11,0.02 z m -2.98,0.54 c -0.09,-0.03 -0.19,-0.08 -0.26,-0.13 -0.02,-0.02 -0.02,-0.04 0,-0.07 l 0.37,-1.08 c 0,0 0.02,-0.04 0.05,-0.04 0.04,0 0.1,0.02 0.19,0.05 0.21,0.07 0.49,0.33 0.32,0.83 -0.1,0.29 -0.26,0.42 -0.39,0.46 -0.08,0.02 -0.13,0.02 -0.27,-0.03 z"
           id="path503"
           style="fill:#024682" />
        <path
           class="cls-1"
           d="m 49.51,140.57 c -0.12,-0.03 -0.27,-0.05 -0.45,-0.08 -0.07,-0.02 -0.3,-0.08 -0.5,-0.12 -0.06,-0.01 -0.08,0 -0.09,0.02 0,0.03 0.01,0.04 0.06,0.05 0.05,0.01 0.11,0.03 0.14,0.04 0.12,0.05 0.13,0.12 0.11,0.24 -0.02,0.12 -0.04,0.22 -0.16,0.78 l -0.14,0.64 c -0.07,0.34 -0.13,0.63 -0.18,0.78 -0.04,0.1 -0.07,0.18 -0.15,0.18 -0.03,0 -0.08,0 -0.13,-0.01 -0.04,0 -0.06,0 -0.06,0.02 0,0.03 0.02,0.04 0.07,0.05 0.15,0.03 0.38,0.07 0.46,0.09 0.11,0.02 0.44,0.12 0.53,0.14 0.67,0.14 1.06,-0.2 1.15,-0.59 0.09,-0.43 -0.22,-0.77 -0.5,-0.93 0.24,-0.12 0.45,-0.26 0.51,-0.56 0.04,-0.19 0,-0.57 -0.66,-0.71 z m 0.17,2.28 c -0.08,0.38 -0.38,0.41 -0.54,0.37 -0.08,-0.02 -0.17,-0.04 -0.26,-0.1 -0.11,-0.07 -0.1,-0.14 -0.05,-0.38 l 0.18,-0.87 c 0,0 0.01,-0.02 0.03,-0.02 0.06,0.01 0.09,0.02 0.16,0.04 0.14,0.04 0.22,0.08 0.29,0.15 0.24,0.25 0.25,0.58 0.2,0.8 z m 0.08,-1.48 c -0.04,0.18 -0.12,0.3 -0.23,0.36 -0.07,0.04 -0.16,0.04 -0.28,0.01 -0.08,-0.02 -0.14,-0.03 -0.17,-0.05 -0.01,0 -0.02,-0.02 -0.02,-0.05 l 0.19,-0.9 c 0,0 0.02,-0.05 0.05,-0.06 0.04,0 0.07,0 0.12,0.02 0.31,0.07 0.39,0.42 0.34,0.66 z"
           id="path505"
           style="fill:#024682" />
        <path
           class="cls-1"
           d="m 53.15,141.2 c 0,0 -0.24,-0.04 -0.42,-0.07 -0.05,0 -0.08,0 -0.08,0.02 0,0.02 0.02,0.04 0.06,0.04 0.04,0 0.1,0.02 0.13,0.03 0.12,0.04 0.14,0.11 0.13,0.23 0,0.12 -0.02,0.22 -0.1,0.79 l -0.06,0.46 c -0.05,0.38 -0.11,0.71 -0.34,0.89 -0.17,0.13 -0.38,0.15 -0.54,0.13 -0.13,-0.02 -0.29,-0.06 -0.44,-0.22 -0.16,-0.17 -0.24,-0.41 -0.16,-0.95 l 0.07,-0.52 c 0.08,-0.56 0.09,-0.67 0.12,-0.79 0.03,-0.13 0.06,-0.19 0.17,-0.19 0.05,0 0.07,0 0.11,0 0.04,0 0.06,0 0.06,-0.03 0,-0.03 -0.02,-0.04 -0.08,-0.05 -0.13,-0.02 -0.37,-0.04 -0.46,-0.05 -0.11,-0.02 -0.34,-0.06 -0.54,-0.09 -0.06,0 -0.08,0 -0.09,0.02 0,0.03 0.02,0.04 0.06,0.04 0.05,0 0.11,0.02 0.14,0.03 0.12,0.04 0.14,0.11 0.13,0.23 0,0.12 -0.02,0.22 -0.1,0.79 l -0.08,0.54 c -0.08,0.54 0.03,0.83 0.19,1.03 0.24,0.28 0.59,0.34 0.79,0.37 0.24,0.03 0.51,0.03 0.81,-0.16 0.35,-0.22 0.45,-0.65 0.51,-1.07 l 0.06,-0.4 c 0.08,-0.56 0.09,-0.67 0.12,-0.78 0.03,-0.13 0.06,-0.19 0.17,-0.19 0.05,0 0.07,0 0.11,0 0.04,0 0.07,0 0.07,-0.02 0,-0.03 -0.02,-0.04 -0.07,-0.04 -0.14,-0.02 -0.38,-0.04 -0.42,-0.05 z"
           id="path507"
           style="fill:#024682" />
        <path
           class="cls-1"
           d="m 54.71,141.36 c 0.24,0.01 0.35,0.13 0.4,0.2 0.07,0.1 0.09,0.22 0.08,0.25 0,0.05 0,0.07 0.03,0.07 0.03,0 0.04,-0.03 0.05,-0.11 0.02,-0.29 0.04,-0.4 0.04,-0.45 0,-0.03 -0.02,-0.04 -0.05,-0.05 -0.1,-0.03 -0.25,-0.08 -0.49,-0.09 -0.52,-0.03 -0.88,0.25 -0.9,0.66 -0.02,0.3 0.11,0.57 0.51,0.92 l 0.16,0.14 c 0.3,0.26 0.34,0.43 0.34,0.62 -0.01,0.2 -0.19,0.42 -0.52,0.4 -0.23,-0.01 -0.45,-0.12 -0.51,-0.41 -0.02,-0.06 -0.03,-0.14 -0.02,-0.19 0,-0.03 0,-0.06 -0.03,-0.07 -0.03,0 -0.04,0.04 -0.05,0.09 0,0.06 -0.03,0.28 -0.04,0.49 0,0.08 0,0.1 0.06,0.13 0.16,0.08 0.32,0.11 0.54,0.13 0.2,0.01 0.41,-0.01 0.6,-0.12 0.28,-0.16 0.37,-0.41 0.39,-0.63 0.02,-0.36 -0.13,-0.61 -0.56,-0.99 l -0.1,-0.08 c -0.3,-0.25 -0.38,-0.39 -0.37,-0.56 0.01,-0.22 0.19,-0.38 0.46,-0.36 z"
           id="path509"
           style="fill:#024682" />
        <path
           class="cls-1"
           d="m 57.74,142.34 -0.11,-0.07 c -0.32,-0.22 -0.42,-0.35 -0.42,-0.52 -0.01,-0.22 0.15,-0.39 0.42,-0.41 0.24,-0.01 0.36,0.09 0.42,0.16 0.08,0.09 0.11,0.21 0.11,0.24 0,0.05 0.02,0.07 0.04,0.07 0.03,0 0.04,-0.03 0.04,-0.11 -0.01,-0.29 0,-0.4 0,-0.45 0,-0.03 -0.02,-0.04 -0.05,-0.04 -0.1,-0.02 -0.26,-0.05 -0.5,-0.04 -0.52,0.03 -0.85,0.34 -0.83,0.75 0.02,0.3 0.17,0.56 0.6,0.86 l 0.18,0.13 c 0.32,0.22 0.39,0.4 0.4,0.58 0.01,0.2 -0.14,0.43 -0.48,0.45 -0.23,0.01 -0.46,-0.08 -0.55,-0.35 -0.02,-0.06 -0.04,-0.14 -0.04,-0.19 0,-0.03 0,-0.06 -0.04,-0.06 -0.03,0 -0.04,0.04 -0.04,0.1 0,0.06 0,0.29 0,0.49 0,0.08 0.02,0.1 0.08,0.12 0.16,0.06 0.33,0.08 0.55,0.07 0.2,-0.01 0.41,-0.06 0.59,-0.18 0.26,-0.19 0.33,-0.45 0.32,-0.67 -0.02,-0.36 -0.2,-0.6 -0.66,-0.92 z"
           id="path511"
           style="fill:#024682" />
        <path
           class="cls-1"
           d="m 59.9,143.8 c -0.11,0 -0.15,-0.07 -0.17,-0.17 -0.03,-0.16 -0.06,-0.45 -0.1,-0.81 l -0.07,-0.66 c -0.06,-0.57 -0.07,-0.67 -0.08,-0.79 0,-0.13 0.02,-0.2 0.12,-0.23 0.04,-0.01 0.07,-0.02 0.11,-0.02 0.04,0 0.06,-0.01 0.06,-0.04 0,-0.02 -0.03,-0.03 -0.08,-0.02 -0.14,0.02 -0.36,0.05 -0.45,0.06 -0.11,0.01 -0.34,0.02 -0.49,0.04 -0.06,0 -0.09,0.02 -0.09,0.04 0,0.03 0.03,0.03 0.06,0.03 0.04,0 0.09,0 0.14,0 0.08,0.01 0.13,0.07 0.15,0.19 0.02,0.12 0.03,0.22 0.09,0.79 l 0.07,0.65 c 0.04,0.36 0.07,0.66 0.07,0.81 0,0.11 -0.02,0.17 -0.09,0.2 -0.03,0.01 -0.08,0.02 -0.13,0.03 -0.04,0 -0.06,0.02 -0.06,0.04 0,0.03 0.03,0.03 0.08,0.03 0.15,-0.02 0.38,-0.05 0.47,-0.06 0.1,-0.01 0.34,-0.02 0.58,-0.05 0.04,0 0.07,-0.02 0.07,-0.04 0,-0.02 -0.02,-0.03 -0.06,-0.02 -0.06,0 -0.14,0 -0.19,0 z"
           id="path513"
           style="fill:#024682" />
        <path
           class="cls-1"
           d="m 62.34,140.6 c 0,0 -0.11,0.06 -0.35,0.1 l -1.46,0.26 c -0.12,0.02 -0.26,0.04 -0.37,0.05 -0.09,0 -0.14,-0.02 -0.17,-0.02 -0.02,0 -0.03,0.03 -0.03,0.08 0,0.03 -0.01,0.38 0,0.44 0,0.04 0.02,0.06 0.04,0.05 0.02,0 0.03,-0.02 0.03,-0.05 0,-0.03 0.01,-0.08 0.04,-0.14 0.04,-0.09 0.13,-0.12 0.34,-0.17 l 0.55,-0.11 0.27,1.51 c 0.06,0.34 0.11,0.63 0.12,0.79 0,0.11 0,0.19 -0.07,0.22 -0.03,0.01 -0.07,0.03 -0.13,0.04 -0.04,0 -0.06,0.02 -0.05,0.04 0,0.03 0.03,0.03 0.08,0.02 0.15,-0.03 0.38,-0.08 0.46,-0.09 0.1,-0.02 0.34,-0.05 0.58,-0.09 0.04,0 0.07,-0.02 0.06,-0.05 0,-0.02 -0.02,-0.03 -0.06,-0.02 -0.06,0 -0.14,0.02 -0.19,0.02 -0.11,0 -0.15,-0.07 -0.18,-0.17 -0.05,-0.16 -0.1,-0.45 -0.16,-0.79 l -0.27,-1.51 0.47,-0.07 c 0.33,-0.05 0.45,0.04 0.47,0.13 v 0.04 c 0.02,0.05 0.04,0.07 0.06,0.07 0.02,0 0.03,-0.03 0.02,-0.07 -0.02,-0.1 -0.05,-0.35 -0.06,-0.43 0,-0.06 -0.02,-0.08 -0.04,-0.07 z"
           id="path515"
           style="fill:#024682" />
        <path
           class="cls-1"
           d="m 66.04,139.98 c -0.52,-0.29 -1.11,-0.11 -1.56,0.03 -0.21,0.07 -0.44,0.15 -0.55,0.18 -0.1,0.03 -0.33,0.09 -0.52,0.15 -0.05,0.02 -0.08,0.03 -0.07,0.06 0,0.03 0.03,0.03 0.07,0.01 0.05,-0.02 0.11,-0.03 0.14,-0.03 0.13,-0.01 0.17,0.04 0.22,0.16 0.04,0.11 0.07,0.21 0.24,0.76 l 0.19,0.63 c 0.1,0.33 0.19,0.61 0.21,0.77 0.02,0.11 0.02,0.19 -0.04,0.23 -0.03,0.02 -0.07,0.04 -0.12,0.05 -0.04,0.01 -0.05,0.03 -0.05,0.05 0,0.03 0.04,0.03 0.08,0.01 0.14,-0.04 0.37,-0.12 0.45,-0.15 0.18,-0.06 0.51,-0.11 0.78,-0.19 0.66,-0.2 0.96,-0.57 1.07,-0.79 0.14,-0.27 0.22,-0.67 0.08,-1.12 -0.13,-0.43 -0.39,-0.67 -0.62,-0.8 z m 0.15,2.04 c -0.16,0.25 -0.38,0.4 -0.74,0.51 -0.28,0.09 -0.45,0.05 -0.51,0 -0.04,-0.03 -0.09,-0.17 -0.12,-0.26 -0.02,-0.07 -0.11,-0.34 -0.23,-0.72 l -0.14,-0.45 c -0.09,-0.28 -0.18,-0.59 -0.21,-0.72 -0.01,-0.04 0,-0.06 0.02,-0.09 0.02,-0.02 0.15,-0.07 0.22,-0.1 0.28,-0.09 0.7,-0.17 1.13,0.05 0.2,0.1 0.48,0.34 0.62,0.79 0.11,0.37 0.14,0.72 -0.03,0.98 z"
           id="path517"
           style="fill:#024682" />
        <path
           class="cls-1"
           d="m 68.94,140.82 c 0,0 -0.03,0.03 -0.02,0.07 0.03,0.15 0.02,0.24 -0.05,0.32 -0.07,0.08 -0.22,0.14 -0.31,0.17 -0.35,0.14 -0.43,0.11 -0.53,-0.12 -0.04,-0.1 -0.17,-0.42 -0.22,-0.54 l -0.11,-0.27 c 0,0 0,-0.04 0,-0.04 0.08,-0.03 0.43,-0.17 0.5,-0.19 0.13,-0.04 0.2,0 0.25,0.06 0.03,0.04 0.05,0.09 0.06,0.12 0,0.02 0.02,0.03 0.04,0.02 0.03,-0.01 0.02,-0.05 0,-0.08 -0.01,-0.02 -0.06,-0.17 -0.08,-0.24 -0.06,-0.18 -0.07,-0.24 -0.07,-0.27 0,-0.02 -0.02,-0.02 -0.04,-0.02 -0.02,0 -0.02,0.03 -0.04,0.07 -0.02,0.05 -0.07,0.08 -0.15,0.12 -0.08,0.04 -0.48,0.2 -0.55,0.23 -0.02,0 -0.03,0 -0.04,-0.03 l -0.36,-0.88 c 0,0 0,-0.04 0.01,-0.04 0.07,-0.03 0.44,-0.17 0.5,-0.19 0.18,-0.05 0.23,-0.02 0.28,0.03 0.03,0.03 0.06,0.09 0.07,0.12 0.01,0.03 0.03,0.05 0.05,0.04 0.02,0 0.02,-0.03 0.02,-0.05 -0.01,-0.04 -0.06,-0.2 -0.08,-0.24 -0.05,-0.16 -0.05,-0.21 -0.06,-0.24 0,-0.02 -0.02,-0.03 -0.03,-0.02 -0.02,0 -0.03,0.03 -0.05,0.04 -0.03,0.02 -0.08,0.05 -0.14,0.08 -0.07,0.03 -0.76,0.31 -0.87,0.35 -0.1,0.04 -0.32,0.12 -0.5,0.19 -0.05,0.02 -0.07,0.04 -0.06,0.06 0,0.02 0.03,0.02 0.07,0 0.05,-0.02 0.11,-0.04 0.14,-0.04 0.12,-0.02 0.17,0.02 0.23,0.14 0.05,0.11 0.09,0.21 0.3,0.73 l 0.25,0.61 c 0.13,0.32 0.24,0.59 0.28,0.75 0.03,0.11 0.04,0.19 -0.02,0.23 -0.03,0.02 -0.07,0.04 -0.12,0.06 -0.04,0.02 -0.05,0.03 -0.04,0.05 0,0.02 0.04,0.03 0.08,0 0.14,-0.06 0.35,-0.15 0.43,-0.19 0.2,-0.08 0.45,-0.16 0.97,-0.37 0.13,-0.05 0.16,-0.07 0.15,-0.17 -0.01,-0.08 -0.08,-0.32 -0.11,-0.4 -0.01,-0.04 -0.03,-0.06 -0.05,-0.05 z"
           id="path519"
           style="fill:#024682" />
        <path
           class="cls-1"
           d="m 71.17,138.58 c -0.23,-0.52 -0.27,-0.62 -0.32,-0.73 -0.05,-0.12 -0.05,-0.19 0.04,-0.25 0.04,-0.03 0.06,-0.04 0.1,-0.05 0.04,-0.02 0.06,-0.03 0.05,-0.06 -0.01,-0.02 -0.04,-0.02 -0.09,0 -0.13,0.06 -0.34,0.17 -0.39,0.18 0,0 -0.22,0.09 -0.4,0.16 -0.05,0.02 -0.07,0.04 -0.06,0.06 0.01,0.02 0.03,0.02 0.07,0 0.04,-0.02 0.1,-0.04 0.13,-0.04 0.12,-0.03 0.18,0.02 0.23,0.13 0.06,0.11 0.1,0.2 0.33,0.72 l 0.19,0.43 c 0.16,0.35 0.28,0.66 0.18,0.94 -0.08,0.2 -0.24,0.33 -0.39,0.39 -0.12,0.05 -0.28,0.11 -0.49,0.05 -0.23,-0.06 -0.42,-0.23 -0.64,-0.72 l -0.21,-0.48 c -0.23,-0.52 -0.27,-0.62 -0.32,-0.73 -0.05,-0.12 -0.04,-0.19 0.04,-0.25 0.04,-0.03 0.06,-0.04 0.09,-0.05 0.03,-0.02 0.05,-0.03 0.04,-0.06 -0.01,-0.02 -0.04,-0.02 -0.09,0 -0.12,0.06 -0.33,0.16 -0.42,0.2 -0.1,0.05 -0.32,0.13 -0.5,0.21 -0.05,0.02 -0.07,0.04 -0.06,0.06 0.01,0.02 0.03,0.02 0.07,0 0.05,-0.02 0.11,-0.04 0.14,-0.05 0.12,-0.03 0.18,0.02 0.23,0.13 0.06,0.11 0.1,0.2 0.33,0.72 l 0.22,0.5 c 0.22,0.5 0.46,0.69 0.71,0.77 0.35,0.11 0.68,-0.02 0.86,-0.1 0.22,-0.1 0.45,-0.25 0.6,-0.56 0.18,-0.37 0.04,-0.79 -0.13,-1.17 l -0.16,-0.37 z"
           id="path521"
           style="fill:#024682" />
        <path
           class="cls-1"
           d="m 72.6,137.87 -0.13,-0.02 c -0.38,-0.07 -0.52,-0.15 -0.6,-0.3 -0.1,-0.2 -0.03,-0.42 0.22,-0.55 0.22,-0.11 0.36,-0.06 0.45,-0.02 0.11,0.05 0.18,0.15 0.2,0.18 0.02,0.04 0.04,0.06 0.06,0.04 0.03,-0.01 0.02,-0.05 -0.01,-0.12 -0.13,-0.26 -0.17,-0.36 -0.19,-0.41 -0.01,-0.02 -0.03,-0.03 -0.07,-0.02 -0.1,0.02 -0.26,0.06 -0.47,0.17 -0.46,0.24 -0.64,0.66 -0.45,1.02 0.14,0.27 0.38,0.44 0.9,0.54 l 0.21,0.04 c 0.39,0.07 0.52,0.2 0.6,0.37 0.09,0.18 0.05,0.45 -0.25,0.61 -0.21,0.11 -0.45,0.12 -0.65,-0.09 -0.05,-0.05 -0.09,-0.11 -0.12,-0.15 -0.01,-0.03 -0.03,-0.06 -0.06,-0.04 -0.03,0.01 -0.02,0.06 0,0.11 0.02,0.06 0.11,0.26 0.21,0.44 0.04,0.07 0.06,0.09 0.12,0.08 0.18,-0.01 0.34,-0.06 0.53,-0.16 0.18,-0.09 0.35,-0.21 0.46,-0.41 0.16,-0.28 0.12,-0.55 0.02,-0.74 -0.16,-0.32 -0.42,-0.46 -0.98,-0.57 z"
           id="path523"
           style="fill:#024682" />
        <path
           class="cls-1"
           d="m 76.44,134.85 c -0.1,-0.18 -0.11,-0.27 -0.04,-0.34 0.03,-0.03 0.06,-0.05 0.09,-0.07 0.04,-0.02 0.05,-0.04 0.04,-0.06 -0.01,-0.03 -0.05,-0.01 -0.09,0.01 -0.16,0.09 -0.28,0.17 -0.31,0.19 -0.07,0.04 -0.23,0.12 -0.4,0.22 -0.05,0.03 -0.08,0.05 -0.07,0.08 0.01,0.02 0.03,0.02 0.07,0 0.05,-0.03 0.12,-0.07 0.18,-0.08 0.1,-0.01 0.16,0.03 0.28,0.23 l 0.87,1.44 h -0.02 c -0.09,-0.01 -0.79,-0.22 -1.14,-0.32 -0.74,-0.2 -1.54,-0.44 -1.61,-0.46 -0.09,-0.03 -0.14,-0.05 -0.18,-0.03 -0.03,0.02 -0.02,0.07 0.02,0.13 l 1.08,1.94 c 0.16,0.28 0.2,0.39 0.13,0.46 -0.04,0.04 -0.09,0.08 -0.14,0.1 -0.03,0.02 -0.05,0.04 -0.04,0.06 0.02,0.03 0.05,0.02 0.09,0 0.17,-0.1 0.32,-0.19 0.34,-0.21 0.06,-0.04 0.2,-0.1 0.41,-0.22 0.05,-0.03 0.07,-0.05 0.06,-0.08 -0.01,-0.02 -0.03,-0.02 -0.07,0 -0.05,0.03 -0.12,0.06 -0.18,0.07 -0.08,0.02 -0.17,-0.05 -0.32,-0.29 l -0.82,-1.34 v 0 c 0.09,0.02 0.69,0.22 1.24,0.37 0.53,0.14 1.19,0.32 1.51,0.4 0.06,0.02 0.12,0.03 0.15,0 0.03,-0.02 0.03,-0.05 -0.02,-0.12 l -1.15,-2.07 z"
           id="path525"
           style="fill:#024682" />
        <path
           class="cls-1"
           d="m 77.9,133.32 c -0.93,0.63 -0.82,1.55 -0.46,2.08 0.37,0.55 1.18,0.97 2.07,0.37 0.79,-0.53 0.91,-1.43 0.43,-2.14 -0.48,-0.71 -1.26,-0.84 -2.04,-0.31 z m 1.64,2.21 c -0.6,0.4 -1.3,0.13 -1.73,-0.51 -0.52,-0.77 -0.25,-1.25 0.11,-1.49 0.51,-0.34 1.2,-0.18 1.67,0.51 0.6,0.9 0.17,1.34 -0.04,1.49 z"
           id="path527"
           style="fill:#024682" />
        <path
           class="cls-1"
           d="m 81.27,132.52 c 0.07,-0.26 0.1,-0.51 -0.09,-0.75 -0.12,-0.16 -0.43,-0.38 -0.98,0.03 -0.1,0.08 -0.21,0.17 -0.36,0.28 -0.06,0.05 -0.26,0.18 -0.41,0.3 -0.05,0.03 -0.06,0.06 -0.05,0.08 0.02,0.02 0.04,0.01 0.07,-0.01 0.04,-0.03 0.09,-0.07 0.12,-0.08 0.11,-0.05 0.17,-0.02 0.26,0.07 0.08,0.09 0.14,0.17 0.48,0.63 l 0.4,0.53 c 0.21,0.28 0.39,0.51 0.46,0.65 0.05,0.1 0.09,0.17 0.04,0.23 -0.02,0.03 -0.05,0.06 -0.1,0.09 -0.04,0.03 -0.04,0.05 -0.03,0.06 0.02,0.02 0.04,0.01 0.08,-0.02 0.12,-0.09 0.3,-0.24 0.37,-0.29 0.09,-0.07 0.37,-0.26 0.45,-0.31 0.55,-0.41 0.55,-0.93 0.31,-1.25 -0.26,-0.35 -0.72,-0.34 -1.03,-0.24 z m -0.55,0.33 -0.56,-0.74 c 0,0 -0.03,-0.05 -0.01,-0.07 0.03,-0.03 0.05,-0.05 0.09,-0.08 0.26,-0.19 0.57,-0.02 0.72,0.18 0.11,0.15 0.15,0.29 0.12,0.41 -0.02,0.08 -0.07,0.14 -0.17,0.22 -0.07,0.05 -0.12,0.08 -0.15,0.1 -0.01,0 -0.03,0 -0.05,-0.02 z m 1.24,0.97 c -0.07,0.05 -0.14,0.1 -0.25,0.13 -0.13,0.03 -0.17,-0.01 -0.32,-0.21 l -0.53,-0.71 c 0,0 0,-0.03 0,-0.03 0.04,-0.03 0.07,-0.06 0.13,-0.09 0.12,-0.08 0.21,-0.11 0.3,-0.12 0.35,-0.01 0.6,0.19 0.74,0.38 0.23,0.31 0.06,0.55 -0.07,0.66 z"
           id="path529"
           style="fill:#024682" />
        <path
           class="cls-1"
           d="m 83.85,132.38 c -0.09,0.06 -0.16,0.03 -0.23,-0.04 -0.12,-0.11 -0.31,-0.33 -0.55,-0.61 l -0.43,-0.5 c -0.37,-0.43 -0.44,-0.51 -0.52,-0.6 -0.08,-0.1 -0.1,-0.17 -0.04,-0.25 0.03,-0.04 0.05,-0.06 0.08,-0.08 0.03,-0.02 0.04,-0.04 0.02,-0.07 -0.01,-0.02 -0.04,0 -0.08,0.03 -0.11,0.09 -0.27,0.25 -0.34,0.31 -0.08,0.07 -0.27,0.22 -0.37,0.31 -0.05,0.04 -0.06,0.06 -0.05,0.08 0.02,0.02 0.04,0.01 0.07,-0.01 0.03,-0.03 0.07,-0.06 0.11,-0.08 0.07,-0.04 0.14,-0.02 0.23,0.07 0.08,0.09 0.15,0.16 0.53,0.59 l 0.43,0.5 c 0.24,0.27 0.43,0.5 0.52,0.63 0.06,0.09 0.09,0.15 0.04,0.21 -0.02,0.03 -0.05,0.06 -0.09,0.1 -0.03,0.03 -0.04,0.05 -0.03,0.06 0.02,0.02 0.04,0.01 0.08,-0.02 0.11,-0.1 0.28,-0.26 0.35,-0.32 0.08,-0.07 0.26,-0.21 0.45,-0.37 0.03,-0.03 0.05,-0.06 0.03,-0.07 -0.01,-0.01 -0.03,-0.01 -0.06,0.02 -0.04,0.04 -0.11,0.09 -0.15,0.11 z"
           id="path531"
           style="fill:#024682" />
        <path
           class="cls-1"
           d="m 85.19,130.39 c -0.23,-0.27 -0.52,-0.36 -1.08,-0.34 h -0.13 c -0.39,0.03 -0.54,-0.02 -0.65,-0.15 -0.14,-0.17 -0.12,-0.4 0.09,-0.58 0.19,-0.16 0.34,-0.14 0.43,-0.12 0.12,0.02 0.21,0.1 0.23,0.13 0.03,0.03 0.05,0.04 0.07,0.03 0.02,-0.02 0.01,-0.05 -0.04,-0.11 -0.19,-0.22 -0.25,-0.32 -0.28,-0.35 -0.02,-0.02 -0.04,-0.02 -0.07,0 -0.09,0.04 -0.24,0.11 -0.42,0.27 -0.4,0.33 -0.47,0.78 -0.21,1.1 0.19,0.23 0.47,0.34 0.99,0.32 h 0.22 c 0.39,-0.02 0.55,0.08 0.67,0.22 0.13,0.15 0.15,0.43 -0.11,0.65 -0.18,0.15 -0.41,0.21 -0.65,0.05 -0.06,-0.04 -0.12,-0.09 -0.15,-0.12 -0.02,-0.02 -0.04,-0.05 -0.07,-0.03 -0.02,0.02 0,0.06 0.03,0.1 0.04,0.05 0.17,0.23 0.3,0.39 0.05,0.06 0.07,0.07 0.14,0.05 0.17,-0.05 0.32,-0.14 0.48,-0.28 0.15,-0.13 0.29,-0.29 0.36,-0.5 0.09,-0.31 0,-0.56 -0.15,-0.73 z"
           id="path533"
           style="fill:#024682" />
      </g>
      <g
         id="g541">
        <path
           class="cls-5"
           d="m 52.06,107.72 c 0,0 0.04,-0.08 0.03,-0.13 0,-0.1 0.02,-0.19 0.05,-0.24 -0.07,0.03 -0.18,0.09 -0.23,0.21 -0.03,0.07 -0.04,0.16 -0.01,0.2 0,0.01 0.02,0.02 0.03,0.02 0.03,0 0.1,0 0.13,-0.05 z"
           id="path537"
           style="fill:#f2a900;fill-rule:evenodd" />
        <path
           class="cls-5"
           d="m 65.08,118.18 c -0.33,-0.38 -0.41,-0.7 -0.41,-0.7 0,0 0.78,-0.66 0.88,-1.11 0.1,-0.45 0.24,-0.99 0.07,-1.63 -0.17,-0.61 -0.38,-0.86 -0.38,-0.86 0,0 -0.18,0.28 -0.4,0.41 -0.22,0.13 -0.5,0.27 -0.5,0.27 0,0 -0.11,-0.5 -0.17,-0.81 -0.1,-0.51 -0.42,-0.78 -0.42,-0.78 0,0 -0.17,0.35 -0.41,0.51 -0.25,0.17 -0.53,0.27 -0.53,0.27 0,0 0.1,-0.53 0.07,-0.78 -0.07,-0.56 -0.45,-1 -0.45,-1 0,0 -0.25,0.51 -0.68,0.81 -0.43,0.3 -0.95,0.56 -0.95,0.56 0,0 0.34,-0.58 0.38,-0.95 0.08,-0.66 -0.27,-1.01 -0.27,-1.01 0,0 -0.41,0.61 -1.13,0.83 -0.71,0.21 -0.52,0.21 -1.31,0.25 -0.8,0.03 -1.51,0.05 -2.23,0.37 -0.71,0.32 -1.78,0.98 -2.31,1.43 -0.53,0.45 -1.71,1.64 -2.13,2.01 -0.42,0.37 -0.95,0.78 -1.21,0.63 -0.27,-0.15 -0.37,-0.55 -0.23,-0.88 0.13,-0.33 0.89,-1.11 1.37,-1.41 0.48,-0.3 2.99,-1.83 3.59,-2.23 0.6,-0.4 1.2,-0.55 2.24,-2.46 1.05,-1.91 -0.79,-3.81 -1.4,-4.12 -0.71,-0.37 -1.38,-0.59 -2.49,-0.35 -0.68,0.15 -1.18,0.28 -1.44,0.47 -0.27,0.18 -0.45,0.51 -0.5,0.83 -0.05,0.32 -0.07,0.66 -0.29,0.95 -0.22,0.28 -0.37,0.45 -0.61,0.57 -0.24,0.12 -0.59,0.13 -0.54,0.44 0.05,0.29 0.33,0.29 0.68,0.26 0.31,-0.02 0.77,-0.15 1.03,-0.28 0.27,-0.13 0.68,-0.38 0.68,-0.38 0,0 0.85,0.02 1.28,-0.17 0.48,-0.22 0.61,-0.56 0.88,-0.62 0.27,-0.07 0.75,0.13 1,0.47 0.25,0.33 0.32,0.73 0.25,1.28 -0.07,0.55 -0.58,1.25 -1.03,1.56 -0.45,0.32 -2.92,1.59 -3.65,2.02 -0.73,0.43 -2.21,1.38 -2.89,2.19 -0.67,0.81 -1.11,1.41 -1.1,2.69 0,1.11 0.63,1.78 1,2.08 0.6,0.48 1.06,0.39 2.09,0.43 1.03,0.03 7.16,0.18 8.47,0.15 1.31,-0.03 3.22,0.15 4.18,0.02 0.96,-0.13 1.48,-0.37 1.83,-0.63 0.35,-0.27 0.85,-0.83 0.8,-0.96 -0.05,-0.13 -0.4,-0.23 -0.73,-0.61 z M 56.4,106.51 v 0 c 0,0 0.32,0.01 0.57,0.37 0.28,0.41 0.23,0.66 0.22,0.67 l -0.02,0.08 -0.04,-0.07 c 0,0 -0.25,-0.44 -0.44,-0.64 -0.18,-0.19 -0.32,-0.35 -0.32,-0.35 l -0.04,-0.05 h 0.07 z m -3.14,1.32 c -0.05,0.03 -0.14,0.06 -0.24,0.09 -0.17,0.05 -0.37,0.11 -0.48,0.22 -0.18,0.18 -0.42,0.3 -0.71,0.46 h -0.02 c -0.28,0.16 -0.7,0.22 -0.91,0.23 -0.04,0 -0.08,0 -0.12,0 -0.13,0 -0.21,-0.02 -0.25,-0.06 -0.02,-0.02 -0.04,-0.05 -0.04,-0.09 0,-0.14 0.17,-0.2 0.33,-0.26 0.02,0 0.04,-0.02 0.06,-0.03 0.12,-0.05 0.38,-0.23 0.57,-0.42 0.32,-0.34 0.43,-0.82 0.43,-0.83 v -0.04 c 0,0 0.04,0.01 0.04,0.01 0,0 0.31,0.12 0.46,-0.09 0.11,-0.15 0.11,-0.23 0.11,-0.33 0,-0.04 0,-0.08 0.01,-0.14 0.03,-0.16 0.12,-0.24 0.14,-0.26 0.02,-0.02 0.16,-0.16 0.38,-0.16 h 0.02 c 0.2,0 0.36,0.19 0.36,0.19 l -0.04,0.05 c 0,0 -0.18,-0.09 -0.29,-0.09 -0.03,0 -0.06,0 -0.08,0.02 0.03,0 0.06,0.03 0.09,0.07 0.05,0.07 0.05,0.13 0.04,0.18 -0.02,0.06 -0.06,0.11 -0.1,0.13 -0.12,0.05 -0.17,0.02 -0.23,-0.03 -0.03,-0.02 -0.04,-0.05 -0.06,-0.08 0,0.02 -0.01,0.04 -0.01,0.05 0.02,0.07 0.1,0.13 0.1,0.13 l -0.03,0.05 c 0,0 -0.08,-0.02 -0.1,-0.02 l -0.2,0.4 0.12,0.19 c 0.11,0.16 0.26,0.16 0.46,0.1 h 0.04 c 0.13,-0.05 0.14,-0.05 0.28,-0.01 h 0.04 c 0,0 0.06,0.05 0.07,0.07 0.02,0.1 -0.2,0.23 -0.24,0.26 z m 2.79,-1.5 c 0,0 -0.39,-0.19 -0.58,-0.25 -0.61,-0.2 -0.94,-0.25 -1.05,-0.26 l -0.62,-0.09 v -0.06 c 0,0 0.47,-0.1 0.79,-0.1 0.02,0 0.05,0 0.07,0 0.32,0.02 0.6,0.1 0.61,0.1 v 0.06 h -0.02 c 0,0 -0.11,0 -0.14,0.01 0,0 -0.01,0 -0.02,0 0.08,0.02 0.2,0.06 0.34,0.1 0.42,0.12 0.66,0.43 0.67,0.45 l -0.04,0.05 z m -5.04,13.56 c 0,0 -0.16,0 -0.37,0 -0.36,0 -0.9,-0.01 -1.23,-0.07 -0.86,-0.16 -1.4,-0.78 -1.62,-1.85 -0.29,-1.39 0.99,-2.75 1.01,-2.76 l 0.05,0.04 c 0,0 -0.45,0.78 -0.55,1.04 -0.37,0.95 -0.32,1.09 -0.3,1.1 0,0 0.02,0.01 0.03,0 0.01,0 0.03,-0.01 0.05,-0.04 0.05,-0.09 0.06,-0.17 0.06,-0.17 v -0.07 c 0,0 0.06,0.05 0.06,0.05 0,0 0.15,0.17 -0.04,0.61 -0.07,0.17 -0.07,0.48 0.07,0.55 0.02,0 0.05,0 0.08,0 0.02,-0.01 0.04,-0.03 0.04,-0.08 0,-0.08 0.05,-0.2 0.05,-0.21 l 0.02,-0.05 0.04,0.04 c 0,0 0.09,0.11 0.11,0.33 0,0.03 0,0.09 -0.01,0.16 -0.02,0.14 -0.05,0.38 0.05,0.4 0.07,0.02 0.12,0 0.18,-0.13 0.04,-0.09 0.03,-0.24 0.03,-0.24 v -0.07 c 0,0 0.05,0.04 0.05,0.04 0,0 0.12,0.09 0.14,0.2 0,0.05 0.01,0.09 0.02,0.14 0,0.06 0.01,0.11 0.02,0.18 v 0.04 c 0.03,0.11 0.05,0.21 0.18,0.23 0.02,0 0.03,0 0.04,0 0.03,-0.02 0.04,-0.09 0.05,-0.14 v 0 c 0.02,-0.09 0,-0.23 0,-0.23 v -0.06 c 0,0 0.05,0.03 0.05,0.03 0,0 0.16,0.08 0.21,0.22 0,0.02 0.01,0.03 0.02,0.04 0.01,0.03 0.02,0.04 0.04,0.14 0.03,0.11 0.14,0.21 0.23,0.22 0,0 0.01,0 0.02,0 0.06,0 0.09,-0.02 0.1,-0.05 C 50,119.4 50,119.29 50,119.29 v -0.03 h 0.03 c 0,0 0.12,0.01 0.23,0.14 0.02,0.03 0.04,0.06 0.07,0.1 0.05,0.08 0.09,0.16 0.2,0.19 0.08,0.03 0.47,0.15 0.48,0.15 v 0.06 z m 13.61,-4.9 c 0,0 0,0 0,0 0.06,0 0.18,-0.1 0.25,-0.17 l 0.04,-0.04 v 0.06 c 0,0 0.05,0.21 -0.09,0.6 -0.11,0.33 -0.73,0.43 -0.76,0.44 l -0.1,0.02 0.07,-0.07 c 0,0 0.09,-0.09 0.2,-0.25 q 0.05,-0.08 0.07,-0.25 c 0.01,-0.15 -0.14,-0.17 -0.15,-0.17 v -0.06 c 0,0 0.25,-0.11 0.46,-0.09 z m -1.03,-0.27 c 0,0 0.19,-0.3 0.22,-0.44 0.03,-0.15 0.08,-0.43 0.08,-0.43 v -0.09 c 0,0 0.06,0.08 0.06,0.08 0,0.01 0.19,0.34 0.15,0.62 -0.03,0.26 -0.1,0.3 -0.12,0.31 h -0.36 c 0,0 -0.06,0 -0.06,0 z m 0.02,1.3 c 0.11,0.06 0.37,0.09 0.37,0.09 h 0.05 c 0,0 -0.02,0.05 -0.02,0.05 0,0.02 -0.21,0.39 -0.47,0.5 -0.17,0.07 -0.31,0.1 -0.43,0.1 -0.21,0 -0.32,-0.08 -0.33,-0.08 l -0.04,-0.03 0.05,-0.03 c 0,0 0.43,-0.23 0.53,-0.35 0.03,-0.04 0.04,-0.08 0.04,-0.11 -0.02,-0.07 -0.11,-0.12 -0.11,-0.12 l -0.11,-0.05 h 0.12 c 0,0 0.23,-0.02 0.36,0.05 z m -1.12,-1.65 c -0.05,-0.17 -0.25,-0.27 -0.25,-0.27 l 0.02,-0.06 c 0,0 0.27,0 0.47,0 0.2,0 0.57,-0.17 0.58,-0.17 l 0.05,-0.02 v 0.05 c 0,0 0,0.31 -0.25,0.56 -0.26,0.27 -0.7,0.31 -0.94,0.31 -0.09,0 -0.14,0 -0.15,0 v -0.06 c 0.21,-0.08 0.5,-0.24 0.47,-0.33 z m -0.55,2.59 -0.06,-0.02 0.06,-0.03 c 0,0 0.11,-0.07 0.31,0.01 0.16,0.06 0.34,0.08 0.34,0.08 h 0.04 c 0,0 -0.01,0.04 -0.01,0.04 0,0 -0.07,0.2 -0.37,0.3 -0.1,0.03 -0.2,0.05 -0.28,0.05 -0.17,0 -0.3,-0.04 -0.3,-0.05 l -0.08,-0.03 0.08,-0.03 c 0.18,-0.07 0.36,-0.18 0.35,-0.23 -0.01,-0.07 -0.07,-0.09 -0.07,-0.09 z m -0.54,-1.86 0.03,-0.06 c 0,0 0.3,0.07 0.43,0.08 0.13,0.02 0.57,0.03 0.58,0.03 h 0.05 c 0,0 -0.03,0.05 -0.03,0.05 0,0.01 -0.21,0.36 -0.51,0.51 -0.13,0.07 -0.3,0.09 -0.44,0.09 -0.18,0 -0.33,-0.03 -0.34,-0.03 l -0.07,-0.02 0.06,-0.04 c 0.09,-0.06 0.33,-0.25 0.36,-0.36 0.03,-0.13 -0.11,-0.25 -0.11,-0.25 z m -1.85,1.04 c -0.11,-0.09 -0.09,-0.28 -0.09,-0.29 v -0.03 c 0,0 0.03,0 0.03,0 0.03,0 0.35,0 0.42,0.12 0.02,0.03 0.03,0.07 0,0.13 -0.12,0.23 -0.39,0.33 -0.4,0.34 l -0.04,-0.05 c 0,0 0.1,-0.12 0.1,-0.18 0,-0.02 0,-0.03 -0.02,-0.04 z m 0.26,1.65 c 0,0 0.07,-0.06 0.07,-0.21 v -0.17 h 0.04 c 0,0 0.23,0.06 0.4,0.07 0.16,0.02 0.42,-0.03 0.42,-0.03 l 0.1,-0.02 -0.07,0.07 c 0,0 -0.22,0.23 -0.35,0.28 -0.15,0.06 -0.29,0.08 -0.39,0.08 -0.11,0 -0.19,-0.02 -0.2,-0.02 h -0.06 c 0,0 0.05,-0.06 0.05,-0.06 z m 0.87,-0.81 c -0.09,0 -0.15,-0.01 -0.16,-0.01 h -0.06 c 0,0 0.04,-0.05 0.04,-0.05 0.09,-0.1 0.24,-0.3 0.24,-0.37 0,-0.08 -0.1,-0.2 -0.14,-0.23 l 0.04,-0.05 c 0,0 0.13,0.09 0.33,0.09 0.22,0 0.41,0.03 0.42,0.03 h 0.04 c 0,0 -0.02,0.04 -0.02,0.04 0,0 -0.09,0.19 -0.29,0.39 -0.13,0.13 -0.32,0.15 -0.45,0.15 z m -0.2,-2.59 c 0.1,-0.09 0.27,-0.25 0.27,-0.34 0,-0.1 -0.18,-0.1 -0.18,-0.1 H 60.5 l 0.05,-0.05 c 0,0 0.14,-0.16 0.42,-0.18 0.02,0 0.03,0 0.04,0 0.25,0 0.33,0.13 0.33,0.13 v 0 c 0.08,0.2 -0.06,0.29 -0.24,0.41 -0.2,0.14 -0.58,0.18 -0.6,0.18 h -0.11 c 0,0 0.08,-0.06 0.08,-0.06 z m -0.42,0.54 c 0,0 0.24,-0.08 0.4,-0.05 0.13,0.03 0.2,0.06 0.23,0.11 0.02,0.03 0.02,0.06 0.01,0.09 -0.05,0.18 -0.26,0.29 -0.39,0.31 -0.13,0.02 -0.24,0.05 -0.24,0.05 l -0.03,-0.06 c 0.07,-0.06 0.19,-0.18 0.18,-0.25 0,-0.01 0,-0.02 -0.01,-0.02 -0.07,-0.05 -0.15,-0.13 -0.16,-0.14 l -0.04,-0.04 0.05,-0.02 z m -2.03,-2.08 c 0,0 0.74,-0.07 1.05,-0.1 0.31,-0.03 0.86,-0.17 0.86,-0.17 l 0.06,-0.02 -0.02,0.06 c 0,0 -0.15,0.38 -0.32,0.55 -0.17,0.17 -0.36,0.3 -0.37,0.3 l -0.05,-0.04 c 0,0 0.07,-0.16 0.04,-0.23 0,-0.02 -0.03,-0.04 -0.05,-0.05 -0.1,-0.04 -0.24,-0.02 -0.39,0 -0.08,0 -0.17,0.02 -0.25,0.02 -0.24,0 -0.56,-0.25 -0.58,-0.26 l -0.07,-0.05 h 0.08 z m 0.59,2.06 -0.05,0.02 v -0.05 c 0,0 0.08,-0.44 0.32,-0.56 0.1,-0.05 0.22,-0.04 0.35,0.03 0.06,0.03 0.07,0.08 0.07,0.11 -0.01,0.18 -0.57,0.41 -0.69,0.45 z m 0.63,1.96 c 0,0.14 -0.42,0.31 -0.55,0.36 h -0.04 c 0,0 0,-0.03 0,-0.03 0,-0.01 -0.02,-0.27 0.13,-0.39 0.09,-0.07 0.21,-0.08 0.36,-0.04 0.07,0.02 0.1,0.05 0.1,0.09 z m -1.54,-0.93 0.02,-0.06 c 0,0 0.15,-0.47 0.42,-0.59 0.09,-0.04 0.19,-0.04 0.29,0 0.08,0.04 0.12,0.09 0.12,0.14 -0.01,0.21 -0.66,0.44 -0.79,0.48 l -0.06,0.02 z m 0.01,0.29 c 0.02,0.18 -0.59,0.45 -0.72,0.5 l -0.05,0.02 v -0.05 c 0,0 0.04,-0.35 0.26,-0.51 0.1,-0.07 0.22,-0.1 0.35,-0.07 0.04,0 0.15,0.03 0.16,0.11 z m 0.66,-2.44 h 0.07 c 0,0 -0.39,0.61 -0.39,0.61 L 58,114.37 c 0,0 0.03,-0.08 0,-0.15 -0.01,-0.03 -0.04,-0.05 -0.08,-0.06 -0.11,-0.03 -0.26,-0.04 -0.41,-0.05 -0.1,0 -0.21,-0.02 -0.3,-0.03 -0.23,-0.03 -0.33,-0.16 -0.34,-0.16 l -0.05,-0.05 h 0.87 c 0.16,0 0.67,-0.08 0.68,-0.08 z m -2.94,-0.21 c 0,0 0.37,-0.32 0.87,-0.5 0.32,-0.12 1.19,-0.07 1.22,-0.07 v 0.06 c 0,0 -0.83,0.23 -1.19,0.37 -0.36,0.13 -0.88,0.2 -0.89,0.2 h -0.11 c 0,0 0.08,-0.06 0.08,-0.06 z m -1.68,3.83 -0.05,0.04 c 0,0 -0.74,-0.64 -0.19,-1.8 0.24,-0.51 0.66,-0.83 1.33,-1.04 0.6,-0.19 1.3,-0.11 1.86,-0.05 0.44,0.05 1.13,-0.03 1.14,-0.03 h 0.07 c 0,0 -0.04,0.05 -0.04,0.05 0,0 -0.35,0.5 -1.07,0.5 -0.03,0 -0.07,0 -0.1,0 -0.13,0 -0.29,-0.02 -0.46,-0.04 -0.35,-0.03 -0.75,-0.07 -1.04,-0.06 -0.49,0.02 -0.95,0.32 -1.35,0.87 -0.43,0.59 -0.08,1.57 -0.08,1.58 z m 2.47,-1.62 -0.18,0.39 -0.03,-0.02 c 0,0 -0.32,-0.22 -0.47,-0.37 -0.15,-0.15 -0.27,-0.38 -0.27,-0.39 l -0.04,-0.08 z m -1.76,1.33 -0.03,-0.03 c 0,0 -0.26,-0.32 -0.31,-0.48 -0.05,-0.15 -0.04,-0.42 -0.04,-0.43 v -0.09 c 0,0 0.57,0.75 0.57,0.75 l -0.2,0.27 z m 0.2,-1.36 v -0.09 c 0,0 0.79,0.68 0.79,0.68 l -0.19,0.33 -0.03,-0.03 c 0,0 -0.37,-0.36 -0.45,-0.53 -0.08,-0.17 -0.12,-0.37 -0.12,-0.38 z m 0.13,1.75 0.06,0.05 c 0,0 0.66,0.49 2.24,0.56 1.02,0.05 2.44,-0.1 2.45,-0.1 h 0.05 c 0,0 -0.02,0.05 -0.02,0.05 -0.01,0.02 -0.13,0.23 -0.98,0.35 -0.57,0.08 -1.17,0.15 -1.77,0.15 -0.34,0 -0.69,-0.02 -1.04,-0.08 -0.86,-0.14 -0.98,-0.88 -0.98,-0.89 v -0.08 z m 3.79,1.5 c -0.42,0.05 -0.81,0.07 -1.16,0.07 -1.65,0 -2.47,-0.45 -2.48,-0.46 l 0.02,-0.06 c 0,0 1.19,0.16 2.02,0.16 0.04,0 0.08,0 0.12,0 1.13,-0.02 2.56,-0.28 3.51,-0.44 l 0.19,-0.03 c 2.58,-0.45 3.92,-1.66 3.94,-1.67 l 0.05,0.03 c 0,0 -0.26,0.65 -1.43,1.2 -1.22,0.57 -2.29,0.91 -4.78,1.2 z m 6.05,-0.75 c 0,0 -0.29,0 -0.38,-0.07 -0.1,-0.08 -0.22,-0.1 -0.33,-0.05 -0.03,0.01 -0.05,0.03 -0.05,0.06 0,0.05 0.03,0.11 0.06,0.13 0.08,0.06 0.28,0.13 0.28,0.13 l 0.08,0.03 -0.07,0.03 c 0,0 -0.3,0.14 -0.5,0.05 -0.05,-0.02 -0.08,-0.04 -0.12,-0.06 -0.11,-0.06 -0.17,-0.08 -0.29,-0.04 -0.06,0.02 -0.1,0.06 -0.11,0.09 0,0.03 0,0.06 0.04,0.09 0.07,0.06 0.22,0.09 0.22,0.09 l 0.09,0.02 -0.09,0.04 c 0,0 -0.2,0.1 -0.36,0.1 -0.04,0 -0.08,0 -0.11,-0.02 -0.1,-0.04 -0.44,-0.14 -0.49,-0.14 -0.27,0 -0.86,0.06 -0.87,0.06 v -0.06 c 0,0 0.84,-0.22 1.73,-0.59 0.38,-0.16 0.88,-0.49 0.88,-0.49 l 0.04,-0.02 v 0.04 c 0,0 0.07,0.19 0.14,0.27 0.11,0.13 0.23,0.26 0.23,0.26 l 0.05,0.05 z"
           id="path539"
           style="fill:#f2a900;fill-rule:evenodd" />
      </g>
      <path
         class="cls-5"
         d="m 62.91,62.35 c -0.39,-0.18 -0.07,-0.49 0.11,-0.77 0.18,-0.28 0.18,-0.9 0.18,-0.9 0,0 -0.32,0.14 -0.6,-0.07 -0.28,-0.2 -0.12,-0.96 0.13,-1.78 0.25,-0.82 0.15,-1.2 0.15,-1.2 0,0 -0.07,0.52 -0.55,0.46 -0.48,-0.07 -0.52,-0.43 -0.83,-1.29 -0.3,-0.86 -0.95,-1.3 -0.95,-1.3 0,0 0.19,0.58 0.21,0.75 0.02,0.17 0.09,0.51 -0.11,1.22 -0.2,0.7 -0.56,0.21 -0.56,0.21 0,0 -0.05,0.09 -0.01,0.41 0.04,0.32 0.37,0.77 0.17,1.04 -0.2,0.27 -0.59,-0.07 -0.59,-0.07 0,0 0,0.41 0.24,0.81 0.15,0.25 0.36,0.53 0.3,0.86 -0.1,0.51 -0.51,-0.03 -0.51,-0.03 0,0 -0.12,0.09 -0.13,0.52 -0.01,0.43 0.5,0.75 0.38,1.33 -0.2,0.95 -0.78,0.41 -0.78,0.41 0,0 -0.26,0.23 -0.3,1.05 -0.04,0.6 -0.09,0.85 -0.41,0.91 -0.32,0.06 -0.3,-0.2 -0.3,-0.2 0,0 -0.27,0.31 -0.35,0.83 -0.06,0.41 0,0.68 -0.31,0.69 -0.21,0 -0.23,-0.33 -0.23,-0.33 0,0 -0.17,0.27 -0.23,0.6 -0.04,0.2 0.1,0.51 -0.11,0.8 -0.22,0.28 -0.41,0.12 -0.41,0.12 v -1.57 c 0,0 0.16,0.1 0.16,0.1 0.11,0.08 0.16,0.2 0.16,0.2 0,0 0.04,-0.2 0.02,-0.32 -0.02,-0.12 -0.16,-0.24 -0.16,-0.24 0,0 0.24,-0.16 0.26,-0.51 0.02,-0.34 -0.13,-0.47 -0.13,-0.47 0,0 0.87,-0.23 1.17,-0.45 0.3,-0.22 1.05,-0.96 1.09,-2.23 0.04,-1.27 -1,-1.96 -1,-1.96 0,0 0.29,-0.52 0.48,-0.9 0.19,-0.39 0.92,-1.09 0.92,-1.09 0,0 -0.29,0.03 -0.49,0.08 -0.2,0.05 -0.37,0.09 -0.37,0.09 l -0.18,-0.41 -0.36,0.26 -0.24,-0.4 -0.31,0.2 -0.27,-0.36 -0.38,0.24 -0.27,-0.32 -0.25,0.26 -0.32,-0.34 -0.32,0.34 -0.25,-0.26 -0.27,0.32 -0.38,-0.24 -0.27,0.36 -0.31,-0.2 -0.24,0.4 -0.36,-0.26 -0.18,0.41 c 0,0 -0.17,-0.05 -0.37,-0.09 -0.2,-0.05 -0.49,-0.08 -0.49,-0.08 0,0 0.73,0.7 0.92,1.09 0.19,0.39 0.5,0.9 0.5,0.9 0,0 -1.11,0.49 -0.98,2.24 0.15,2.21 2.16,2.36 2.16,2.36 0,0 -0.14,0.25 -0.1,0.54 0.03,0.29 0.3,0.42 0.3,0.42 0,0 -0.12,0.04 -0.2,0.18 -0.09,0.13 -0.03,0.38 -0.03,0.38 0,0 0.03,-0.06 0.12,-0.15 0.09,-0.09 0.22,-0.11 0.22,-0.11 l 0.07,1.64 c 0,0 -0.22,0.12 -0.44,-0.16 -0.22,-0.28 -0.08,-0.6 -0.11,-0.8 -0.06,-0.33 -0.23,-0.6 -0.23,-0.6 0,0 -0.02,0.34 -0.23,0.33 -0.3,0 -0.24,-0.28 -0.31,-0.69 -0.08,-0.52 -0.35,-0.83 -0.35,-0.83 0,0 0.02,0.26 -0.3,0.2 -0.32,-0.06 -0.37,-0.3 -0.41,-0.91 -0.05,-0.82 -0.3,-1.05 -0.3,-1.05 0,0 -0.59,0.54 -0.78,-0.41 -0.12,-0.59 0.39,-0.9 0.38,-1.33 -0.01,-0.43 -0.13,-0.52 -0.13,-0.52 0,0 -0.41,0.54 -0.51,0.03 -0.06,-0.33 0.16,-0.61 0.3,-0.86 0.24,-0.4 0.24,-0.81 0.24,-0.81 0,0 -0.38,0.34 -0.59,0.07 -0.2,-0.27 0.12,-0.72 0.17,-1.04 0.04,-0.32 -0.01,-0.41 -0.01,-0.41 0,0 -0.35,0.49 -0.56,-0.21 -0.2,-0.7 -0.13,-1.04 -0.11,-1.22 0.02,-0.17 0.21,-0.75 0.21,-0.75 0,0 -0.64,0.44 -0.95,1.3 -0.3,0.86 -0.35,1.23 -0.83,1.29 -0.48,0.07 -0.55,-0.46 -0.55,-0.46 0,0 -0.09,0.38 0.15,1.2 0.25,0.82 0.41,1.57 0.13,1.78 -0.28,0.2 -0.6,0.07 -0.6,0.07 0,0 0,0.62 0.18,0.9 0.18,0.28 0.5,0.59 0.11,0.77 -0.39,0.18 -0.63,-0.05 -0.63,-0.05 0,0 0.18,0.69 0.84,0.92 0.66,0.23 1,0.8 1.04,1.19 0.07,0.72 -0.38,1.06 -0.38,1.06 0,0 0.35,0.37 0.57,0.4 0.22,0.03 0.68,0.07 0.77,0.23 0.21,0.4 -0.4,0.71 -0.4,0.71 0,0 0.31,0.36 0.86,0.33 0.55,-0.03 0.67,-0.11 0.7,0.09 0.06,0.43 -0.44,0.52 -0.44,0.52 0,0 0.38,0.32 0.83,0.32 0.46,0 1.06,-0.15 1.55,0 0.49,0.14 0.97,0.23 1.06,0.62 0.02,0.33 0,0.41 0,0.65 0,0.24 0.02,0.82 0,1.15 -0.02,0.33 -0.13,0.58 -0.13,0.58 0,0 0.39,-0.12 0.64,-0.12 0.25,0 0.52,0.13 0.52,0.13 0,0 -0.06,-0.43 -0.06,-0.65 v -1.75 c 0.09,-0.39 0.58,-0.46 1.07,-0.6 0.49,-0.14 1.09,0 1.55,0 0.46,0 0.83,-0.32 0.83,-0.32 0,0 -0.51,-0.09 -0.44,-0.52 0.03,-0.19 0.15,-0.11 0.7,-0.09 0.55,0.03 0.86,-0.33 0.86,-0.33 0,0 -0.61,-0.31 -0.4,-0.71 0.08,-0.16 0.54,-0.19 0.77,-0.23 0.22,-0.03 0.57,-0.4 0.57,-0.4 0,0 -0.45,-0.34 -0.38,-1.06 0.04,-0.39 0.38,-0.96 1.04,-1.19 0.66,-0.23 0.84,-0.92 0.84,-0.92 0,0 -0.24,0.23 -0.63,0.05 z m -10.9,-0.94 0.05,0.03 c 0,0 -0.11,0.39 -0.22,0.58 -0.11,0.19 -0.31,0.42 -0.32,0.43 l -0.04,0.05 v -0.07 c 0,0 -0.07,-0.32 0.11,-0.55 0.18,-0.23 0.42,-0.47 0.42,-0.47 z m 0.02,-1.91 0.04,0.05 c 0,0 -0.28,0.37 -0.41,0.46 -0.13,0.1 -0.51,0.15 -0.52,0.15 h -0.08 c 0,0 0.05,-0.05 0.05,-0.05 0,-0.01 0.24,-0.3 0.44,-0.36 0.19,-0.06 0.48,-0.24 0.48,-0.25 z M 51.3,58.36 c 0.16,-0.16 0.37,-0.26 0.38,-0.27 l 0.05,-0.02 v 0.05 c 0,0 -0.05,0.46 -0.21,0.59 -0.15,0.12 -0.47,0.3 -0.48,0.3 L 50.97,59.05 51,58.97 c 0,0 0.15,-0.46 0.3,-0.62 z m -0.68,-0.52 c 0.06,-0.66 0.37,-1.3 0.37,-1.31 l 0.06,0.02 c 0,0 -0.08,1.02 -0.14,1.56 -0.06,0.55 -0.21,1.36 -0.21,1.37 h -0.06 c 0,0 -0.08,-0.99 -0.02,-1.65 z m -0.92,0.75 h 0.06 c 0,0 0.5,1.3 0.5,1.3 L 50.2,59.87 c 0,0 -0.28,-0.09 -0.41,-0.43 -0.13,-0.33 -0.09,-0.83 -0.09,-0.85 z m -0.44,2.58 v -0.12 c 0,0 0.06,0.1 0.06,0.1 0,0 0.22,0.32 0.42,0.44 0.21,0.12 0.49,0.31 0.5,0.31 l 0.08,0.05 h -0.09 c 0,0 -0.05,0.01 -0.12,0.01 -0.16,0 -0.45,-0.02 -0.6,-0.15 -0.21,-0.18 -0.24,-0.63 -0.24,-0.64 z m 2.12,4.43 c -0.32,0.02 -0.56,-0.08 -0.57,-0.08 l -0.09,-0.04 0.09,-0.03 c 0,0 0.4,-0.11 0.6,-0.15 0.14,-0.02 0.3,-0.01 0.45,0 0.07,0 0.14,0.01 0.19,0.01 0.1,0 0.29,0.03 0.43,0.05 -0.22,-0.24 -0.5,-0.63 -0.79,-1.19 -0.07,-0.14 -0.14,-0.27 -0.2,-0.39 -0.08,-0.15 -0.14,-0.27 -0.21,-0.4 -0.1,-0.07 -0.23,-0.15 -0.33,-0.18 -0.09,-0.03 -0.27,-0.04 -0.46,-0.05 -0.21,-0.01 -0.43,-0.02 -0.59,-0.06 -0.32,-0.08 -0.54,-0.3 -0.55,-0.31 l -0.07,-0.07 0.1,0.02 c 0,0 0.47,0.07 0.63,0.07 0.16,0 0.5,0.04 0.67,0.07 0.1,0.02 0.28,0.08 0.42,0.12 -0.22,-0.47 -0.37,-0.89 -0.44,-1.42 -0.12,-0.91 0,-1.36 0,-1.37 h 0.06 c 0,0 0.02,1.35 0.53,2.48 0.42,0.93 1.08,1.99 1.32,2.35 -0.03,-0.16 -0.06,-0.42 -0.06,-0.64 0,-0.49 0.31,-0.81 0.33,-0.82 l 0.07,-0.06 v 0.09 c 0,0 -0.14,1.03 -0.09,1.38 0.05,0.35 0.08,0.66 0.08,0.68 l 0.07,0.08 -0.06,-0.02 v 0.02 c 0,0 -0.05,-0.04 -0.05,-0.04 -0.02,0 -0.28,-0.1 -0.47,-0.12 -0.2,-0.03 -0.67,-0.02 -1.01,0 z m 0.89,1.11 v 0 c -0.4,0 -0.51,-0.07 -0.52,-0.07 l -0.04,-0.02 0.04,-0.03 c 0,0 0.17,-0.12 0.5,-0.16 0.34,-0.04 0.44,0.08 0.44,0.09 v 0 c 0,0 0,0.02 0,0.02 0,0.02 -0.02,0.17 -0.43,0.17 z m 1.85,0.96 c 0,0 -0.39,0.11 -0.71,0.11 -0.04,0 -0.08,0 -0.11,0 -0.34,-0.03 -0.56,-0.13 -0.56,-0.13 L 52.7,67.63 52.73,67.6 c 0,0 0.18,-0.18 0.6,-0.15 0.41,0.03 0.8,0.17 0.8,0.17 l 0.09,0.03 -0.09,0.03 z m 0.91,-0.02 c 0,0 -0.31,-0.03 -1.04,-0.55 -0.49,-0.35 -0.87,-0.93 -0.87,-0.94 l 0.04,-0.05 c 0,0 0.15,0.09 0.24,0.17 0.05,0.04 0.11,0.08 0.16,0.12 -0.04,-0.09 -0.09,-0.24 -0.12,-0.36 -0.03,-0.21 0.1,-0.42 0.11,-0.43 l 0.04,-0.06 0.02,0.07 c 0,0 0.21,0.76 0.43,1.08 0.17,0.23 0.41,0.41 0.52,0.49 -0.01,-0.07 -0.03,-0.17 -0.02,-0.25 0.01,-0.13 0.13,-0.24 0.13,-0.25 l 0.05,-0.05 v 0.07 c 0,0 0.03,0.21 0.11,0.45 0.08,0.24 0.22,0.44 0.22,0.44 l 0.04,0.05 z m 0.62,-7.8 0.02,0.06 -0.36,0.24 -0.46,-0.25 z m -0.76,-0.89 h 0.14 c 0.11,0.03 0.22,0.15 0.23,0.27 0,0.12 -0.05,0.42 -0.06,0.44 l -0.02,0.11 z m 1.17,1 0.46,0.3 -0.86,-0.02 v -0.06 c 0,0 0.4,-0.22 0.4,-0.22 z m -0.23,-0.91 0.12,0.03 c 0.08,0.02 0.16,0.12 0.15,0.23 0,0.09 -0.09,0.31 -0.1,0.32 l -0.04,0.1 z m 1.45,0.85 -0.46,0.25 -0.36,-0.24 0.02,-0.06 z m -0.56,-0.26 0.04,-0.58 0.11,0.05 c 0.08,0.03 0.13,0.13 0.09,0.22 -0.03,0.07 -0.16,0.22 -0.18,0.24 z m 0.56,1.17 -0.4,-0.11 -0.42,0.11 -0.03,-0.06 0.48,-0.34 0.4,0.34 z m 0.27,0.1 0.37,0.52 -0.49,-0.22 -0.43,0.04 -0.02,-0.06 0.56,-0.28 z m -1.2,-1.33 -0.05,0.07 -0.02,-0.58 0.11,0.04 c 0.08,0.03 0.15,0.12 0.12,0.21 -0.02,0.07 -0.14,0.23 -0.15,0.25 z m -0.96,-0.55 0.12,0.02 c 0.08,0.02 0.17,0.11 0.16,0.22 0,0.09 -0.07,0.31 -0.08,0.32 l -0.03,0.1 -0.17,-0.67 z m 0.3,1.72 -0.03,0.06 -0.42,-0.11 -0.4,0.11 -0.03,-0.06 0.4,-0.34 z m -0.56,0.43 -0.02,0.06 -0.43,-0.04 -0.49,0.22 0.37,-0.52 0.56,0.28 z m 0.32,0.2 0.43,0.39 -0.03,0.05 -0.4,-0.14 -0.34,0.19 -0.04,-0.05 z m 0.26,-0.09 -0.03,-0.06 0.38,-0.29 0.42,0.3 -0.03,0.06 -0.37,-0.13 -0.37,0.11 z m 0.96,0.09 0.38,0.44 -0.04,0.05 -0.34,-0.19 -0.4,0.14 -0.03,-0.05 z m 0.52,0.67 0.28,0.52 -0.05,0.04 -0.28,-0.21 -0.33,0.08 -0.03,-0.05 0.41,-0.37 z m 0.5,1.71 -0.16,-0.21 c 0,0 -0.03,0.02 -0.05,0.04 l -0.27,0.36 v -0.12 c 0,0 0.03,-0.13 0.07,-0.28 0.07,-0.21 0.3,-0.49 0.31,-0.5 l 0.05,-0.05 0.11,0.72 -0.06,0.02 z m -0.21,-1.94 0.48,-0.25 0.29,0.53 -0.05,0.04 -0.35,-0.28 -0.37,-0.05 z m 0.96,1.24 -0.21,-0.26 -0.33,0.06 -0.02,-0.06 0.47,-0.33 0.15,0.56 z m 0.38,-1.1 h -0.06 c 0,0 -0.15,-0.35 -0.15,-0.35 l -0.39,-0.14 0.59,-0.12 v 0.61 z m -0.35,-1.4 0.21,0.45 -0.05,0.04 -0.25,-0.2 -0.37,-0.08 z m -0.28,-0.18 -0.03,0.05 -0.46,-0.18 -0.41,0.07 -0.02,-0.06 0.43,-0.29 z m -4.75,-1.96 0.19,0.02 0.12,-0.31 0.34,0.2 0.28,-0.37 0.3,0.15 0.23,-0.3 0.37,0.24 0.24,-0.3 0.29,0.25 0.27,-0.33 0.27,0.33 0.29,-0.25 0.24,0.3 0.37,-0.24 0.23,0.3 0.3,-0.15 0.28,0.37 0.34,-0.2 0.12,0.31 0.19,-0.02 -0.25,0.35 -0.17,-0.2 -0.29,0.19 -0.17,-0.21 -0.49,0.29 -0.27,-0.25 -0.37,0.33 -0.27,-0.32 -0.34,0.26 -0.34,-0.25 -0.27,0.32 -0.37,-0.33 -0.27,0.25 -0.49,-0.29 -0.17,0.21 -0.29,-0.19 -0.17,0.2 -0.25,-0.35 z m 1.33,1.33 h -0.06 c 0,0 -0.33,-0.86 -0.33,-0.86 h 0.05 c 0.21,0.03 0.32,0.13 0.36,0.31 0.03,0.13 -0.02,0.53 -0.03,0.55 z M 53.7,58.87 h 0.05 c 0,0 0,0 0,0 0.04,0 0.29,0 0.43,0.23 0.1,0.17 0.14,0.68 0.14,0.71 l -0.06,0.02 -0.57,-0.96 z m 0.74,1.1 0.43,0.29 -0.02,0.06 -0.41,-0.07 -0.46,0.18 -0.03,-0.05 z m -0.77,0.6 0.46,0.21 -0.37,0.08 -0.25,0.2 -0.05,-0.04 z m -0.3,1.41 h -0.06 c 0,0 0,-0.62 0,-0.62 l 0.59,0.12 -0.39,0.14 -0.15,0.36 z m 0.85,0.89 -0.33,-0.06 -0.21,0.26 -0.06,-0.03 0.15,-0.56 0.46,0.33 -0.02,0.06 z m -0.3,-0.72 -0.05,-0.04 0.29,-0.53 0.48,0.25 -0.37,0.05 -0.35,0.28 z m 0.72,1.45 c 0,0 -0.03,-0.03 -0.05,-0.04 l -0.16,0.21 -0.06,-0.02 0.11,-0.72 0.05,0.05 c 0,0 0.24,0.29 0.31,0.5 0.05,0.15 0.06,0.27 0.06,0.28 v 0.11 c 0,0 -0.26,-0.36 -0.26,-0.36 z m 0.06,-0.99 -0.05,-0.04 0.28,-0.52 0.41,0.37 -0.03,0.05 -0.33,-0.08 -0.28,0.21 z m 0.84,2.8 c 0,0 -0.23,-0.16 -0.24,-0.36 -0.02,-0.26 0.2,-0.41 0.21,-0.41 l 0.05,-0.03 v 0.06 c 0,0 -0.02,0.23 0,0.33 0.02,0.1 0.03,0.37 0.04,0.38 v 0.07 c 0,0 -0.05,-0.04 -0.05,-0.04 z m 0,-1.99 c 0,0 -0.09,0.07 -0.13,0.17 -0.08,0.18 -0.23,0.37 -0.24,0.38 l -0.06,-0.03 c 0,0 0.06,-0.4 0.16,-0.63 0.13,-0.32 0.24,-0.43 0.24,-0.44 l 0.02,-0.02 0.02,0.02 c 0,0 0.2,0.22 0.3,0.57 0.1,0.35 0.08,0.65 0.08,0.66 h -0.06 c 0,0 -0.17,-0.38 -0.22,-0.51 -0.03,-0.09 -0.08,-0.15 -0.11,-0.18 z m 0.25,7.27 h -0.04 c 0,0 0,-0.03 0,-0.03 v -2.32 c 0,0 0.05,0.08 0.05,0.08 0,0.01 0.17,0.24 0.2,0.49 0.02,0.13 0.04,0.66 0.05,1.17 0,0.52 -0.25,0.6 -0.26,0.6 z m 0.25,-3.64 c -0.07,0.26 -0.2,0.33 -0.2,0.34 l -0.05,0.03 -0.03,-1.69 0.06,0.05 c 0,0 0.18,0.18 0.22,0.53 0.02,0.21 0.05,0.59 0,0.75 z m 0.02,-4.72 -0.32,0.19 -0.04,-0.05 0.37,-0.52 0.36,0.49 -0.04,0.05 -0.32,-0.16 z m 0.18,2.92 -0.05,0.05 v -0.62 c 0,0 0.04,0.02 0.04,0.02 0,0 0.18,0.09 0.19,0.21 0.01,0.16 -0.17,0.33 -0.17,0.33 z M 56.5,63.6 c -0.04,0.13 -0.21,0.5 -0.22,0.52 h -0.06 c 0,0 -0.02,-0.32 0.08,-0.67 0.09,-0.35 0.29,-0.56 0.3,-0.57 l 0.02,-0.02 0.02,0.02 c 0,0 0.11,0.12 0.24,0.44 0.09,0.24 0.15,0.62 0.16,0.63 l -0.06,0.03 c 0,0 -0.16,-0.2 -0.24,-0.38 -0.05,-0.1 -0.1,-0.15 -0.13,-0.17 -0.03,0.03 -0.08,0.09 -0.11,0.18 z m 5.37,-3.8 0.52,-1.35 0.02,0.11 c 0,0 0.07,0.43 -0.09,0.85 -0.13,0.33 -0.4,0.42 -0.41,0.43 l -0.06,0.02 z m 0,2.08 c 0,0 0.28,-0.19 0.5,-0.31 0.2,-0.12 0.42,-0.43 0.42,-0.44 l 0.07,-0.1 v 0.12 c 0,0 -0.04,0.46 -0.25,0.64 -0.15,0.13 -0.43,0.15 -0.6,0.15 -0.07,0 -0.12,0 -0.13,0 h -0.09 c 0,0 0.08,-0.06 0.08,-0.06 z m -0.76,-5.37 c 0,0 0.31,0.65 0.37,1.31 0.06,0.65 -0.02,1.63 -0.02,1.64 H 61.4 c 0,0 -0.15,-0.82 -0.21,-1.37 -0.06,-0.55 -0.14,-1.55 -0.14,-1.56 z m -0.71,1.65 c 0,0 0.23,0.1 0.38,0.27 0.16,0.17 0.3,0.6 0.3,0.62 l 0.03,0.08 -0.07,-0.04 c 0,0 -0.33,-0.18 -0.48,-0.3 -0.16,-0.13 -0.2,-0.57 -0.21,-0.59 v -0.05 c 0,0 0.04,0.02 0.04,0.02 z m -0.38,1.4 -0.05,-0.1 0.09,0.06 c 0,0 0.29,0.19 0.48,0.25 0.2,0.06 0.43,0.35 0.44,0.36 l 0.04,0.06 h -0.07 c 0,0 -0.49,-0.04 -0.63,-0.14 -0.13,-0.1 -0.31,-0.47 -0.31,-0.49 z m -0.05,1.7 0.07,0.05 c 0,0 0.23,0.17 0.41,0.4 0.18,0.24 0.14,0.61 0.14,0.63 v 0.07 c 0,0 -0.06,-0.06 -0.06,-0.06 0,-0.01 -0.21,-0.25 -0.32,-0.43 -0.11,-0.19 -0.22,-0.56 -0.22,-0.58 l -0.02,-0.09 z m -2.9,6.36 h -0.06 c 0,0 0.04,-0.05 0.04,-0.05 0,0 0.14,-0.2 0.22,-0.44 0.08,-0.24 0.1,-0.45 0.1,-0.45 v -0.07 c 0,0 0.05,0.05 0.05,0.05 0,0 0.12,0.12 0.13,0.25 0,0.07 0,0.18 -0.02,0.25 0.11,-0.08 0.35,-0.26 0.52,-0.49 0.23,-0.31 0.43,-1.07 0.43,-1.08 l 0.02,-0.07 0.04,0.06 c 0,0 0.14,0.23 0.11,0.43 -0.02,0.12 -0.07,0.27 -0.11,0.36 0.05,-0.03 0.11,-0.08 0.16,-0.11 0.09,-0.08 0.24,-0.16 0.24,-0.17 l 0.04,0.05 c 0,0 -0.39,0.59 -0.87,0.94 -0.73,0.53 -1.03,0.55 -1.04,0.55 z m 2.26,-0.05 c 0,0 -0.17,0.14 -0.52,0.17 -0.03,0 -0.06,0 -0.09,0 -0.34,0 -0.77,-0.14 -0.79,-0.14 v -0.06 c 0,0 0.28,-0.05 0.68,-0.1 0.47,-0.05 0.7,0.07 0.71,0.08 l 0.04,0.02 -0.04,0.03 z m 1.02,-0.96 c 0,0 -0.12,0.07 -0.52,0.07 0,0 0,0 0,0 -0.4,0 -0.43,-0.15 -0.43,-0.17 v -0.02 c 0,0 0.02,0 0.02,0 0.01,0 0.24,-0.1 0.57,-0.06 0.33,0.04 0.37,0.14 0.37,0.16 v 0.02 c 0,0 -0.02,0.01 -0.02,0.01 z m 2.32,-3.76 c 0,0 -0.23,0.14 -0.55,0.17 -0.35,0.04 -0.81,0.11 -1,0.16 -0.14,0.04 -0.28,0.15 -0.35,0.21 -0.06,0.12 -0.12,0.24 -0.19,0.37 -0.06,0.12 -0.13,0.25 -0.2,0.39 -0.29,0.57 -0.58,0.96 -0.8,1.2 0.14,-0.02 0.33,-0.05 0.44,-0.05 0.06,0 0.12,0 0.18,0 0.13,0 0.26,-0.01 0.38,0 0.18,0.02 0.67,0.14 0.69,0.14 l 0.09,0.02 -0.09,0.04 c 0,0 -0.24,0.1 -0.57,0.08 -0.34,-0.02 -0.81,-0.03 -1.01,0 -0.2,0.03 -0.47,0.12 -0.48,0.12 h -0.02 c 0,0 -0.03,0.03 -0.03,0.03 v 0 c 0,0 -0.06,0.01 -0.06,0.01 l 0.07,-0.08 c 0,0 0.04,-0.33 0.09,-0.69 0.05,-0.36 -0.08,-1.37 -0.08,-1.38 V 63.5 c 0,0 0.05,0.06 0.05,0.06 0.01,0.01 0.33,0.33 0.33,0.82 0,0.21 -0.04,0.47 -0.06,0.64 0.23,-0.36 0.9,-1.43 1.32,-2.36 0.51,-1.13 0.53,-2.46 0.53,-2.47 h 0.06 c 0,0 0.12,0.46 0,1.37 -0.07,0.53 -0.22,0.95 -0.44,1.42 0.13,-0.05 0.32,-0.11 0.42,-0.12 0.06,0 0.1,-0.01 0.15,-0.02 0.08,0 0.16,-0.02 0.27,-0.05 0.19,-0.06 0.81,0 0.83,0 h 0.09 c 0,0 -0.08,0.06 -0.08,0.06 z"
         id="path543"
         style="fill:#f2a900;fill-rule:evenodd" />
    </g>
  </g>
</svg>
